<?xml version="1.0" encoding="utf-8"?>
<!-- Generator: Adobe Illustrator 16.0.0, SVG Export Plug-In . SVG Version: 6.00 Build 0)  -->
<!DOCTYPE svg PUBLIC "-//W3C//DTD SVG 1.1//EN" "http://www.w3.org/Graphics/SVG/1.1/DTD/svg11.dtd">
<svg version="1.1" id="Layer_1" xmlns="http://www.w3.org/2000/svg" xmlns:xlink="http://www.w3.org/1999/xlink" x="0px" y="0px"
	 width="28.5px" height="35px" viewBox="0 0 28.5 35" enable-background="new 0 0 28.5 35" xml:space="preserve">
<g>
	<path fill="#666666" d="M22.985,10.579c0-4.144-3.356-7.501-7.5-7.501c-4.143,0-7.5,3.357-7.5,7.501
		c0,3.498,2.394,6.435,5.632,7.265c-0.08,0.622-0.159,1.244-0.239,1.846c-0.286,2.116-0.574,4.243-0.859,6.359
		c-0.132,0.986-0.258,1.978-0.398,2.963c-0.01,0.082-0.079,0.204-0.144,0.221c-0.787,0.219-1.419-0.354-1.292-1.154
		c0.04-0.247,0.061-0.499,0.094-0.772c-0.611,0.161-1.153,0.371-1.612,0.748c-0.659,0.541-0.672,1.202,0,1.72
		c0.319,0.247,0.693,0.45,1.074,0.583c1.604,0.57,3.251,0.606,4.914,0.302c0.777-0.143,1.528-0.366,2.156-0.877
		c0.659-0.534,0.675-1.213-0.002-1.718c-0.373-0.279-0.818-0.482-1.256-0.648c-0.421-0.159-1.337-0.447-1.337-0.447
		s0.79-6.211,1.186-8.905C19.851,17.85,22.985,14.581,22.985,10.579z"/>
	<g>
		<path fill="#FFFFFF" d="M13.239,9.809c-1.068,0-1.933-0.866-1.933-1.934c0-1.066,0.865-1.932,1.933-1.932
			c1.067,0,1.934,0.866,1.934,1.932C15.173,8.942,14.306,9.809,13.239,9.809z"/>
	</g>
</g>
<g opacity="0.8">
	<g>
		<polygon fill="#082B81" points="8.359,4.664 5.925,4.094 5.594,5.51 8.095,6.096 		"/>
	</g>
	<g>
		<path fill="#082B81" d="M16.227,8.001l2.22,0.52l-0.389,1.658l-2.22-0.52l-0.678,2.893l2.605,0.611
			c0.216-0.607,0.409-1.283,0.574-2.044c0.382-1.355,0.638-2.516,0.766-3.479c0.022-0.164,0.042-0.308,0.061-0.444l-2.604-0.61
			c-0.017,0.063-0.051,0.195-0.051,0.195L16.227,8.001z"/>
	</g>
	<g>
		<path fill="#082B81" d="M10.028,6.549l4.266,1l0.283-1.428l-4.171-0.977c-0.019,0.072-0.039,0.146-0.061,0.225
			C10.146,6.104,10.04,6.498,10.028,6.549z"/>
	</g>
	<g>
		
			<rect x="9.269" y="8.67" transform="matrix(0.9736 0.2281 -0.2281 0.9736 2.5926 -2.3494)" fill="#082B81" width="4.382" height="2.742"/>
	</g>
	<g>
		<path fill="#082B81" d="M20.515,10.227c-0.288,1.21-0.608,2.328-0.961,3.354l2.185,0.512l1.199-5.118l0.199-0.849l-2.007-0.47
			c-0.009,0.032-0.017,0.062-0.026,0.096C21.101,7.762,20.905,8.587,20.515,10.227z"/>
	</g>
	<g>
		<path fill="#082B81" d="M23.58,14.524l2.271,0.532l1.297-5.533l0.102-0.435l-2.271-0.532c-0.009,0.037-0.017,0.073-0.026,0.112
			L23.58,14.524z"/>
	</g>
	<g>
		<path fill="#082B81" d="M23.58,14.524l-1.26,5.377l-1.842-0.432l1.26-5.377l-2.185-0.512c-0.126,0.366-0.255,0.722-0.39,1.065
			c-0.525,1.366-1.234,2.436-2.127,3.208c-0.893,0.772-1.499,1.218-1.509,1.216l-1.314-1.602c0.245-0.126,0.867-0.629,1.865-1.505
			c0.676-0.594,1.236-1.533,1.687-2.801l-2.605-0.611l-1.429,6.098l10.689,2.504l1.428-6.098L23.58,14.524z"/>
	</g>
	<g>
		
			<rect x="8.23" y="12.978" transform="matrix(-0.9736 -0.2281 0.2281 -0.9736 17.265 30.9467)" fill="#082B81" width="4.382" height="2.994"/>
	</g>
	<g>
		
			<rect x="1.932" y="12.118" transform="matrix(0.2281 -0.9736 0.9736 0.2281 -9.1408 15.2753)" fill="#082B81" width="6.263" height="2.569"/>
	</g>
	<g>
		
			<rect x="4.833" y="7.421" transform="matrix(0.9736 0.2281 -0.2281 0.9736 2.193 -1.1605)" fill="#082B81" width="2.569" height="2.972"/>
	</g>
	<g>
		<path fill="#FFFFFF" d="M7.028,10.647L5.6,16.745l8.133,1.905l1.429-6.098L7.028,10.647z M12.212,16.433l-4.266-1l0.683-2.916
			l4.266,1L12.212,16.433z"/>
	</g>
	<g>
		<path fill="#FFFFFF" d="M7.028,10.647l8.133,1.905l0.678-2.893l0.723-3.074l-1.985-0.465l-0.283,1.428l-4.266-1l0.378-1.405
			L8.359,4.664L8.095,6.096L5.594,5.51L5.206,7.167l2.501,0.586L7.028,10.647z M9.64,8.206l4.266,1l-0.625,2.67l-4.266-1L9.64,8.206
			z"/>
	</g>
	<g>
		<polygon fill="#FFFFFF" points="15.839,9.659 18.059,10.179 18.447,8.521 16.227,8.001 16.562,6.585 16.562,6.585 		"/>
	</g>
	<g>
		
			<rect x="21.083" y="14.236" transform="matrix(-0.9736 -0.2282 0.2282 -0.9736 39.5981 38.5727)" fill="#FFFFFF" width="1.892" height="5.523"/>
	</g>
	<g>
		<path fill="#FFFFFF" d="M16.079,15.963c-0.998,0.876-1.837,1.431-2.082,1.557l-0.265,1.129l1.795,0.42
			c0.01,0.002,0.616-0.443,1.509-1.216c0.894-0.772,1.603-1.843,2.127-3.208c0.134-0.343,0.264-0.699,0.39-1.065l-1.788-0.418
			C17.315,14.431,16.755,15.37,16.079,15.963z"/>
	</g>
	<g>
		<path fill="#FFFFFF" d="M18.34,11.118c-0.165,0.761-0.358,1.438-0.574,2.044l1.788,0.418c0.353-1.026,0.674-2.144,0.961-3.354
			c0.39-1.64,0.585-2.465,0.588-2.475c0.009-0.035,0.017-0.064,0.026-0.096l-1.963-0.46C19.147,7.332,18.685,9.646,18.34,11.118z"/>
	</g>
	<g>
		<path fill="#FFFFFF" d="M21.738,14.093l1.841,0.432l1.372-5.855c0.009-0.039,0.017-0.075,0.026-0.112l-1.841-0.432l-0.199,0.849
			L21.738,14.093z"/>
	</g>
	<g>
		<path fill="#717171" d="M24.596,22.103c-0.053,0-0.107-0.006-0.159-0.019L2.673,16.985c-0.181-0.042-0.334-0.152-0.432-0.31
			c-0.098-0.158-0.128-0.345-0.086-0.526L5.075,3.683C5.161,3.314,5.54,3.076,5.911,3.164l21.764,5.099
			c0.181,0.042,0.334,0.152,0.432,0.31c0.098,0.158,0.129,0.344,0.086,0.525l-2.92,12.467
			C25.198,21.881,24.919,22.103,24.596,22.103z M5.752,3.493c-0.162,0-0.301,0.11-0.338,0.269L2.493,16.229
			c-0.021,0.09-0.006,0.184,0.043,0.263c0.049,0.079,0.125,0.134,0.216,0.155l21.764,5.099c0.184,0.046,0.374-0.075,0.417-0.259
			l2.92-12.467c0.021-0.09,0.006-0.184-0.043-0.263c-0.049-0.079-0.125-0.134-0.215-0.155L5.832,3.502
			C5.805,3.496,5.779,3.493,5.752,3.493z"/>
	</g>
</g>
</svg>
