<?xml version="1.0" encoding="utf-8"?>
<!-- Generator: Adobe Illustrator 16.0.0, SVG Export Plug-In . SVG Version: 6.00 Build 0)  -->
<!DOCTYPE svg PUBLIC "-//W3C//DTD SVG 1.1//EN" "http://www.w3.org/Graphics/SVG/1.1/DTD/svg11.dtd">
<svg version="1.1" id="Layer_1" xmlns="http://www.w3.org/2000/svg" xmlns:xlink="http://www.w3.org/1999/xlink" x="0px" y="0px"
	 width="30px" height="28px" viewBox="0 0 30 28" enable-background="new 0 0 30 28" xml:space="preserve">
<g>
	<rect fill="#FFFFFF" width="30" height="28"/>
	<g opacity="0.35">
		<path fill="#FFFFFF" d="M3.368,22.479c-0.938,0-1.783,0-2.638,0c0,0.432,0,0.779,0,1.16c9.345,0,18.673,0,28,0
			c0-0.42,0-0.773,0-1.197c-0.737,0-1.424,0-2.211,0c0-5.117,0-10.165,0-15.272c-4.01,0-7.921,0-11.906,0
			c0-0.787-0.017-1.508,0-2.224c0.017-0.548-0.202-0.825-0.774-0.82c-2.239,0.008-4.484,0.008-6.728-0.005
			c-0.604,0-0.83,0.285-0.809,0.867c0.025,0.715,0.004,1.432,0.004,2.227c-1.021,0-1.967,0-2.938,0
			C3.368,12.318,3.368,17.334,3.368,22.479z"/>
		<path fill-rule="evenodd" clip-rule="evenodd" fill="#333333" d="M3.368,22.479c0-5.145,0-10.161,0-15.264
			c0.972,0,1.917,0,2.938,0c0-0.795,0.021-1.512-0.004-2.227C6.281,4.406,6.507,4.121,7.111,4.121
			c2.243,0.013,4.488,0.013,6.728,0.005c0.572-0.005,0.791,0.272,0.774,0.82c-0.017,0.716,0,1.437,0,2.224c3.985,0,7.896,0,11.906,0
			c0,5.107,0,10.155,0,15.272c0.787,0,1.474,0,2.211,0c0,0.424,0,0.777,0,1.197c-9.327,0-18.655,0-28,0c0-0.381,0-0.729,0-1.16
			C1.584,22.479,2.43,22.479,3.368,22.479z M4.666,13.826c0,2.893,0,5.727,0,8.573c0.561,0,1.08,0,1.675,0c0-1.953,0-3.854,0-5.764
			c5.644,0,11.212,0,16.888,0c0,1.947,0,3.873,0,5.77c0.741,0,1.383,0,2.035,0c0-2.885,0-5.723,0-8.563c-3.562,0-7.075,0-10.584,0
			c-0.155,1.031-0.188,1.064-1.188,1.068c-1.984,0.005-3.969,0.005-5.953,0.008c-1.101,0.005-1.144-0.037-1.29-1.092
			C5.746,13.826,5.235,13.826,4.666,13.826z M13.411,13.633c0-2.78,0-5.493,0-8.206c-1.963,0-3.885,0-5.806,0
			c0,2.755,0,5.467,0,8.206C9.551,13.633,11.456,13.633,13.411,13.633z M21.981,17.91c-2.243,0-4.417,0-6.598,0
			c0,1.5,0,2.957,0,4.406c2.227,0,4.399,0,6.598,0C21.981,20.824,21.981,19.395,21.981,17.91z M7.605,22.307c2.201,0,4.329,0,6.43,0
			c0-1.506,0-2.963,0-4.398c-2.185,0-4.312,0-6.43,0C7.605,19.41,7.605,20.842,7.605,22.307z M25.25,12.523c0-0.636,0-1.201,0-1.754
			c-3.562,0-7.07,0-10.583,0c0,0.61,0,1.176,0,1.754C18.217,12.523,21.709,12.523,25.25,12.523z M25.285,8.483
			c-3.581,0-7.092,0-10.63,0c0,0.336,0,0.624,0,0.935c3.562,0,7.087,0,10.63,0C25.285,9.085,25.285,8.819,25.285,8.483z
			 M4.666,10.752c0,0.599,0,1.16,0,1.733c0.561,0,1.076,0,1.59,0c0-0.604,0-1.164,0-1.733C5.704,10.752,5.202,10.752,4.666,10.752z
			 M4.662,9.429c0.582,0,1.084,0,1.594,0c0-0.344,0-0.652,0-0.946c-0.561,0-1.062,0-1.594,0C4.662,8.814,4.662,9.103,4.662,9.429z"
			/>
		<path fill-rule="evenodd" clip-rule="evenodd" fill="#FFFFFF" d="M4.666,13.826c0.569,0,1.08,0,1.582,0
			c0.146,1.055,0.189,1.097,1.29,1.092c1.984-0.003,3.969-0.003,5.953-0.008c1.001-0.004,1.033-0.037,1.188-1.068
			c3.509,0,7.021,0,10.584,0c0,2.84,0,5.678,0,8.563c-0.652,0-1.294,0-2.035,0c0-1.896,0-3.822,0-5.77c-5.676,0-11.244,0-16.888,0
			c0,1.91,0,3.811,0,5.764c-0.595,0-1.114,0-1.675,0C4.666,19.553,4.666,16.719,4.666,13.826z"/>
		<path fill-rule="evenodd" clip-rule="evenodd" fill="#FFFFFF" d="M13.411,13.633c-1.955,0-3.859,0-5.806,0
			c0-2.739,0-5.451,0-8.206c1.921,0,3.843,0,5.806,0C13.411,8.14,13.411,10.853,13.411,13.633z"/>
		<path fill-rule="evenodd" clip-rule="evenodd" fill="#FFFFFF" d="M21.981,17.91c0,1.484,0,2.914,0,4.406c-2.198,0-4.371,0-6.598,0
			c0-1.449,0-2.906,0-4.406C17.564,17.91,19.738,17.91,21.981,17.91z"/>
		<path fill-rule="evenodd" clip-rule="evenodd" fill="#FFFFFF" d="M7.605,22.307c0-1.465,0-2.896,0-4.398c2.118,0,4.245,0,6.43,0
			c0,1.436,0,2.893,0,4.398C11.934,22.307,9.806,22.307,7.605,22.307z"/>
		<path fill-rule="evenodd" clip-rule="evenodd" fill="#FFFFFF" d="M25.25,12.523c-3.541,0-7.033,0-10.583,0
			c0-0.578,0-1.144,0-1.754c3.513,0,7.021,0,10.583,0C25.25,11.322,25.25,11.887,25.25,12.523z"/>
		<path fill-rule="evenodd" clip-rule="evenodd" fill="#FFFFFF" d="M25.285,8.483c0,0.336,0,0.603,0,0.935c-3.543,0-7.067,0-10.63,0
			c0-0.311,0-0.599,0-0.935C18.193,8.483,21.704,8.483,25.285,8.483z"/>
		<path fill-rule="evenodd" clip-rule="evenodd" fill="#FFFFFF" d="M4.666,10.752c0.536,0,1.038,0,1.59,0c0,0.569,0,1.13,0,1.733
			c-0.514,0-1.029,0-1.59,0C4.666,11.913,4.666,11.351,4.666,10.752z"/>
		<path fill-rule="evenodd" clip-rule="evenodd" fill="#FFFFFF" d="M4.662,9.429c0-0.326,0-0.615,0-0.946c0.532,0,1.033,0,1.594,0
			c0,0.294,0,0.603,0,0.946C5.746,9.429,5.244,9.429,4.662,9.429z"/>
	</g>
</g>
</svg>
