<?xml version="1.0" encoding="utf-8"?>
<!-- Generator: Adobe Illustrator 16.0.0, SVG Export Plug-In . SVG Version: 6.00 Build 0)  -->
<!DOCTYPE svg PUBLIC "-//W3C//DTD SVG 1.1//EN" "http://www.w3.org/Graphics/SVG/1.1/DTD/svg11.dtd">
<svg version="1.1" id="Layer_1" xmlns="http://www.w3.org/2000/svg" xmlns:xlink="http://www.w3.org/1999/xlink" x="0px" y="0px"
	 width="30px" height="28px" viewBox="0 0 30 28" enable-background="new 0 0 30 28" xml:space="preserve">
<g>
	<rect fill="#FFFFFF" width="30" height="28"/>
	<g opacity="0.35">
		<path fill="#FFFFFF" d="M4.755,26.879c6.748,0,13.399,0,20.058,0c0-0.538,0-1.018,0-1.561c-0.952,0-1.858-0.052-2.765,0.009
			c-0.703,0.052-0.921-0.245-1.029-0.885c-0.531-3.222-1.122-5.056-1.66-8.277c-0.319-1.915-0.902-3.692-0.094-5.667
			c0.339-0.835-0.328-1.521-1.324-1.534c-2.108-0.031-4.223-0.036-6.33,0.008c-1.09,0.021-1.459,0.697-1.258,1.802
			c0.176,0.992,0.362,2.031,0.229,3.009c-0.377,2.814-0.914,4.684-1.399,7.488c-0.268,1.534-0.554,2.481-0.846,4.068
			c-1.231,0-2.39,0-3.581,0C4.755,25.892,4.755,26.366,4.755,26.879z"/>
		<path fill="#FFFFFF" d="M15.545,7.813c0-0.752,0-1.447,0-2.166c-0.538,0-1.028,0-1.506,0c0,0.753,0,1.453,0,2.166
			C14.563,7.813,15.033,7.813,15.545,7.813z"/>
		<path fill-rule="evenodd" clip-rule="evenodd" fill="#333333" d="M4.755,26.879c0-0.514,0-0.987,0-1.54c1.191,0,2.35,0,3.581,0
			c0.292-1.587,0.578-2.534,0.846-4.068c0.485-2.805,1.022-4.674,1.399-7.488c0.134-0.978-0.053-2.017-0.229-3.009
			c-0.201-1.104,0.168-1.781,1.258-1.802c2.107-0.044,4.222-0.039,6.33-0.008c0.996,0.014,1.663,0.699,1.324,1.534
			c-0.809,1.975-0.226,3.752,0.094,5.667c0.538,3.222,1.129,5.056,1.66,8.277c0.108,0.64,0.326,0.937,1.029,0.885
			c0.906-0.061,1.812-0.009,2.765-0.009c0,0.543,0,1.022,0,1.561C18.155,26.879,11.503,26.879,4.755,26.879z M19.466,25.278
			c-0.013-0.262-0.008-0.486-0.043-0.701c-0.275-1.628-0.557-2.671-0.839-4.299c-0.266-1.515-0.271-0.825-1.811-0.831
			c-1.821-0.011-3.638-0.006-5.505-0.006c-0.422,2.399-0.824,3.462-1.233,5.805c1.34,0,2.548,0,3.817,0c0-1.628,0-2.608,0-4.2
			c0.639,0,1.217,0,1.893,0c0,1.633,0,2.635,0,4.232C17.033,25.278,18.222,25.278,19.466,25.278z M12.271,10.668
			c0,1.313,0,2.479,0,3.766c1.668,0,3.383,0,5.045,0c0-1.329,0-2.471,0-3.766C15.708,10.668,13.925,10.668,12.271,10.668z
			 M17.755,16.236c-2.036,0-3.985,0-5.93,0c-0.087,0.575-0.157,0.96-0.234,1.45c2.148,0,4.236,0,6.421,0
			C17.919,17.115,17.841,16.762,17.755,16.236z"/>
		<path fill-rule="evenodd" clip-rule="evenodd" fill="#B3B3B3" d="M18.302,5.596c0,0.812,0,1.485,0,2.211c-0.547,0-1.641,0-1.641,0
			l0.014-2.909L14.83,3.307l-1.875,1.564l-0.035,1.533l0.012,1.402c0,0-1.07,0-1.639,0c0-0.694,0-1.372,0-2.211
			c-0.434,0.309-0.721,0.635-1.064,0.728c-0.377,0.091-0.955,0.132-1.19-0.081c-0.419-0.38-0.21-0.881,0.235-1.229
			c0.045-0.035,0.096-0.061,0.143-0.092c1.775-1.34,3.557-2.677,5.369-4.042c1.842,1.392,3.683,2.773,5.52,4.164
			c0.42,0.318,0.584,0.738,0.261,1.188c-0.358,0.498-0.829,0.4-1.274,0.093C18.995,6.12,18.712,5.894,18.302,5.596z"/>
		<path fill-rule="evenodd" clip-rule="evenodd" fill="#B3B3B3" d="M15.545,7.813c-0.513,0-0.982,0-1.506,0c0-0.713,0-1.413,0-2.166
			c0.478,0,0.968,0,1.506,0C15.545,6.366,15.545,7.061,15.545,7.813z"/>
		<path fill-rule="evenodd" clip-rule="evenodd" fill="#FFFFFF" d="M19.466,25.278c-1.244,0-2.434,0-3.721,0c0-1.598,0-2.6,0-4.232
			c-0.676,0-1.254,0-1.893,0c0,1.592,0,2.572,0,4.2c-1.27,0-2.478,0-3.817,0c0.409-2.343,0.812-3.405,1.233-5.805
			c1.867,0,3.684-0.005,5.505,0.006c1.54,0.006,1.545-0.684,1.811,0.831c0.282,1.628,0.563,2.671,0.839,4.299
			C19.458,24.792,19.454,25.016,19.466,25.278z"/>
		<path fill-rule="evenodd" clip-rule="evenodd" fill="#FFFFFF" d="M12.271,10.668c1.654,0,3.438,0,5.045,0c0,1.295,0,2.437,0,3.766
			c-1.662,0-3.377,0-5.045,0C12.271,13.147,12.271,11.982,12.271,10.668z"/>
		<path fill-rule="evenodd" clip-rule="evenodd" fill="#FFFFFF" d="M17.755,16.236c0.086,0.526,0.164,0.879,0.257,1.45
			c-2.185,0-4.272,0-6.421,0c0.077-0.49,0.147-0.875,0.234-1.45C13.77,16.236,15.719,16.236,17.755,16.236z"/>
	</g>
</g>
</svg>
