<?xml version="1.0" encoding="utf-8"?>
<!-- Generator: Adobe Illustrator 16.0.0, SVG Export Plug-In . SVG Version: 6.00 Build 0)  -->
<!DOCTYPE svg PUBLIC "-//W3C//DTD SVG 1.1//EN" "http://www.w3.org/Graphics/SVG/1.1/DTD/svg11.dtd">
<svg version="1.1" id="Layer_1" xmlns="http://www.w3.org/2000/svg" xmlns:xlink="http://www.w3.org/1999/xlink" x="0px" y="0px"
	 width="30px" height="28px" viewBox="0 0 30 28" enable-background="new 0 0 30 28" xml:space="preserve">
<g>
	<rect fill="#FFFFFF" width="30" height="28"/>
	<g opacity="0.35">
		<path fill="#FFFFFF" d="M1.492,26.858c8.938,0,17.803,0,26.656,0c0-0.463,0-0.869,0-1.373c-0.648,0-1.252,0-1.895,0
			c0-0.383,0-0.662,0-0.951c0.008-4.434,0.02-8.871,0.033-13.311c0-0.184,0.004-0.363,0-0.545c-0.037-0.918-0.377-1.262-1.295-1.27
			c-1.219-0.016-2.438-0.006-3.658,0c-0.848,0-1.699,0-2.617,0c0-0.379,0-0.658,0-0.938c0.006-2.053,0.006-4.1,0.006-6.152
			c0-1.262-0.191-1.461-1.43-1.461c-2.932,0-5.865,0-8.797,0c-1.141,0-1.377,0.23-1.381,1.359c-0.006,1.084,0,2.162,0,3.336
			c-0.602,0-1.113-0.004-1.621,0c-1.504,0-2.08,0.566-2.086,2.053c0,5.684,0,11.371,0,17.053c0,0.275,0,0.547,0,0.881
			c-0.707,0-1.293,0-1.916,0C1.492,26.004,1.492,26.411,1.492,26.858z"/>
		<path fill-rule="evenodd" clip-rule="evenodd" fill="#333333" d="M1.492,26.858c0-0.447,0-0.854,0-1.318c0.623,0,1.209,0,1.916,0
			c0-0.334,0-0.605,0-0.881c0-5.682,0-11.369,0-17.053C3.414,6.12,3.99,5.553,5.494,5.553c0.508-0.004,1.02,0,1.621,0
			c0-1.174-0.006-2.252,0-3.336c0.004-1.129,0.24-1.359,1.381-1.359c2.932,0,5.865,0,8.797,0c1.238,0,1.43,0.199,1.43,1.461
			c0,2.053,0,4.1-0.006,6.152c0,0.279,0,0.559,0,0.938c0.918,0,1.77,0,2.617,0c1.221-0.006,2.439-0.016,3.658,0
			c0.918,0.008,1.258,0.352,1.295,1.27c0.004,0.182,0,0.361,0,0.545c-0.014,4.439-0.025,8.877-0.033,13.311c0,0.289,0,0.568,0,0.951
			c0.643,0,1.246,0,1.895,0c0,0.504,0,0.91,0,1.373C19.294,26.858,10.429,26.858,1.492,26.858z M6.173,21.448
			c1.285,0,2.447,0.043,3.607-0.014c0.746-0.037,1.012,0.168,0.945,0.951c-0.08,1.018-0.02,2.051-0.02,3.07c0.535,0,0.959,0,1.377,0
			c0-6.199,0-12.334,0-18.455C9.64,7,7.261,7,4.861,7c0,6.176,0,12.32,0,18.473c0.445,0,0.852,0,1.312,0
			C6.173,24.143,6.173,22.85,6.173,21.448z M16.871,10.733c0,4.846,0,9.631,0,14.393c2.656,0,5.264,0,7.855,0
			c0-4.826,0-9.594,0-14.393C22.097,10.733,19.513,10.733,16.871,10.733z M17.279,2.319c-2.953,0-5.822,0-8.676,0
			c0,1.104,0,2.15,0,3.188c1.578,0.215,3.096-0.074,4.646,0.422c1.213,0.393,2.658,0.08,4.029,0.08
			C17.279,4.729,17.279,3.547,17.279,2.319z M13.591,16.977c0,2.865,0,5.678,0,8.496c0.637,0,1.217,0,1.826,0
			c0-2.848,0-5.654,0-8.496C14.798,16.977,14.236,16.977,13.591,16.977z M13.556,9.081c1.246,0,2.486,0,3.713,0
			c0-0.572,0-1.078,0-1.6c-1.266,0-2.484,0-3.713,0C13.556,8.038,13.556,8.528,13.556,9.081z M9.259,22.895c-0.6,0-1.102,0-1.629,0
			c0,0.885,0,1.723,0,2.561c0.572,0,1.096,0,1.629,0C9.259,24.577,9.259,23.762,9.259,22.895z M15.519,15.672
			c0-0.709,0-1.332,0-1.957c-0.678,0-1.312,0-1.912,0c0,0.688,0,1.314,0,1.957C14.263,15.672,14.855,15.672,15.519,15.672z
			 M13.603,10.571c0,0.701,0,1.332,0,1.959c0.67,0,1.279,0,1.922,0c0-0.664,0-1.299,0-1.959
			C14.867,10.571,14.257,10.571,13.603,10.571z"/>
		<path fill-rule="evenodd" clip-rule="evenodd" fill="#FFFFFF" d="M6.173,21.448c0,1.402,0,2.695,0,4.025c-0.461,0-0.867,0-1.312,0
			c0-6.152,0-12.297,0-18.473c2.4,0,4.779,0,7.223,0c0,6.121,0,12.256,0,18.455c-0.418,0-0.842,0-1.377,0
			c0-1.02-0.061-2.053,0.02-3.07c0.066-0.783-0.199-0.988-0.945-0.951C8.621,21.491,7.458,21.448,6.173,21.448z M6.896,15.413
			c0,0.576,0,1.102,0,1.613c0.582,0,1.107,0,1.623,0c0-0.562,0-1.074,0-1.613C7.974,15.413,7.466,15.413,6.896,15.413z
			 M8.519,12.313c-0.576,0-1.104,0-1.615,0c0,0.576,0,1.096,0,1.619c0.562,0,1.07,0,1.615,0C8.519,13.387,8.519,12.879,8.519,12.313
			z M6.884,18.362c0,0.6,0,1.109,0,1.641c0.568,0,1.09,0,1.621,0c0-0.578,0-1.1,0-1.641C7.943,18.362,7.435,18.362,6.884,18.362z
			 M6.904,9.323c0,0.611,0,1.135,0,1.648c0.574,0,1.08,0,1.605,0c0-0.568,0-1.094,0-1.648C7.955,9.323,7.449,9.323,6.904,9.323z"/>
		<path fill-rule="evenodd" clip-rule="evenodd" fill="#FFFFFF" d="M16.871,10.733c2.643,0,5.227,0,7.855,0
			c0,4.799,0,9.566,0,14.393c-2.592,0-5.199,0-7.855,0C16.871,20.364,16.871,15.579,16.871,10.733z M23.171,19.014
			c-0.555,0-1.021,0-1.49,0c0,0.516,0,0.975,0,1.453c0.518,0,0.992,0,1.49,0C23.171,19.963,23.171,19.506,23.171,19.014z
			 M18.746,18.987c0,0.549,0,1.023,0,1.488c0.516,0,0.973,0,1.451,0c0-0.516,0-0.986,0-1.488
			C19.695,18.987,19.238,18.987,18.746,18.987z M18.712,13.749c0.559,0,1.035,0,1.484,0c0-0.516,0-0.971,0-1.441
			c-0.516,0-0.99,0-1.484,0C18.712,12.815,18.712,13.266,18.712,13.749z M21.703,12.288c0,0.545,0,1.02,0,1.461
			c0.529,0,1.004,0,1.455,0c0-0.516,0-0.971,0-1.461C22.66,12.288,22.21,12.288,21.703,12.288z M20.197,17.208
			c0-0.549,0-1.004,0-1.475c-0.516,0-0.99,0-1.455,0c0,0.525,0,1,0,1.475C19.251,17.208,19.71,17.208,20.197,17.208z M21.677,17.198
			c0.545,0,1.002,0,1.48,0c0-0.51,0-0.984,0-1.461c-0.527,0-0.996,0-1.48,0C21.677,16.249,21.677,16.706,21.677,17.198z"/>
		<path fill-rule="evenodd" clip-rule="evenodd" fill="#FFFFFF" d="M17.279,2.319c0,1.229,0,2.41,0,3.689
			c-1.371,0-2.816,0.312-4.029-0.08c-1.551-0.496-3.068-0.207-4.646-0.422c0-1.037,0-2.084,0-3.188
			C11.457,2.319,14.326,2.319,17.279,2.319z"/>
		<path fill-rule="evenodd" clip-rule="evenodd" fill="#FFFFFF" d="M13.591,16.977c0.645,0,1.207,0,1.826,0c0,2.842,0,5.648,0,8.496
			c-0.609,0-1.189,0-1.826,0C13.591,22.655,13.591,19.842,13.591,16.977z"/>
		<path fill-rule="evenodd" clip-rule="evenodd" fill="#FFFFFF" d="M13.556,9.081c0-0.553,0-1.043,0-1.6c1.229,0,2.447,0,3.713,0
			c0,0.521,0,1.027,0,1.6C16.042,9.081,14.802,9.081,13.556,9.081z"/>
		<path fill-rule="evenodd" clip-rule="evenodd" fill="#FFFFFF" d="M9.259,22.895c0,0.867,0,1.682,0,2.561c-0.533,0-1.057,0-1.629,0
			c0-0.838,0-1.676,0-2.561C8.158,22.895,8.66,22.895,9.259,22.895z"/>
		<path fill-rule="evenodd" clip-rule="evenodd" fill="#FFFFFF" d="M15.519,15.672c-0.664,0-1.256,0-1.912,0c0-0.643,0-1.27,0-1.957
			c0.6,0,1.234,0,1.912,0C15.519,14.34,15.519,14.963,15.519,15.672z"/>
		<path fill-rule="evenodd" clip-rule="evenodd" fill="#FFFFFF" d="M13.603,10.571c0.654,0,1.264,0,1.922,0c0,0.66,0,1.295,0,1.959
			c-0.643,0-1.252,0-1.922,0C13.603,11.903,13.603,11.272,13.603,10.571z"/>
		<path fill-rule="evenodd" clip-rule="evenodd" fill="#B3B3B3" d="M6.896,15.413c0.57,0,1.078,0,1.623,0c0,0.539,0,1.051,0,1.613
			c-0.516,0-1.041,0-1.623,0C6.896,16.514,6.896,15.989,6.896,15.413z"/>
		<path fill-rule="evenodd" clip-rule="evenodd" fill="#B3B3B3" d="M8.519,12.313c0,0.566,0,1.074,0,1.619c-0.545,0-1.053,0-1.615,0
			c0-0.523,0-1.043,0-1.619C7.416,12.313,7.943,12.313,8.519,12.313z"/>
		<path fill-rule="evenodd" clip-rule="evenodd" fill="#B3B3B3" d="M6.884,18.362c0.551,0,1.059,0,1.621,0c0,0.541,0,1.062,0,1.641
			c-0.531,0-1.053,0-1.621,0C6.884,19.471,6.884,18.961,6.884,18.362z"/>
		<path fill-rule="evenodd" clip-rule="evenodd" fill="#B3B3B3" d="M6.904,9.323c0.545,0,1.051,0,1.605,0c0,0.555,0,1.08,0,1.648
			c-0.525,0-1.031,0-1.605,0C6.904,10.458,6.904,9.934,6.904,9.323z"/>
		<path fill-rule="evenodd" clip-rule="evenodd" fill="#B3B3B3" d="M23.171,19.014c0,0.492,0,0.949,0,1.453c-0.498,0-0.973,0-1.49,0
			c0-0.479,0-0.938,0-1.453C22.15,19.014,22.617,19.014,23.171,19.014z"/>
		<path fill-rule="evenodd" clip-rule="evenodd" fill="#B3B3B3" d="M18.746,18.987c0.492,0,0.949,0,1.451,0c0,0.502,0,0.973,0,1.488
			c-0.479,0-0.936,0-1.451,0C18.746,20.01,18.746,19.536,18.746,18.987z"/>
		<path fill-rule="evenodd" clip-rule="evenodd" fill="#B3B3B3" d="M18.712,13.749c0-0.482,0-0.934,0-1.441c0.494,0,0.969,0,1.484,0
			c0,0.471,0,0.926,0,1.441C19.748,13.749,19.271,13.749,18.712,13.749z"/>
		<path fill-rule="evenodd" clip-rule="evenodd" fill="#B3B3B3" d="M21.703,12.288c0.508,0,0.957,0,1.455,0c0,0.49,0,0.945,0,1.461
			c-0.451,0-0.926,0-1.455,0C21.703,13.307,21.703,12.833,21.703,12.288z"/>
		<path fill-rule="evenodd" clip-rule="evenodd" fill="#B3B3B3" d="M20.197,17.208c-0.486,0-0.945,0-1.455,0
			c0-0.475,0-0.949,0-1.475c0.465,0,0.939,0,1.455,0C20.197,16.204,20.197,16.659,20.197,17.208z"/>
		<path fill-rule="evenodd" clip-rule="evenodd" fill="#B3B3B3" d="M21.677,17.198c0-0.492,0-0.949,0-1.461c0.484,0,0.953,0,1.48,0
			c0,0.477,0,0.951,0,1.461C22.679,17.198,22.222,17.198,21.677,17.198z"/>
	</g>
</g>
</svg>
