<?xml version="1.0" encoding="utf-8"?>
<!-- Generator: Adobe Illustrator 16.0.0, SVG Export Plug-In . SVG Version: 6.00 Build 0)  -->
<!DOCTYPE svg PUBLIC "-//W3C//DTD SVG 1.1//EN" "http://www.w3.org/Graphics/SVG/1.1/DTD/svg11.dtd">
<svg version="1.1" id="Layer_1" xmlns="http://www.w3.org/2000/svg" xmlns:xlink="http://www.w3.org/1999/xlink" x="0px" y="0px"
	 width="30px" height="28px" viewBox="0 0 30 28" enable-background="new 0 0 30 28" xml:space="preserve">
<g>
	<rect fill="#FFFFFF" width="30" height="28"/>
	<g opacity="0.35">
		<path fill="#FFFFFF" d="M0.73,25.512c9.383,0,18.7,0,28,0c0-0.516,0-0.979,0-1.496c-0.635,0-1.207,0-1.822,0
			c-0.02-1.633-0.709-2.65-2.434-2.703c0-4.32,0-5.613,0-9.967c0.744,0,1.443,0.018,2.143,0c0.871-0.028,1.297-0.464,1.361-1.317
			c0.08-1.079-0.229-1.605-1.326-2.112c-3.639-1.698-7.285-3.371-10.914-5.063c-0.672-0.313-1.299-0.305-1.961,0.009
			c-2.213,1.044-4.445,2.06-6.658,3.085C5.603,6.644,4.087,7.343,2.582,8.05c-0.926,0.446-1.244,1.243-0.98,2.358
			c0.154,0.682,0.627,0.937,1.68,0.937c0.58,0,1.152,0,1.76,0c0,4.354,0,5.647,0,9.967c-1.752,0.035-2.387,1.105-2.434,2.73
			c-0.65,0-1.25,0-1.877,0C0.73,24.561,0.73,25.014,0.73,25.512z"/>
		<path fill-rule="evenodd" clip-rule="evenodd" fill="#333333" d="M0.73,25.512c0-0.498,0-0.951,0-1.469c0.627,0,1.227,0,1.877,0
			c0.047-1.625,0.682-2.695,2.434-2.73c0-4.32,0-5.613,0-9.967c-0.607,0-1.18,0-1.76,0c-1.053,0-1.525-0.255-1.68-0.937
			C1.337,9.293,1.656,8.497,2.582,8.05c1.506-0.707,3.021-1.406,4.537-2.104c2.213-1.025,4.445-2.041,6.658-3.085
			c0.662-0.313,1.29-0.322,1.961-0.009c3.629,1.692,7.275,3.365,10.914,5.063c1.098,0.507,1.406,1.033,1.326,2.112
			c-0.064,0.854-0.49,1.289-1.361,1.317c-0.699,0.018-1.398,0-2.143,0c0,4.354,0,5.647,0,9.967c1.725,0.053,2.414,1.07,2.434,2.703
			c0.615,0,1.188,0,1.822,0c0,0.518,0,0.98,0,1.496C19.43,25.512,10.113,25.512,0.73,25.512z M22.971,21.34c0-4.383,0-5.678,0-9.951
			c-5.5,0-10.944,0-16.442,0c0,4.31,0,5.595,0,9.951c1.414,0,2.793,0,4.156,0c0,0.533,0,0.969,0,1.479c-1.908,0-3.775,0-5.637,0
			c-0.889,0.01-1.098,0.289-0.898,1.17c7.096,0,14.182,0,21.27,0c0-1.016-0.146-1.16-1.08-1.17c-0.5,0-1.008,0-1.516,0
			c-1.334,0-2.658,0-4.01,0c0-0.535,0-0.98,0-1.479C20.211,21.34,21.572,21.34,22.971,21.34z M2.89,9.647
			c0.062,0.092,0.117,0.182,0.182,0.264c0.652,0,1.307-0.045,1.959,0.009c1.07,0.092,2.023-0.19,2.986-0.644
			c2.068-0.98,4.172-1.906,6.277-2.826c0.254-0.114,0.645-0.131,0.889-0.023c2.361,1.035,4.711,2.087,7.043,3.158
			c1.414,0.645,2.848,0.182,4.336,0.182c-0.199-0.328-0.445-0.527-0.717-0.663c-3.156-1.471-6.342-2.877-9.463-4.423
			c-1.152-0.566-2.071-0.586-3.231-0.009C10.013,6.237,6.8,7.643,3.625,9.122C3.351,9.249,3.134,9.475,2.89,9.647z M19.441,9.883
			c-1.607-0.726-3.014-1.37-4.42-1.996c-0.145-0.054-0.354-0.063-0.5,0c-1.414,0.617-2.812,1.262-4.229,1.896
			c0.012,0.037,0.02,0.063,0.027,0.1C13.289,9.883,16.246,9.883,19.441,9.883z"/>
		<path fill-rule="evenodd" clip-rule="evenodd" fill="#FFFFFF" d="M22.971,21.34c-1.398,0-2.76,0-4.156,0c0,0.498,0,0.943,0,1.479
			c1.352,0,2.676,0,4.01,0c0.508,0,1.016,0,1.516,0c0.934,0.01,1.08,0.154,1.08,1.17c-7.088,0-14.174,0-21.27,0
			c-0.199-0.881,0.01-1.16,0.898-1.17c1.861,0,3.729,0,5.637,0c0-0.51,0-0.945,0-1.479c-1.363,0-2.742,0-4.156,0
			c0-4.355,0-5.641,0-9.951c5.498,0,10.942,0,16.442,0C22.971,15.662,22.971,16.957,22.971,21.34z M16.074,18.76
			c0,1.49,0,2.605,0,4.004c0.518,0,0.934,0,1.352,0c0-1.924,0-3.477,0-5.363c-1.789,0-3.54,0-5.307,0c0,1.922,0,3.494,0,5.373
			c0.461,0,0.879,0,1.379,0c0-1.471,0-2.588,0-4.014C14.367,18.76,15.148,18.76,16.074,18.76z M21.346,15.121
			c-4.447,0-8.811,0-13.157,0c0,0.473,0,0.881,0,1.289c4.418,0,8.784,0,13.157,0C21.346,15.957,21.346,15.557,21.346,15.121z
			 M10.013,20.529c0-1.088,0-2.104,0-3.111c-0.645,0-1.217,0-1.816,0c0,1.053,0,2.068,0,3.111
			C8.824,20.529,9.396,20.529,10.013,20.529z M19.484,20.521c0.654,0,1.227,0,1.824,0c0-1.043,0-2.061,0-3.094
			c-0.635,0-1.215,0-1.824,0C19.484,18.48,19.484,19.479,19.484,20.521z M17.771,12.608c0,1.098,0,0.68,0,1.687
			c0.588,0,1.105,0,1.658,0c0-1.062,0-0.644,0-1.687C18.85,12.608,18.332,12.608,17.771,12.608z M10.113,12.618
			c0,1.069,0,0.651,0,1.677c0.572,0,1.088,0,1.643,0c0-1.053,0-0.635,0-1.677C11.201,12.618,10.685,12.618,10.113,12.618z
			 M15.566,14.303c0-1.078,0-0.66,0-1.685c-0.573,0-1.09,0-1.616,0c0,1.062,0,0.651,0,1.685
			C14.503,14.303,15.002,14.303,15.566,14.303z"/>
		<path fill-rule="evenodd" clip-rule="evenodd" fill="#FFFFFF" d="M2.89,9.647c0.244-0.172,0.461-0.398,0.734-0.525
			c3.176-1.479,6.389-2.885,9.527-4.45c1.16-0.577,2.079-0.558,3.231,0.009c3.121,1.546,6.307,2.952,9.463,4.423
			c0.271,0.136,0.518,0.335,0.717,0.663c-1.488,0-2.922,0.463-4.336-0.182c-2.332-1.071-4.682-2.123-7.043-3.158
			c-0.245-0.107-0.635-0.091-0.889,0.023c-2.105,0.92-4.209,1.846-6.277,2.826c-0.963,0.453-1.916,0.735-2.986,0.644
			C4.378,9.866,3.724,9.911,3.072,9.911C3.007,9.829,2.953,9.739,2.89,9.647z"/>
		<path fill-rule="evenodd" clip-rule="evenodd" fill="#FFFFFF" d="M19.441,9.883c-3.195,0-6.153,0-9.122,0
			c-0.008-0.036-0.016-0.062-0.027-0.1c1.416-0.635,2.814-1.279,4.229-1.896c0.146-0.063,0.355-0.054,0.5,0
			C16.428,8.513,17.834,9.158,19.441,9.883z"/>
		<path fill-rule="evenodd" clip-rule="evenodd" fill="#B3B3B3" d="M16.074,18.76c-0.926,0-1.708,0-2.577,0c0,1.426,0,2.543,0,4.014
			c-0.5,0-0.918,0-1.379,0c0-1.879,0-3.451,0-5.373c1.768,0,3.518,0,5.307,0c0,1.887,0,3.439,0,5.363c-0.418,0-0.834,0-1.352,0
			C16.074,21.365,16.074,20.25,16.074,18.76z"/>
		<path fill-rule="evenodd" clip-rule="evenodd" fill="#B3B3B3" d="M21.346,15.121c0,0.436,0,0.836,0,1.289
			c-4.373,0-8.739,0-13.157,0c0-0.408,0-0.816,0-1.289C12.535,15.121,16.898,15.121,21.346,15.121z"/>
		<path fill-rule="evenodd" clip-rule="evenodd" fill="#B3B3B3" d="M10.013,20.529c-0.617,0-1.189,0-1.816,0
			c0-1.043,0-2.059,0-3.111c0.6,0,1.172,0,1.816,0C10.013,18.426,10.013,19.441,10.013,20.529z"/>
		<path fill-rule="evenodd" clip-rule="evenodd" fill="#B3B3B3" d="M19.484,20.521c0-1.043,0-2.041,0-3.094c0.609,0,1.189,0,1.824,0
			c0,1.033,0,2.051,0,3.094C20.711,20.521,20.139,20.521,19.484,20.521z"/>
		<path fill-rule="evenodd" clip-rule="evenodd" fill="#B3B3B3" d="M17.771,12.608c0.561,0,1.078,0,1.658,0c0,1.043,0,0.625,0,1.687
			c-0.553,0-1.07,0-1.658,0C17.771,13.288,17.771,13.706,17.771,12.608z"/>
		<path fill-rule="evenodd" clip-rule="evenodd" fill="#B3B3B3" d="M10.113,12.618c0.572,0,1.088,0,1.643,0c0,1.042,0,0.624,0,1.677
			c-0.555,0-1.07,0-1.643,0C10.113,13.269,10.113,13.687,10.113,12.618z"/>
		<path fill-rule="evenodd" clip-rule="evenodd" fill="#B3B3B3" d="M15.566,14.303c-0.564,0-1.063,0-1.616,0
			c0-1.034,0-0.624,0-1.685c0.525,0,1.043,0,1.616,0C15.566,13.643,15.566,13.225,15.566,14.303z"/>
	</g>
</g>
</svg>
