<?xml version="1.0" encoding="utf-8"?>
<!-- Generator: Adobe Illustrator 16.0.0, SVG Export Plug-In . SVG Version: 6.00 Build 0)  -->
<!DOCTYPE svg PUBLIC "-//W3C//DTD SVG 1.1//EN" "http://www.w3.org/Graphics/SVG/1.1/DTD/svg11.dtd">
<svg version="1.1" id="Layer_1" xmlns="http://www.w3.org/2000/svg" xmlns:xlink="http://www.w3.org/1999/xlink" x="0px" y="0px"
	 width="30px" height="28px" viewBox="0 0 30 28" enable-background="new 0 0 30 28" xml:space="preserve">
<g>
	<rect fill="#FFFFFF" width="30" height="28"/>
	<g opacity="0.35">
		<path fill="#FFFFFF" d="M2.894,23.188c0,0.594,0,1.052,0,1.505c7.896,0,15.727,0,23.598,0c0-0.496,0-0.953,0-1.524
			c-0.646,0-1.254,0-1.859,0c0-3.275,0-5.393,0-8.634c0.643,0,1.237,0,1.855,0c0-0.533,0-0.995,0-1.478c-7.887,0-15.736,0-23.604,0
			c0,0.511,0,0.969,0,1.512c0.671,0,1.289,0,1.936,0c0,3.257,0,5.371,0,8.619C4.167,23.188,3.549,23.188,2.894,23.188z"/>
		<path fill="#FFFFFF" d="M14.655,12.049c0,0,0,0,0-0.006c4.055,0,8.108-0.004,12.163,0.006c0.751,0,1.576,0.047,1.851-0.832
			c0.278-0.878-0.439-1.312-1.053-1.736c-3.535-2.424-7.066-4.852-10.601-7.278c-1.572-1.086-3.026-1.095-4.598-0.017
			C9.94,3.875,7.466,5.564,5.003,7.266C3.686,8.179,2.36,9.084,1.094,10.062c-0.255,0.198-0.434,0.769-0.338,1.071
			c0.111,0.349,0.542,0.627,0.882,0.868c0.147,0.104,0.41,0.048,0.618,0.048C6.39,12.049,10.521,12.049,14.655,12.049z"/>
		<path fill="#FFFFFF" d="M28.068,25.278c-8.957,0-17.84,0-26.727,0c0,0.509,0,0.967,0,1.43c8.938,0,17.821,0,26.727,0
			C28.068,26.216,28.068,25.773,28.068,25.278z"/>
		<path fill-rule="evenodd" clip-rule="evenodd" fill="#333333" d="M2.894,23.188c0.655,0,1.273,0,1.925,0c0-3.248,0-5.362,0-8.619
			c-0.646,0-1.265,0-1.936,0c0-0.543,0-1.001,0-1.512c7.868,0,15.718,0,23.604,0c0,0.482,0,0.944,0,1.478c-0.618,0-1.213,0-1.855,0
			c0,3.241,0,5.358,0,8.634c0.605,0,1.213,0,1.859,0c0,0.571,0,1.028,0,1.524c-7.871,0-15.702,0-23.598,0
			C2.894,24.24,2.894,23.782,2.894,23.188z M16.764,14.587c0,3.256,0,5.372,0,8.544c1.261,0,2.475,0,3.691,0
			c0-3.229,0-5.344,0-8.544C19.214,14.587,18.015,14.587,16.764,14.587z M12.593,23.16c0-3.264,0-5.376,0-8.549
			c-1.247,0-2.44,0-3.626,0c0,3.232,0,5.349,0,8.549C10.195,23.16,11.371,23.16,12.593,23.16z M22.032,14.611
			c0,3.232,0,5.349,0,8.529c0.354,0,0.657,0,0.968,0c0-3.218,0-5.335,0-8.529C22.674,14.611,22.391,14.611,22.032,14.611z
			 M15.184,23.154c0-3.223,0-5.349,0-8.521c-0.364,0-0.66,0-0.969,0c0,3.221,0,5.326,0,8.521
			C14.566,23.154,14.867,23.154,15.184,23.154z M7.334,23.168c0-3.246,0-5.371,0-8.596c-0.363,0.015-0.666,0.033-0.973,0.043
			c0,3.252,0,5.362,0,8.553C6.697,23.168,6.985,23.168,7.334,23.168z"/>
		<path fill-rule="evenodd" clip-rule="evenodd" fill="#B3B3B3" d="M14.655,12.049c-4.134,0-8.265,0-12.398,0
			c-0.208,0-0.471,0.057-0.618-0.048c-0.34-0.241-0.771-0.52-0.882-0.868c-0.096-0.303,0.083-0.873,0.338-1.071
			C2.36,9.084,3.686,8.179,5.003,7.266c2.463-1.702,4.937-3.392,7.414-5.08c1.571-1.078,3.025-1.069,4.598,0.017
			c3.534,2.427,7.065,4.854,10.601,7.278c0.613,0.425,1.331,0.858,1.053,1.736c-0.274,0.879-1.1,0.832-1.851,0.832
			c-4.055-0.01-8.108-0.006-12.163-0.006C14.655,12.049,14.655,12.049,14.655,12.049z M26.417,10.566
			c-0.209-0.179-0.27-0.245-0.346-0.302c-3.397-2.332-6.787-4.682-10.194-7.004c-0.792-0.538-1.634-0.5-2.436,0.048
			c-1.123,0.774-2.255,1.542-3.38,2.317c-2.308,1.584-4.61,3.172-6.918,4.753c0.962,0.188,1.896,0.244,2.821,0.159
			c0.566-0.046,1.185-0.217,1.657-0.519c2.171-1.426,4.314-2.905,6.437-4.408c0.497-0.344,0.808-0.321,1.295,0.019
			c2.213,1.559,4.454,3.068,6.697,4.588c0.213,0.146,0.453,0.33,0.688,0.34C23.911,10.586,25.077,10.566,26.417,10.566z
			 M19.644,10.552c-0.024-0.061-0.024-0.133-0.057-0.156c-1.534-1.056-3.064-2.124-4.615-3.151c-0.152-0.101-0.502-0.038-0.68,0.075
			c-0.732,0.462-1.436,0.973-2.148,1.462c-0.807,0.549-1.609,1.104-2.582,1.771C13.079,10.552,16.359,10.552,19.644,10.552z"/>
		<path fill-rule="evenodd" clip-rule="evenodd" fill="#B3B3B3" d="M28.068,25.278c0,0.495,0,0.938,0,1.43
			c-8.905,0-17.788,0-26.727,0c0-0.463,0-0.921,0-1.43C10.228,25.278,19.111,25.278,28.068,25.278z"/>
		<path fill-rule="evenodd" clip-rule="evenodd" fill="#FFFFFF" d="M16.764,14.587c1.251,0,2.45,0,3.691,0c0,3.2,0,5.315,0,8.544
			c-1.217,0-2.431,0-3.691,0C16.764,19.959,16.764,17.843,16.764,14.587z"/>
		<path fill-rule="evenodd" clip-rule="evenodd" fill="#FFFFFF" d="M12.593,23.16c-1.223,0-2.398,0-3.626,0c0-3.2,0-5.316,0-8.549
			c1.186,0,2.379,0,3.626,0C12.593,17.784,12.593,19.896,12.593,23.16z"/>
		<path fill-rule="evenodd" clip-rule="evenodd" fill="#FFFFFF" d="M22.032,14.611c0.359,0,0.643,0,0.968,0c0,3.194,0,5.312,0,8.529
			c-0.311,0-0.613,0-0.968,0C22.032,19.959,22.032,17.843,22.032,14.611z"/>
		<path fill-rule="evenodd" clip-rule="evenodd" fill="#FFFFFF" d="M15.184,23.154c-0.317,0-0.618,0-0.969,0c0-3.194,0-5.3,0-8.521
			c0.309,0,0.604,0,0.969,0C15.184,17.805,15.184,19.931,15.184,23.154z"/>
		<path fill-rule="evenodd" clip-rule="evenodd" fill="#FFFFFF" d="M7.334,23.168c-0.35,0-0.638,0-0.973,0c0-3.19,0-5.301,0-8.553
			c0.307-0.01,0.609-0.028,0.973-0.043C7.334,17.797,7.334,19.922,7.334,23.168z"/>
		<path fill-rule="evenodd" clip-rule="evenodd" fill="#FFFFFF" d="M26.417,10.566c-1.341,0-2.507,0.021-3.678-0.009
			c-0.235-0.01-0.476-0.193-0.688-0.34c-2.243-1.52-4.484-3.029-6.697-4.588c-0.487-0.34-0.798-0.362-1.295-0.019
			c-2.122,1.503-4.266,2.982-6.437,4.408c-0.473,0.302-1.091,0.473-1.657,0.519c-0.925,0.085-1.859,0.029-2.821-0.159
			c2.308-1.581,4.61-3.169,6.918-4.753c1.125-0.775,2.257-1.543,3.38-2.317c0.802-0.548,1.644-0.586,2.436-0.048
			c3.407,2.322,6.797,4.672,10.194,7.004C26.148,10.321,26.208,10.387,26.417,10.566z"/>
		<path fill-rule="evenodd" clip-rule="evenodd" fill="#FFFFFF" d="M19.644,10.552c-3.285,0-6.565,0-10.082,0
			c0.973-0.666,1.775-1.222,2.582-1.771c0.713-0.489,1.416-1,2.148-1.462c0.178-0.113,0.527-0.176,0.68-0.075
			c1.551,1.027,3.081,2.096,4.615,3.151C19.62,10.419,19.62,10.492,19.644,10.552z"/>
	</g>
</g>
</svg>
