<?xml version="1.0" encoding="utf-8"?>
<!-- Generator: Adobe Illustrator 16.0.0, SVG Export Plug-In . SVG Version: 6.00 Build 0)  -->
<!DOCTYPE svg PUBLIC "-//W3C//DTD SVG 1.1//EN" "http://www.w3.org/Graphics/SVG/1.1/DTD/svg11.dtd">
<svg version="1.1" id="Layer_1" xmlns="http://www.w3.org/2000/svg" xmlns:xlink="http://www.w3.org/1999/xlink" x="0px" y="0px"
	 width="30px" height="28px" viewBox="0 0 30 28" enable-background="new 0 0 30 28" xml:space="preserve">
<g>
	<rect fill="#FFFFFF" width="30" height="28"/>
	<g opacity="0.35">
		<path fill-rule="evenodd" clip-rule="evenodd" fill="#333333" d="M9.277,5.78c0.598,0.795,1.129,1.504,1.722,2.288
			c1.036-1.763,2.056-3.475,3.046-5.205c0.087-0.144-0.067-0.422-0.01-0.619c0.118-0.433,0.19-0.958,0.484-1.236
			c0.186-0.186,0.881-0.165,1.066,0.032c0.273,0.297,0.31,0.822,0.412,1.256c0.042,0.177-0.099,0.413-0.021,0.547
			c0.999,1.741,2.024,3.463,3.077,5.246c0.597-0.783,1.148-1.495,1.726-2.247c-0.274-0.474-0.534-1.093,0.134-1.494
			c0.294-0.175,0.944-0.113,1.212,0.104c0.54,0.451,0.37,1.019-0.128,1.451c0.74,0.999,1.446,2.011,2.226,2.97
			c0.236,0.287,0.648,0.504,1.02,0.597c0.828,0.196,1.331,0.649,1.349,1.526c0.037,1.35,0.043,2.698,0,4.051
			c-0.029,1.072-0.684,1.659-1.785,1.67c-6.551,0-13.096-0.011-19.646-0.022c-1.164-0.008-1.67-0.525-1.675-1.689
			c-0.006-1.288-0.016-2.587,0-3.875c0.011-1.072,0.422-1.494,1.448-1.67c0.319-0.052,0.686-0.257,0.886-0.505
			c0.773-0.958,1.483-1.969,2.236-2.979C7.633,5.511,7.339,4.923,7.932,4.452c0.263-0.208,0.892-0.259,1.197-0.085
			C9.757,4.717,9.611,5.316,9.277,5.78z M24.846,11.252c-6.627,0-13.188,0-19.727,0c0,1.34,0,2.607,0,3.865
			c6.607,0,13.151,0,19.727,0C24.846,13.818,24.846,12.562,24.846,11.252z M18.084,9.716c-1.039-1.782-2.023-3.462-3.064-5.234
			c-1.057,1.802-2.037,3.473-3.062,5.234C14.015,9.716,15.952,9.716,18.084,9.716z M21.348,7.791
			c-0.485,0.669-0.916,1.257-1.377,1.896c1,0,1.829,0,2.768,0C22.245,9.017,21.827,8.438,21.348,7.791z M7.37,9.698
			c0.96,0,1.793,0,2.728,0C9.624,9.036,9.215,8.459,8.747,7.799C8.268,8.459,7.841,9.047,7.37,9.698z"/>
		<path fill-rule="evenodd" clip-rule="evenodd" fill="#B3B3B3" d="M12.07,25.24c0-1.516-0.004-2.154,0-3.617
			c0.012-1.682,1.119-2.681,2.98-2.681c1.802,0,2.905,0.99,2.926,2.649c0.01,1.464,0,2.112,0,3.648c2.015,0,3.975,0,6.021,0
			c0-2.753,0-4.658,0-7.432c0.546,0,1.014,0,1.552,0c0,2.731,0,4.627,0,7.473c1.105,0,2.152,0,3.229,0c0,0.587,0,1.062,0,1.599
			c-9.172,0-18.324,0-27.555,0c0-0.474,0-0.969,0-1.547c0.993,0,2.015,0,3.147,0c0-2.814,0-4.742,0-7.524c0.614,0,1.109,0,1.682,0
			c0,2.742,0,4.638,0,7.432C8.051,25.24,9.988,25.24,12.07,25.24z M16.357,25.281c0-1.587,0.031-2.288-0.009-3.794
			c-0.025-0.731-0.649-0.885-1.242-0.927c-0.597-0.041-1.324,0.104-1.371,0.752c-0.108,1.578-0.036,2.36-0.036,3.969
			C14.617,25.281,15.41,25.281,16.357,25.281z"/>
		<path fill-rule="evenodd" clip-rule="evenodd" fill="#B3B3B3" d="M22.44,12.127c0,0.65,0,1.269,0,1.95c-0.671,0-1.31,0-1.996,0
			c0-0.64,0-1.259,0-1.95C21.063,12.127,21.707,12.127,22.44,12.127z"/>
		<path fill-rule="evenodd" clip-rule="evenodd" fill="#B3B3B3" d="M7.702,12.088c0.662,0,1.281,0,1.952,0c0,0.669,0,1.308,0,1.999
			c-0.65,0-1.268,0-1.952,0C7.702,13.458,7.702,12.809,7.702,12.088z"/>
		<path fill-rule="evenodd" clip-rule="evenodd" fill="#B3B3B3" d="M16.209,14.108c-0.685,0-1.282,0-1.953,0
			c0-0.649,0-1.289,0-1.988c0.619,0,1.258,0,1.953,0C16.209,12.757,16.209,13.396,16.209,14.108z"/>
	</g>
</g>
</svg>
