<?xml version="1.0" encoding="utf-8"?>
<!-- Generator: Adobe Illustrator 16.0.0, SVG Export Plug-In . SVG Version: 6.00 Build 0)  -->
<!DOCTYPE svg PUBLIC "-//W3C//DTD SVG 1.1//EN" "http://www.w3.org/Graphics/SVG/1.1/DTD/svg11.dtd">
<svg version="1.1" id="Layer_1" xmlns="http://www.w3.org/2000/svg" xmlns:xlink="http://www.w3.org/1999/xlink" x="0px" y="0px"
	 width="30px" height="28px" viewBox="0 0 30 28" enable-background="new 0 0 30 28" xml:space="preserve">
<g>
	<rect fill="#FFFFFF" width="30" height="28"/>
	<g opacity="0.35">
		<path fill="#FFFFFF" d="M25.741,24.607c0-2.598,0.02-5.076-0.01-7.563c-0.012-0.522,0.16-0.772,0.65-0.973
			c1.799-0.714,2.852-3.251,2.107-4.968c-1.084-2.508-1.957-5.106-2.93-7.665c-0.502-1.312-1.305-1.876-2.658-1.876
			c-5.447-0.01-10.906-0.01-16.363,0c-1.365,0-2.158,0.563-2.65,1.865C2.926,5.958,1.963,8.485,1.01,11.024
			c-0.863,2.299,0.342,4.635,2.68,5.268c0,2.758,0,5.509,0,8.316c-0.836,0-1.607,0-2.391,0c0,0.582,0,1.094,0,1.596
			c8.959,0,17.869,0,26.779,0c0-0.551,0-1.043,0-1.596C27.315,24.607,26.602,24.607,25.741,24.607z"/>
		<path fill-rule="evenodd" clip-rule="evenodd" fill="#333333" d="M25.741,24.607c0.861,0,1.574,0,2.338,0c0,0.553,0,1.045,0,1.596
			c-8.91,0-17.82,0-26.779,0c0-0.502,0-1.014,0-1.596c0.783,0,1.555,0,2.391,0c0-2.807,0-5.558,0-8.316
			c-2.338-0.633-3.543-2.969-2.68-5.268c0.953-2.539,1.916-5.066,2.877-7.596c0.492-1.302,1.285-1.865,2.65-1.865
			c5.457-0.01,10.916-0.01,16.363,0c1.354,0,2.156,0.563,2.658,1.876c0.973,2.559,1.846,5.157,2.93,7.665
			c0.744,1.717-0.309,4.254-2.107,4.968c-0.49,0.2-0.662,0.45-0.65,0.973C25.76,19.532,25.741,22.01,25.741,24.607z M21.167,15.017
			c-0.703,0.914-1.818,1.466-3.141,1.475c-1.346,0.021-2.439-0.612-3.311-1.646c-0.904,1.074-1.998,1.646-3.322,1.646
			c-1.354,0-2.438-0.644-3.24-1.544c-0.562,0.4-1.014,0.983-1.545,1.074c-1.465,0.218-1.406,1.172-1.334,2.225
			c0.029,0.423,0.01,0.845,0.01,1.266c0,1.664,0,3.33,0,5.005c1.824,0,3.57,0,5.408,0c0-2.076,0-4.102,0-6.08
			c2.758,0,5.428,0,8.166,0c0,2.066,0,4.064,0,6.08c1.785,0,3.502,0,5.256,0c0-2.568,0.012-5.085-0.02-7.605
			c0-0.18-0.24-0.43-0.43-0.541C22.881,15.92,22.079,15.508,21.167,15.017z M8.987,3.119c-0.865,0-1.615,0.011-2.369,0
			C5.977,3.108,5.584,3.398,5.364,4.012C4.922,5.245,4.44,6.459,3.979,7.682c-0.422,1.104-0.824,2.209-1.246,3.342
			c1.688,0,3.264,0,4.869,0C8.061,8.395,8.512,5.828,8.987,3.119z M26.723,11.075c-0.963-2.529-1.846-4.926-2.799-7.294
			c-0.109-0.292-0.561-0.592-0.883-0.622c-0.822-0.09-1.656-0.029-2.447-0.029c-0.041,0.109-0.061,0.141-0.061,0.159
			c0.41,2.468,0.812,4.937,1.252,7.404c0.021,0.151,0.334,0.361,0.514,0.371C23.713,11.094,25.139,11.075,26.723,11.075z
			 M15.569,3.159c0,2.658,0,5.257,0,7.856c1.574,0,3.088,0,4.643,0c-0.471-2.659-0.934-5.249-1.393-7.856
			C17.713,3.159,16.68,3.159,15.569,3.159z M13.862,11.055c0-2.679,0-5.289,0-7.907c-1.094,0-2.127,0-3.26,0
			c-0.453,2.618-0.904,5.238-1.365,7.907C10.842,11.055,12.317,11.055,13.862,11.055z M17.143,24.348c0-1.494,0-2.908,0-4.305
			c-1.666,0-3.271,0-4.865,0c0,1.477,0,2.881,0,4.305C13.922,24.348,15.508,24.348,17.143,24.348z M20.463,12.75
			c-1.656,0-3.271,0-4.908,0c0.404,1.466,1.266,2.146,2.57,2.115C19.319,14.836,20.143,14.095,20.463,12.75z M2.393,12.669
			c0.172,1.375,1.094,2.188,2.398,2.188c1.314,0.008,2.248-0.823,2.418-2.158c-0.221-0.009-0.441-0.03-0.66-0.03
			C5.184,12.669,3.817,12.669,2.393,12.669z M22.239,12.7c0.15,1.314,1.094,2.146,2.377,2.158c1.307,0.018,2.279-0.835,2.43-2.158
			C25.459,12.7,23.875,12.7,22.239,12.7z M9.006,12.709c0.18,1.426,1.232,2.257,2.678,2.137c1.164-0.091,2.117-1.064,2.066-2.137
			C12.176,12.709,10.59,12.709,9.006,12.709z"/>
		<path fill-rule="evenodd" clip-rule="evenodd" fill="#FFFFFF" d="M21.167,15.017c0.912,0.491,1.715,0.903,2.498,1.354
			c0.189,0.111,0.43,0.361,0.43,0.541c0.031,2.52,0.02,5.037,0.02,7.605c-1.754,0-3.471,0-5.256,0c0-2.016,0-4.014,0-6.08
			c-2.738,0-5.408,0-8.166,0c0,1.978,0,4.003,0,6.08c-1.838,0-3.584,0-5.408,0c0-1.676,0-3.342,0-5.005
			c0-0.421,0.02-0.843-0.01-1.266c-0.072-1.053-0.131-2.007,1.334-2.225c0.531-0.091,0.982-0.674,1.545-1.074
			c0.803,0.9,1.887,1.544,3.24,1.544c1.324,0,2.418-0.571,3.322-1.646c0.871,1.033,1.965,1.666,3.311,1.646
			C19.348,16.483,20.463,15.931,21.167,15.017z"/>
		<path fill-rule="evenodd" clip-rule="evenodd" fill="#FFFFFF" d="M8.987,3.119c-0.475,2.709-0.926,5.276-1.385,7.905
			c-1.605,0-3.182,0-4.869,0c0.422-1.133,0.824-2.238,1.246-3.342c0.461-1.223,0.943-2.438,1.385-3.67
			c0.221-0.614,0.613-0.904,1.254-0.894C7.372,3.129,8.122,3.119,8.987,3.119z"/>
		<path fill-rule="evenodd" clip-rule="evenodd" fill="#FFFFFF" d="M26.723,11.075c-1.584,0-3.01,0.02-4.424-0.011
			c-0.18-0.01-0.492-0.22-0.514-0.371c-0.439-2.468-0.842-4.937-1.252-7.404c0-0.019,0.02-0.05,0.061-0.159
			c0.791,0,1.625-0.061,2.447,0.029c0.322,0.03,0.773,0.33,0.883,0.622C24.877,6.149,25.76,8.545,26.723,11.075z"/>
		<path fill-rule="evenodd" clip-rule="evenodd" fill="#FFFFFF" d="M15.569,3.159c1.111,0,2.145,0,3.25,0
			c0.459,2.607,0.922,5.197,1.393,7.856c-1.555,0-3.068,0-4.643,0C15.569,8.416,15.569,5.817,15.569,3.159z"/>
		<path fill-rule="evenodd" clip-rule="evenodd" fill="#FFFFFF" d="M13.862,11.055c-1.545,0-3.02,0-4.625,0
			c0.461-2.669,0.912-5.289,1.365-7.907c1.133,0,2.166,0,3.26,0C13.862,5.766,13.862,8.376,13.862,11.055z"/>
		<path fill-rule="evenodd" clip-rule="evenodd" fill="#FFFFFF" d="M17.143,24.348c-1.635,0-3.221,0-4.865,0
			c0-1.424,0-2.828,0-4.305c1.594,0,3.199,0,4.865,0C17.143,21.439,17.143,22.854,17.143,24.348z"/>
		<path fill-rule="evenodd" clip-rule="evenodd" fill="#FFFFFF" d="M20.463,12.75c-0.32,1.345-1.145,2.086-2.338,2.115
			c-1.305,0.03-2.166-0.649-2.57-2.115C17.192,12.75,18.807,12.75,20.463,12.75z"/>
		<path fill-rule="evenodd" clip-rule="evenodd" fill="#FFFFFF" d="M2.393,12.669c1.424,0,2.791,0,4.156,0
			c0.219,0,0.439,0.021,0.66,0.03c-0.17,1.335-1.104,2.166-2.418,2.158C3.487,14.858,2.565,14.044,2.393,12.669z"/>
		<path fill-rule="evenodd" clip-rule="evenodd" fill="#FFFFFF" d="M22.239,12.7c1.637,0,3.221,0,4.807,0
			c-0.15,1.323-1.123,2.176-2.43,2.158C23.333,14.846,22.389,14.014,22.239,12.7z"/>
		<path fill-rule="evenodd" clip-rule="evenodd" fill="#FFFFFF" d="M9.006,12.709c1.584,0,3.17,0,4.744,0
			c0.051,1.072-0.902,2.046-2.066,2.137C10.239,14.966,9.186,14.135,9.006,12.709z"/>
	</g>
</g>
</svg>
