<?xml version="1.0" encoding="utf-8"?>
<!-- Generator: Adobe Illustrator 16.0.0, SVG Export Plug-In . SVG Version: 6.00 Build 0)  -->
<!DOCTYPE svg PUBLIC "-//W3C//DTD SVG 1.1//EN" "http://www.w3.org/Graphics/SVG/1.1/DTD/svg11.dtd">
<svg version="1.1" id="Layer_1" xmlns="http://www.w3.org/2000/svg" xmlns:xlink="http://www.w3.org/1999/xlink" x="0px" y="0px"
	 width="30px" height="28px" viewBox="0 0 30 28" enable-background="new 0 0 30 28" xml:space="preserve">
<g>
	<rect fill="#FFFFFF" width="30" height="28"/>
	<g opacity="0.35">
		<path fill="#FFFFFF" d="M20.43,18.962c0-1.114,0-1.486,0-2.504c-0.008-1.427-0.988-2.386-2.394-2.367
			c-1.379,0.02-2.338,0.98-2.338,2.357c-0.011,1.048,0,1.438,0,2.505c-0.67,0-1.222,0-1.883,0c0-1.058,0.03-1.419-0.02-2.437
			c-0.019-0.467-0.125-0.98-0.358-1.377c-0.533-0.912-1.649-1.252-2.696-0.932c-1.106,0.328-1.688,1.096-1.696,2.269
			c0,1.039,0,1.429,0,2.447c-0.68,0-1.233,0-1.873,0c0-1.852,0-2.999,0-4.784c-0.563,0-1.033,0-1.574,0c0,1.862,0,3,0,4.813
			c-0.204,0.009-0.341,0.029-0.478,0.029c-1.444,0.038-1.804,0.407-1.804,1.853c-0.009,1.513-0.009,2.258,0,3.772
			c0,0.446,0,0.233,0,0.75c-0.582,0-1.027,0-1.522,0c0,0.532,0,1.009,0,1.521c8.656,0,17.269,0,25.872,0c0-0.552,0-1.048,0-1.601
			c-0.485,0-0.911,0-1.436,0c0-1.746,0-2.019,0-3.717c0-2.328,0-2.328-2.24-2.628c-0.028,0-0.049-0.03-0.145-0.097
			c0-1.746,0-2.882,0-4.717c-0.525,0-0.972,0-1.515,0c0,1.844,0,3.01,0,4.842C21.672,18.962,21.11,18.962,20.43,18.962z"/>
		<path fill="#FFFFFF" d="M23.475,11.514c0.1-3.404-2.036-5.33-5.255-6.736c-0.795-0.349-1.862-0.407-2.376-0.979
			C15.31,3.208,15.31,2.14,15.048,1.296c-0.059-0.165-0.252-0.281-0.379-0.417c-0.116,0.124-0.291,0.233-0.339,0.388
			c-0.203,0.661-0.426,1.339-0.562,2.019c-0.126,0.61-0.407,0.871-1.038,0.999c-3.918,0.785-7.007,3.33-6.853,7.209
			c0.502,0,0.994,0,1.489,0c0.203-4.354,3.491-5.755,7.069-5.91c3.969-0.175,6.781,1.178,7.644,5.931
			C22.516,11.514,22.972,11.514,23.475,11.514z"/>
		<path fill="#FFFFFF" d="M23.825,12.189c-6.079,0-12.112,0-18.159,0c0,0.553,0,0.728,0,1.262c6.075,0,12.108,0,18.159,0
			C23.825,12.898,23.825,12.722,23.825,12.189z"/>
		<path fill-rule="evenodd" clip-rule="evenodd" fill="#333333" d="M20.43,18.962c0.68,0,1.242,0,1.901,0c0-1.832,0-2.998,0-4.842
			c0.543,0,0.989,0,1.515,0c0,1.835,0,2.971,0,4.717c0.096,0.066,0.116,0.097,0.145,0.097c2.24,0.3,2.24,0.3,2.24,2.628
			c0,1.698,0,1.971,0,3.717c0.524,0,0.95,0,1.436,0c0,0.553,0,1.049,0,1.601c-8.604,0-17.216,0-25.872,0c0-0.513,0-0.989,0-1.521
			c0.495,0,0.94,0,1.522,0c0-0.517,0-0.304,0-0.75c-0.009-1.515-0.009-2.26,0-3.772c0-1.445,0.359-1.814,1.804-1.853
			c0.137,0,0.273-0.021,0.478-0.029c0-1.813,0-2.951,0-4.813c0.541,0,1.011,0,1.574,0c0,1.785,0,2.933,0,4.784
			c0.64,0,1.193,0,1.873,0c0-1.019,0-1.408,0-2.447c0.008-1.173,0.59-1.94,1.696-2.269c1.047-0.32,2.163,0.02,2.696,0.932
			c0.233,0.396,0.34,0.91,0.358,1.377c0.05,1.018,0.02,1.379,0.02,2.437c0.661,0,1.213,0,1.883,0c0-1.067-0.011-1.457,0-2.505
			c0-1.377,0.959-2.338,2.338-2.357c1.405-0.019,2.386,0.94,2.394,2.367C20.43,17.476,20.43,17.848,20.43,18.962z M24.602,20.613
			c-6.635,0-13.181,0-19.743,0c0,2.104,0,2.727,0,4.812c6.592,0,13.148,0,19.743,0C24.602,23.33,24.602,22.707,24.602,20.613z
			 M18.929,18.915c0-1.096,0.046-1.485-0.041-2.515c-0.018-0.271-0.446-0.631-0.756-0.707c-0.437-0.127-0.893,0.076-0.911,0.64
			c-0.029,1.067,0,1.478,0,2.582C17.793,18.915,18.288,18.915,18.929,18.915z M12.284,18.924c0-1.135,0.05-1.554-0.037-2.611
			c-0.012-0.232-0.486-0.61-0.738-0.603c-0.311,0.012-0.825,0.351-0.845,0.573c-0.097,1.087-0.048,1.526-0.048,2.641
			C11.198,18.924,11.683,18.924,12.284,18.924z"/>
		<path fill-rule="evenodd" clip-rule="evenodd" fill="#B3B3B3" d="M23.475,11.514c-0.503,0-0.959,0-1.396,0
			c0-3.323-3.675-6.105-7.644-5.931c-3.578,0.155-7.069,2.283-7.069,5.91c-0.495,0-0.987,0-1.489,0
			C5.723,7.615,8.812,5.07,12.73,4.285c0.631-0.128,0.912-0.389,1.038-0.999c0.137-0.68,0.359-1.357,0.562-2.019
			c0.048-0.154,0.066-0.388,0.339-0.388s0.32,0.252,0.379,0.417c0.262,0.844,0.262,1.911,0.796,2.502
			c0.514,0.572,1.581,0.631,2.376,0.979C21.439,6.184,23.575,8.11,23.475,11.514z"/>
		<path fill-rule="evenodd" clip-rule="evenodd" fill="#B3B3B3" d="M23.825,12.189c0,0.533,0,0.709,0,1.262
			c-6.051,0-12.084,0-18.159,0c0-0.534,0-0.709,0-1.262C11.712,12.189,17.746,12.189,23.825,12.189z"/>
		<path fill-rule="evenodd" clip-rule="evenodd" fill="#FFFFFF" d="M24.602,20.613c0,2.094,0,2.717,0,4.812
			c-6.595,0-13.151,0-19.743,0c0-2.086,0-2.709,0-4.812C11.421,20.613,17.967,20.613,24.602,20.613z M21.702,24.472
			c0-0.709,0.01-1.33,0-1.949c-0.009-0.582-0.408-0.884-0.892-0.777c-0.34,0.068-0.786,0.428-0.854,0.727
			c-0.126,0.641-0.04,1.32-0.04,2C20.558,24.472,21.082,24.472,21.702,24.472z M13.555,24.492c0-0.719-0.011-1.35,0.009-1.99
			c0-0.513-0.252-0.736-0.735-0.775c-0.523-0.038-0.952,0.146-1,0.689c-0.068,0.689-0.02,1.377-0.02,2.076
			C12.439,24.492,12.954,24.492,13.555,24.492z M9.53,24.492c0-0.689-0.011-1.3,0-1.911c0.018-0.533-0.203-0.806-0.737-0.854
			s-0.961,0.165-1.019,0.689c-0.078,0.678-0.02,1.377-0.02,2.076C8.375,24.492,8.89,24.492,9.53,24.492z M17.629,24.472
			c0-0.709,0.096-1.349-0.04-1.93c-0.067-0.32-0.505-0.748-0.796-0.768s-0.823,0.359-0.882,0.65
			c-0.136,0.65-0.049,1.357-0.049,2.047C16.502,24.472,17.027,24.472,17.629,24.472z"/>
		<path fill-rule="evenodd" clip-rule="evenodd" fill="#FFFFFF" d="M18.929,18.915c-0.642,0-1.136,0-1.708,0
			c0-1.104-0.029-1.515,0-2.582c0.019-0.563,0.475-0.767,0.911-0.64c0.31,0.076,0.738,0.436,0.756,0.707
			C18.975,17.429,18.929,17.819,18.929,18.915z"/>
		<path fill-rule="evenodd" clip-rule="evenodd" fill="#FFFFFF" d="M12.284,18.924c-0.601,0-1.086,0-1.668,0
			c0-1.114-0.049-1.554,0.048-2.641c0.02-0.223,0.534-0.562,0.845-0.573c0.252-0.008,0.727,0.37,0.738,0.603
			C12.333,17.371,12.284,17.79,12.284,18.924z"/>
		<path fill-rule="evenodd" clip-rule="evenodd" fill="#B3B3B3" d="M21.702,24.472c-0.62,0-1.144,0-1.785,0
			c0-0.68-0.086-1.359,0.04-2c0.067-0.299,0.514-0.658,0.854-0.727c0.483-0.106,0.883,0.195,0.892,0.777
			C21.711,23.142,21.702,23.763,21.702,24.472z"/>
		<path fill-rule="evenodd" clip-rule="evenodd" fill="#B3B3B3" d="M13.555,24.492c-0.602,0-1.116,0-1.746,0
			c0-0.699-0.049-1.387,0.02-2.076c0.048-0.543,0.477-0.728,1-0.689c0.483,0.039,0.735,0.263,0.735,0.775
			C13.544,23.142,13.555,23.773,13.555,24.492z"/>
		<path fill-rule="evenodd" clip-rule="evenodd" fill="#B3B3B3" d="M9.53,24.492c-0.64,0-1.154,0-1.775,0
			c0-0.699-0.059-1.398,0.02-2.076c0.058-0.524,0.484-0.738,1.019-0.689s0.755,0.321,0.737,0.854
			C9.519,23.192,9.53,23.802,9.53,24.492z"/>
		<path fill-rule="evenodd" clip-rule="evenodd" fill="#B3B3B3" d="M17.629,24.472c-0.603,0-1.127,0-1.767,0
			c0-0.689-0.087-1.396,0.049-2.047c0.059-0.291,0.591-0.67,0.882-0.65s0.729,0.447,0.796,0.768
			C17.725,23.124,17.629,23.763,17.629,24.472z"/>
	</g>
</g>
</svg>
