<?xml version="1.0" encoding="utf-8"?>
<!-- Generator: Adobe Illustrator 16.0.0, SVG Export Plug-In . SVG Version: 6.00 Build 0)  -->
<!DOCTYPE svg PUBLIC "-//W3C//DTD SVG 1.1//EN" "http://www.w3.org/Graphics/SVG/1.1/DTD/svg11.dtd">
<svg version="1.1" id="Layer_1" xmlns="http://www.w3.org/2000/svg" xmlns:xlink="http://www.w3.org/1999/xlink" x="0px" y="0px"
	 width="30px" height="28px" viewBox="0 0 30 28" enable-background="new 0 0 30 28" xml:space="preserve">
<g>
	<rect fill="#FFFFFF" width="30" height="28"/>
	<g opacity="0.35">
		<path fill-rule="evenodd" clip-rule="evenodd" fill="#333333" d="M13.746,3.993c-0.639,0-0.66,0-1.307,0c0-0.556,0-0.845,0-1.462
			c0.623,0,0.684,0,1.383,0c0-0.697,0-0.733,0-1.401c0.577,0,1.098,0,1.68,0c0,0.607,0,0.644,0,1.371c0.749,0,0.861,0,1.6,0
			c0,0.598,0,0.865,0,1.461c-0.674,0-0.79,0-1.448,0c-0.333,1.155-0.141,1.559,0.86,2.156c0.294,0.173,0.517,0.446,0.79,0.636
			c0.809,0.609,1.174,1.036,1.125,2.068c-0.062,1.185-0.053,1.683,0.009,2.868c0.021,0.385,0.233,0.87,0.517,1.125
			c1.873,1.668,3.795,3.279,5.705,4.918c0.936,0.799,1.058,1.57,0.127,2.328c-1.104,0.912-1.378,1.975-1.297,3.319
			c0.102,1.571,0.02,0.531,0.02,2.201c1.732,0,3.406,0,5.123,0c0,0.566,0,1.033,0,1.548c-9.273,0-18.516,0-27.804,0
			c0-0.475,0-0.94,0-1.497c1.65,0,5.066,0,5.066,0l0.02-2.321c0,0,0.209-1.761-1.28-3.25c-0.895-0.738-0.8-1.519,0.088-2.275
			c1.861-1.601,3.725-3.2,5.607-4.771c0.476-0.395,0.714-0.789,0.684-1.427c-0.055-1.185-0.01-1.341-0.016-2.525
			c-0.01-0.87,0.263-1.599,0.967-2.145c0.308-0.243,0.572-0.567,0.901-0.771C13.862,5.542,14.023,5.126,13.746,3.993z M21.93,25.572
			c0-2.207,0.009-1.745-0.021-3.911c0-0.19-0.243-0.414-0.414-0.576c-1.226-1.084-2.563-2.065-3.67-3.26
			c-1.14-1.216-2.435-1.609-3.994-1.388c-0.335,0.051-0.719,0.152-0.972,0.365c-1.619,1.366-3.21,2.764-4.8,4.16
			c-0.197,0.173-0.475,0.417-0.479,0.626c-0.035,2.197-0.026,1.756-0.026,3.983c1.529,0,2.951,0,4.479,0c0-0.333,0-0.638,0-0.941
			c0.006-1.579-0.015-0.53,0.006-2.108c0.02-1.529,0.729-2.582,1.877-2.896c1.873-0.507,3.433,0.687,3.478,2.702
			c0.03,1.67,0,0.701,0.006,2.371c0.004,0.295,0.024,0.587,0.034,0.872C18.985,25.572,20.411,25.572,21.93,25.572z M23.621,18.977
			c-1.675-1.437-3.351-2.772-4.909-4.241c-0.992-0.941-2.025-1.406-3.396-1.244c-0.837,0.101-1.697,0-2.536,0.029
			c-0.295,0.011-0.639,0.092-0.851,0.263c-2.035,1.702-4.039,3.424-6.073,5.153c0.344,0.366,0.637,0.669,0.935,0.981
			c1.095-0.951,2.244-1.76,3.154-2.783c1.67-1.883,3.645-2.713,6.119-2.267c0.465,0.08,0.993,0.212,1.341,0.505
			c1.772,1.479,3.493,3.028,5.285,4.575C23.003,19.614,23.287,19.323,23.621,18.977z M14.722,6.685
			c-0.456,0.353-0.852,0.627-1.195,0.951c-0.317,0.305-0.809,0.657-0.83,1.014c-0.095,1.446-0.04,1.864-0.04,3.303
			c1.474,0,2.813,0,4.232,0c0-1.416,0.01-1.767-0.012-3.144c0-0.159-0.125-0.353-0.253-0.474
			C16.017,7.789,15.401,7.263,14.722,6.685z"/>
		<path fill-rule="evenodd" clip-rule="evenodd" fill="#FFFFFF" d="M15.774,25.591c-0.723,0-2.11,0-2.11,0l0.005-0.557
			c0,0-0.011-0.812,0-2.534c0.01-0.912,0.354-1.356,1.032-1.356c0.846-0.009,1.055,0.588,1.063,1.245
			C15.8,24.303,15.774,23.588,15.774,25.591z"/>
		<path fill-rule="evenodd" clip-rule="evenodd" fill="#B3B3B3" d="M15.957,11.13c-0.891,0-1.417,0-2.196,0
			c0.132-0.698,0.202-1.356,0.426-1.975c0.049-0.131,0.88-0.203,0.952-0.081C15.46,9.662,15.653,10.331,15.957,11.13z"/>
	</g>
</g>
</svg>
