<?xml version="1.0" encoding="utf-8"?>
<!-- Generator: Adobe Illustrator 16.0.0, SVG Export Plug-In . SVG Version: 6.00 Build 0)  -->
<!DOCTYPE svg PUBLIC "-//W3C//DTD SVG 1.1//EN" "http://www.w3.org/Graphics/SVG/1.1/DTD/svg11.dtd">
<svg version="1.1" id="Layer_1" xmlns="http://www.w3.org/2000/svg" xmlns:xlink="http://www.w3.org/1999/xlink" x="0px" y="0px"
	 width="707px" height="216px" viewBox="0 0 707 216" enable-background="new 0 0 707 216" xml:space="preserve">
<path fill="#FFFFFF" d="M0,0v210.879C0,213.641,1.968,216,4.73,216h697c2.762,0,5.27-2.359,5.27-5.121V0H0z"/>
<g>
	<defs>
		<rect id="SVGID_1_" width="707" height="216"/>
	</defs>
	<clipPath id="SVGID_2_">
		<use xlink:href="#SVGID_1_"  overflow="visible"/>
	</clipPath>
	<g opacity="0.35" clip-path="url(#SVGID_2_)">
		<g>
			<path fill-rule="evenodd" clip-rule="evenodd" fill="#D857A0" d="M246.07,105.356c2.379-4.436,4.266-8.911,6.998-12.793
				c2.789-3.963,6.518-7.272,11.938-7.016c6.215,0.296,11.166,6.19,11.619,13.491c0.367,5.871-1.049,11.428-2.986,16.873
				c-3.824,10.746-9.75,20.378-16.012,29.829c-0.933,1.407-1.902,1.663-3.471,0.894c-13.285-6.531-24.842-15.15-33.176-27.587
				c-3.1-4.627-4.914-9.734-4.541-15.465c0.352-5.488,3.747-10.265,8.79-12.092c5.368-1.943,10.364-0.608,14.292,3.938
				c1.326,1.535,2.549,3.179,3.664,4.875C244.246,101.909,245.103,103.648,246.07,105.356z"/>
			<path fill-rule="evenodd" clip-rule="evenodd" fill="#D857A0" d="M520.846,183.923c2.762-2.467,5.193-5.086,8.061-7.085
				c2.922-2.039,6.33-3.392,10.016-1.851c4.225,1.765,6.168,7.085,4.645,12.248c-1.221,4.155-3.598,7.64-6.305,10.92
				c-5.346,6.47-11.869,11.642-18.572,16.604c-1,0.741-1.734,0.674-2.627-0.256c-7.543-7.855-13.371-16.723-16.006-27.415
				c-0.981-3.98-0.953-7.97,0.743-11.838c1.626-3.707,5.171-6.157,9.119-6.152c4.203,0.005,7.322,2.184,8.896,6.315
				c0.531,1.396,0.963,2.838,1.307,4.292C520.453,181.083,520.609,182.5,520.846,183.923z"/>
			<g>
				<path fill="#D857A0" d="M135.058,116.216c-0.799-1.32-1.601-2.638-2.402-3.956c-0.397,0.051-0.794,0.102-1.192,0.153
					c-0.211,1.812-0.418,3.624-0.678,5.826c1.949-0.941,3.171-1.535,4.396-2.129c-1.096,2.341-5.492,2.978-3.541,7.31
					c1.045-0.641,1.929-1.177,2.807-1.713c-0.988,1.119-2.324,2.094-2.854,3.395c-0.524,1.29-0.307,2.916-0.173,4.372
					c0.012,0.141,1.701,0.132,2.608,0.191c-2.159,1.436-3.321,3.411-2.489,5.964c0.701,2.146-0.102,3.177-1.916,4.041
					c-0.971,0.461-1.768,1.279-2.647,1.936c-0.56-0.393-1.119-1.136-1.671-1.129c-4.98,0.073-8.492,3.354-12.369,5.834
					c1.051-1.118,2.1-2.228,3.15-3.346c-0.262-0.393-0.523-0.789-0.783-1.186c-3.146,1.601-6.289,3.199-9.436,4.8
					c0.135-0.571,0.271-1.144,0.554-2.362c-3.505,1.234-6.47,2.282-10.412,3.67c3.729,1.071,3.729,1.071,10.005-1.44
					c-0.793,0.862-1.586,1.72-2.479,2.687c4.207,1.998,6.326-1.32,9.109-2.58c-0.952,1.134-1.898,2.268-2.837,3.389
					c4.823,2.338,7.974,0.006,10.978-2.814c-1.023,1.148-2.047,2.299-3.066,3.448c0.125,0.383,0.252,0.765,0.379,1.146
					c1.725-0.29,3.447-0.587,5.17-0.878c1.986,2.95,4.584,1.604,7.071,1.01c-0.595,0.92-1.411,1.774-1.71,2.778
					c-0.213,0.711,0.283,1.628,0.461,2.453c0.744-0.165,1.484-0.327,2.223-0.495c-0.687,1.741-1.375,3.479-2.063,5.215
					c0.417,0.269,0.832,0.534,1.248,0.801c2.828-1.887,5.655-3.774,8.485-5.659c-2.322,2.04-4.551,4.214-7.004,6.088
					c-1.854,1.422-2.137,2.729-0.752,4.663c1.293-0.646,2.395-1.191,3.492-1.739c-6.377,3.928-1.664,9.136-2.164,13.742
					c0.506,0.186,1.015,0.371,1.514,0.553c3.382-6.641,6.755-13.287,10.137-19.93c-0.314-0.179-0.621-0.351-0.936-0.526
					c-1.432,0.997-2.863,1.998-4.297,2.997c3.131-2.649,6.254-5.301,9.385-7.953c-0.113,3.498,2.258,3.213,4.575,3
					c1.021,0.88,2.412,2.692,2.993,2.461c2.022-0.801,3.764-2.311,5.571-3.521c-1.698-2.715-3.149-2.979-5.011-1.344
					c-1.127,0.982-2.447,1.748-3.678,2.611c1.464-1.595,2.929-3.194,4.905-5.353c-1.738-0.62-3.087-1.1-4.431-1.579
					c5.742-6.312,11.488-12.618,17.229-18.933c-0.277-0.255-0.553-0.515-0.828-0.774c-1.065,0.57-2.131,1.137-3.199,1.706
					c0.856-1.019,1.619-2.129,2.578-3.04c2.611-2.492,5.305-4.897,7.967-7.337c-0.378-0.473-0.751-0.943-1.124-1.415
					c-2.953,2.098-5.903,4.193-8.853,6.286c-1.297-0.115-2.908-0.778-3.837-0.244c-4.789,2.752-9.397,5.809-14.071,8.759
					c-1.807-1.475-3.477-3.423-6.172-1.725c1.826-1.783,2.362-3.438-0.423-4.85c-0.294-0.15-0.479-0.617-0.607-0.977
					c-0.456-1.245-0.861-2.512-1.435-4.194c-2.45,1.977-4.275,3.444-6.102,4.917c1.048-1.224,1.955-2.619,3.178-3.633
					c2.589-2.146,2.098-3.848-0.437-5.486C136.461,118.847,135.771,117.52,135.058,116.216z"/>
				<path fill="#D857A0" d="M164.09,162.365c0.509-0.938,1.021-1.874,1.504-2.767c-3.048-2.789-3.484-2.666-7.742,2.605
					c2.556,0,4.474,0,6.393,0c0.359,0.808,0.803,2.34,1.067,2.312c1.452-0.161,2.856-0.715,4.402-1.162
					C167.688,159.687,165.872,161.448,164.09,162.365z"/>
				<path fill="#D857A0" d="M89.057,133.79c6.508-0.099,10.908-3.204,10.737-7.573c-0.221-5.654-5.083-11.336-9.68-11.317
					c-6.036,0.027-9.929,4.05-9.942,10.262C80.162,130.194,83.944,133.867,89.057,133.79z"/>
				<path fill="#D857A0" d="M103.268,173.268c-2.467-0.04-5.264,2.581-5.293,4.96c-0.031,2.284,3.073,5.271,5.516,5.302
					c2.266,0.032,5.32-2.825,5.357-5.011C108.891,176.251,105.764,173.307,103.268,173.268z"/>
				<path fill-rule="evenodd" clip-rule="evenodd" fill="#D857A0" d="M138.983,156.946c-2.83,1.885-5.657,3.772-8.485,5.659
					c-0.416-0.267-0.831-0.532-1.248-0.801c0.688-1.736,1.377-3.474,2.052-5.206c1.856-1.457,3.742-2.902,5.578-4.412
					c5.106-4.204,10.188-8.438,15.279-12.663c4.941-3.928,9.885-7.851,14.827-11.781l0.067-0.133
					c2.949-2.093,5.899-4.188,8.853-6.286c0.373,0.472,0.746,0.942,1.124,1.415c-2.662,2.439-5.355,4.845-7.967,7.337
					c-0.959,0.911-1.722,2.021-2.578,3.04l0.125-0.132c-3.311,2.936-6.625,5.87-9.934,8.807c-1.169,0.905-2.379,1.763-3.49,2.732
					C148.434,148.643,143.713,152.8,138.983,156.946z"/>
				<path fill-rule="evenodd" clip-rule="evenodd" fill="#D857A0" d="M126.976,141.606c0.88-0.656,1.677-1.475,2.647-1.936
					c1.814-0.864,2.617-1.896,1.916-4.041c-0.832-2.553,0.33-4.528,2.489-5.964c0.125-0.122,0.251-0.242,0.378-0.37
					c1.826-1.473,3.651-2.94,6.102-4.917c0.573,1.683,0.979,2.949,1.435,4.194c0.129,0.359,0.313,0.826,0.607,0.977
					c2.785,1.412,2.249,3.066,0.435,4.839c-6.561,5.476-13.138,10.966-19.717,16.455c-1.723,0.291-3.445,0.588-5.17,0.878
					c-0.127-0.381-0.254-0.763-0.379-1.146c1.02-1.149,2.043-2.3,3.056-3.435C122.833,145.304,124.901,143.455,126.976,141.606z"/>
				<path fill-rule="evenodd" clip-rule="evenodd" fill="#D857A0" d="M138.983,156.946c4.73-4.146,9.451-8.303,14.203-12.424
					c1.111-0.97,2.321-1.827,3.49-2.732c3.309-2.937,6.623-5.871,9.934-8.807l-0.125,0.132c1.068-0.569,2.134-1.136,3.199-1.706
					c0.275,0.26,0.551,0.52,0.828,0.774c-5.74,6.314-11.486,12.62-17.229,18.931c-1.643,1.243-3.283,2.484-4.926,3.727
					c-3.131,2.652-6.254,5.304-9.385,7.952c-1.413,1.054-2.832,2.106-4.254,3.165c-1.098,0.548-2.199,1.094-3.492,1.739
					c-1.385-1.934-1.102-3.241,0.752-4.663C134.432,161.16,136.661,158.986,138.983,156.946z"/>
				<path fill-rule="evenodd" clip-rule="evenodd" fill="#D857A0" d="M167.053,127.609l-0.067,0.133
					c-6.627,1.808-10.741,6.784-14.827,11.781c-5.092,4.225-10.173,8.459-15.279,12.663c-1.836,1.51-3.722,2.955-5.578,4.412
					c-0.727,0.159-1.467,0.321-2.211,0.486c-0.178-0.825-0.674-1.742-0.461-2.453c0.299-1.004,1.115-1.858,1.71-2.778l-0.119,0.13
					c6.339-5.325,12.683-10.651,19.02-15.979l-0.095,0.122c4.674-2.953,9.282-6.01,14.071-8.762
					C164.145,126.831,165.756,127.494,167.053,127.609z"/>
				<path fill-rule="evenodd" clip-rule="evenodd" fill="#D857A0" d="M123.268,150.843c6.579-5.489,13.156-10.979,19.717-16.455
					c2.684-1.688,4.354,0.261,6.16,1.738l0.095-0.122c-6.337,5.327-12.681,10.653-19.02,15.979l0.119-0.13
					C127.852,152.447,125.254,153.793,123.268,150.843z"/>
				<path fill-rule="evenodd" clip-rule="evenodd" fill="#D857A0" d="M134.719,165.958c1.422-1.059,2.841-2.111,4.254-3.165
					c1.434-0.998,2.865-1.999,4.297-2.996c0.314,0.176,0.621,0.348,0.936,0.526c-3.382,6.643-6.755,13.289-10.137,19.93
					c-0.499-0.182-1.008-0.367-1.514-0.553C133.055,175.093,128.342,169.885,134.719,165.958z"/>
				<path fill-rule="evenodd" clip-rule="evenodd" fill="#D857A0" d="M89.057,133.79c-5.113,0.077-8.896-3.596-8.885-8.629
					c0.014-6.212,3.906-10.234,9.942-10.262c4.597-0.019,9.459,5.663,9.68,11.317C99.965,130.585,95.565,133.691,89.057,133.79z
					 M88.782,132.341c5.607,0.04,9.402-2.408,9.396-6.049c-0.011-4.905-4.603-10.093-8.905-10.069
					c-3.959,0.027-7.555,3.722-7.584,7.788C81.65,129.25,84.256,132.309,88.782,132.341z"/>
				<path fill-rule="evenodd" clip-rule="evenodd" fill="#D857A0" d="M103.268,173.268c2.496,0.039,5.623,2.983,5.58,5.251
					c-0.037,2.186-3.092,5.043-5.357,5.011c-2.442-0.031-5.547-3.018-5.516-5.302C98.004,175.849,100.801,173.228,103.268,173.268z"
					/>
				<path fill-rule="evenodd" clip-rule="evenodd" fill="#D857A0" d="M126.976,141.606c-2.075,1.849-4.144,3.698-6.201,5.535
					c-2.993,2.807-6.144,5.139-10.967,2.801c0.938-1.121,1.885-2.255,2.827-3.383c0.159-0.138,0.262-0.222,0.301-0.248
					c3.877-2.48,7.389-5.761,12.369-5.834C125.857,140.47,126.417,141.213,126.976,141.606z"/>
				<path fill-rule="evenodd" clip-rule="evenodd" fill="#D857A0" d="M134.407,129.295c-0.127,0.128-0.253,0.248-0.378,0.37
					c-0.907-0.06-2.597-0.051-2.608-0.191c-0.134-1.456-0.352-3.082,0.173-4.372c0.53-1.301,1.866-2.275,2.839-3.381
					c0.898-0.508,1.807-1.023,2.716-1.545c2.534,1.639,3.025,3.341,0.437,5.486C136.362,126.676,135.455,128.072,134.407,129.295z"
					/>
				<path fill-rule="evenodd" clip-rule="evenodd" fill="#D857A0" d="M112.936,146.311c-0.039,0.026-0.142,0.11-0.301,0.248
					c-2.773,1.254-4.893,4.572-9.1,2.574c0.893-0.967,1.686-1.824,2.479-2.687l-0.146,0.133c3.146-1.601,6.29-3.199,9.436-4.8
					c0.26,0.396,0.521,0.793,0.783,1.186C115.036,144.083,113.987,145.193,112.936,146.311z"/>
				<path fill-rule="evenodd" clip-rule="evenodd" fill="#D857A0" d="M148.358,154.84c1.643-1.242,3.283-2.483,4.926-3.727
					c1.344,0.481,2.692,0.961,4.431,1.581c-1.977,2.158-3.441,3.758-4.905,5.353l0.124-0.207
					C150.616,158.053,148.245,158.338,148.358,154.84z"/>
				<path fill-rule="evenodd" clip-rule="evenodd" fill="#D857A0" d="M152.933,157.84l-0.124,0.207
					c1.23-0.863,2.551-1.629,3.678-2.611c1.861-1.636,3.312-1.371,5.011,1.344c-1.808,1.211-3.549,2.721-5.571,3.521
					C155.345,160.533,153.954,158.72,152.933,157.84z"/>
				<path fill-rule="evenodd" clip-rule="evenodd" fill="#D857A0" d="M164.245,162.204c-1.919,0-3.837,0-6.393,0
					c4.258-5.271,4.694-5.395,7.742-2.605c-0.483,0.893-0.995,1.829-1.504,2.767L164.245,162.204z"/>
				<path fill-rule="evenodd" clip-rule="evenodd" fill="#D857A0" d="M137.148,120.176c-0.909,0.521-1.817,1.037-2.713,1.545
					c-0.865,0.522-1.749,1.059-2.794,1.699c-1.951-4.332,2.445-4.969,3.541-7.31l-0.102,0.08
					C135.771,117.52,136.461,118.847,137.148,120.176z"/>
				<path fill-rule="evenodd" clip-rule="evenodd" fill="#D857A0" d="M105.868,146.58l0.146-0.133
					c-6.275,2.512-6.275,2.512-10.005,1.44c3.942-1.388,6.907-2.436,10.412-3.67C106.138,145.436,106.002,146.008,105.868,146.58z"
					/>
				<path fill-rule="evenodd" clip-rule="evenodd" fill="#D857A0" d="M164.245,162.204l-0.154,0.161
					c1.781-0.917,3.598-2.678,5.624,0.989c-1.546,0.447-2.95,1.001-4.402,1.162C165.047,164.543,164.604,163.011,164.245,162.204z"
					/>
				<path fill-rule="evenodd" clip-rule="evenodd" fill="#D857A0" d="M135.182,116.111c-1.226,0.594-2.447,1.188-4.396,2.129
					c0.26-2.202,0.467-4.015,0.678-5.826c0.398-0.052,0.795-0.103,1.192-0.153c0.802,1.318,1.604,2.636,2.413,3.945
					C135.081,116.191,135.182,116.111,135.182,116.111z"/>
				<path fill-rule="evenodd" clip-rule="evenodd" fill="#D857A0" d="M152.159,139.523c4.086-4.997,8.2-9.974,14.827-11.781
					C162.043,131.672,157.1,135.595,152.159,139.523z"/>
				<path fill-rule="evenodd" clip-rule="evenodd" fill="#D857A0" d="M166.61,132.983c-3.311,2.936-6.625,5.87-9.934,8.807
					C159.985,138.853,163.299,135.918,166.61,132.983z"/>
				<path fill-rule="evenodd" clip-rule="evenodd" fill="#D857A0" d="M130.22,151.983c6.339-5.325,12.683-10.651,19.02-15.979
					C142.903,141.332,136.559,146.658,130.22,151.983z"/>
				<path fill-rule="evenodd" clip-rule="evenodd" fill="#D857A0" d="M88.782,132.341c-4.525-0.032-7.132-3.092-7.094-8.33
					c0.029-4.066,3.625-7.761,7.584-7.788c4.303-0.023,8.895,5.164,8.905,10.069C98.184,129.933,94.389,132.381,88.782,132.341z"/>
				<path fill="#D857A0" d="M289.736,78.085c6.511-0.099,10.908-3.202,10.739-7.574c-0.221-5.654-5.084-11.335-9.68-11.316
					c-6.039,0.026-9.93,4.05-9.945,10.261C280.84,74.49,284.625,78.162,289.736,78.085z"/>
				<path fill-rule="evenodd" clip-rule="evenodd" fill="#D857A0" d="M289.736,78.085c-5.11,0.076-8.896-3.596-8.886-8.63
					c0.016-6.211,3.906-10.234,9.945-10.261c4.596-0.019,9.459,5.662,9.68,11.316C300.644,74.883,296.247,77.987,289.736,78.085z
					 M289.461,76.635c5.607,0.043,9.403-2.405,9.397-6.046c-0.014-4.904-4.604-10.095-8.908-10.071
					c-3.958,0.026-7.552,3.723-7.583,7.789C282.329,73.546,284.935,76.607,289.461,76.635z"/>
				<path fill-rule="evenodd" clip-rule="evenodd" fill="#D857A0" d="M289.461,76.635c-4.526-0.028-7.133-3.089-7.094-8.328
					c0.031-4.066,3.625-7.763,7.583-7.789c4.304-0.023,8.895,5.167,8.908,10.071C298.865,74.23,295.069,76.678,289.461,76.635z"/>
			</g>
			<g>
				<path fill="#D857A0" d="M322.839,221.881c0.145,1.565,0.292,3.129,0.441,4.694c0.383,0.126,0.767,0.252,1.152,0.377
					c0.99-1.578,1.979-3.16,3.187-5.077c-2.188,0.02-3.563,0.034-4.94,0.05c2.029-1.683,6.312-0.356,6.446-5.2
					c-1.233,0.136-2.273,0.244-3.31,0.357c1.393-0.603,3.039-0.92,4.096-1.889c1.046-0.961,1.564-2.556,2.086-3.957
					c0.051-0.134-1.49-0.861-2.29-1.311c2.599-0.386,4.527-1.701,4.896-4.418c0.309-2.284,1.494-2.886,3.527-2.893
					c1.086-0.003,2.172-0.411,3.262-0.633c0.337,0.605,0.518,1.534,1.023,1.768c4.564,2.1,9.207,0.604,13.829,0.003
					c-1.45,0.574-2.893,1.142-4.342,1.715c0.064,0.476,0.128,0.955,0.188,1.434c3.57-0.106,7.135-0.213,10.705-0.319
					c-0.376,0.468-0.752,0.938-1.547,1.938c3.734,0.388,6.895,0.711,11.094,1.146c-2.921-2.611-2.921-2.611-9.738-3.025
					c1.101-0.45,2.2-0.896,3.439-1.399c-2.947-3.674-6.34-1.535-9.428-1.585c1.367-0.631,2.727-1.265,4.076-1.891
					c-3.358-4.256-7.253-3.476-11.231-2.182c1.438-0.614,2.877-1.229,4.311-1.846c0.056-0.407,0.109-0.815,0.161-1.221
					c-1.697-0.483-3.396-0.96-5.092-1.44c-0.507-3.586-3.465-3.475-5.99-4.009c0.947-0.59,2.067-1.023,2.782-1.818
					c0.507-0.563,0.461-1.625,0.663-2.463c-0.751-0.172-1.496-0.346-2.241-0.512c1.392-1.307,2.785-2.608,4.178-3.91
					c-0.262-0.431-0.522-0.856-0.782-1.283c-3.407,0.51-6.812,1.02-10.219,1.527c3.013-0.871,6.001-1.906,9.06-2.566
					c2.313-0.505,3.147-1.588,2.74-3.975c-1.461,0.034-2.704,0.058-3.944,0.085c7.535-0.847,5.543-7.701,8.029-11.731
					c-0.378-0.393-0.759-0.785-1.133-1.169c-6.007,4.651-12.008,9.313-18.016,13.968c0.207,0.302,0.411,0.595,0.619,0.894
					c1.743-0.296,3.486-0.597,5.232-0.894c-4.017,1.08-8.029,2.167-12.048,3.249c1.646-3.176-0.638-3.945-2.841-4.757
					c-0.54-1.256-1.008-3.533-1.639-3.572c-2.193-0.143-4.444,0.492-6.622,0.822c0.347,3.243,1.551,4.119,3.967,3.421
					c1.459-0.416,2.998-0.547,4.499-0.808c-2.036,0.833-4.075,1.67-6.825,2.801c1.309,1.329,2.324,2.357,3.335,3.385
					c-8.01,3.323-16.02,6.638-24.029,9.964c0.141,0.355,0.276,0.714,0.412,1.074c1.221-0.063,2.441-0.121,3.664-0.182
					c-1.229,0.567-2.412,1.26-3.688,1.683c-3.475,1.161-6.987,2.207-10.486,3.299c0.137,0.6,0.268,1.197,0.398,1.795
					c3.613-0.65,7.223-1.299,10.83-1.946c1.129,0.672,2.303,1.984,3.384,1.896c5.571-0.453,11.114-1.267,16.669-1.953
					c0.993,2.146,1.653,4.669,4.855,4.275c-2.447,0.851-3.666,2.143-1.754,4.657c0.201,0.267,0.163,0.778,0.121,1.165
					c-0.133,1.347-0.323,2.692-0.544,4.493c3.102-0.757,5.41-1.316,7.722-1.88c-1.493,0.673-2.935,1.564-4.494,1.967
					c-3.303,0.854-3.606,2.637-2.023,5.251C322.722,218.843,322.765,220.369,322.839,221.881z"/>
				<path fill="#D857A0" d="M316.774,166.684c-0.877,0.644-1.756,1.285-2.59,1.896c1.544,3.9,1.995,3.976,8.195,0.968
					c-2.326-1.112-4.071-1.946-5.817-2.782c0.029-0.901,0.301-2.507,0.049-2.598c-1.393-0.483-2.915-0.584-4.52-0.845
					C312.318,167.589,314.748,166.754,316.774,166.684z"/>
				<path fill="#D857A0" d="M259.044,184.546c-5.966-2.741-11.34-1.791-13.111,2.312c-2.293,5.312-0.375,12.667,3.817,14.651
					c5.505,2.602,10.821,0.586,13.573-5.138C265.554,191.735,263.732,186.702,259.044,184.546z"/>
				<path fill="#D857A0" d="M376.933,183.1c2.227,1.109,5.929-0.09,7.005-2.271c1.036-2.093-0.473-6.197-2.681-7.29
					c-2.049-1.016-6.088,0.29-7.086,2.29C373.132,177.901,374.678,181.977,376.933,183.1z"/>
				<path fill-rule="evenodd" clip-rule="evenodd" fill="#D857A0" d="M337.232,182.61c3.407-0.508,6.812-1.018,10.219-1.527
					c0.26,0.427,0.521,0.853,0.782,1.283c-1.393,1.302-2.786,2.604-4.164,3.907c-2.331,0.536-4.686,1.048-7.022,1.642
					c-6.5,1.655-12.992,3.349-19.49,5.029c-6.229,1.472-12.457,2.938-18.689,4.412l-0.119,0.093
					c-3.607,0.647-7.217,1.296-10.83,1.946c-0.131-0.598-0.262-1.195-0.398-1.795c3.499-1.092,7.012-2.138,10.486-3.299
					c1.275-0.423,2.459-1.115,3.688-1.683l-0.171,0.067c4.306-1.266,8.617-2.53,12.924-3.799c1.462-0.326,2.942-0.591,4.381-1.001
					C324.968,186.154,331.098,184.374,337.232,182.61z"/>
				<path fill-rule="evenodd" clip-rule="evenodd" fill="#D857A0" d="M341.392,201.983c-1.09,0.222-2.176,0.63-3.262,0.633
					c-2.033,0.007-3.219,0.608-3.527,2.893c-0.368,2.717-2.297,4.032-4.896,4.418c-0.168,0.058-0.335,0.113-0.507,0.176
					c-2.312,0.563-4.62,1.123-7.722,1.88c0.221-1.801,0.411-3.146,0.544-4.493c0.042-0.387,0.08-0.898-0.121-1.165
					c-1.912-2.515-0.693-3.807,1.738-4.651c8.385-2.195,16.793-4.396,25.201-6.595c1.696,0.48,3.395,0.957,5.092,1.44
					c-0.052,0.405-0.105,0.813-0.161,1.221c-1.434,0.617-2.873,1.231-4.295,1.838C346.794,200.375,344.096,201.181,341.392,201.983z
					"/>
				<path fill-rule="evenodd" clip-rule="evenodd" fill="#D857A0" d="M337.232,182.61c-6.134,1.764-12.264,3.544-18.405,5.276
					c-1.438,0.41-2.919,0.675-4.381,1.001c-4.307,1.269-8.618,2.533-12.924,3.799l0.171-0.067c-1.223,0.061-2.443,0.118-3.664,0.182
					c-0.136-0.36-0.271-0.719-0.412-1.074c8.01-3.326,16.02-6.641,24.028-9.962c2.044-0.432,4.084-0.862,6.127-1.294
					c4.019-1.082,8.031-2.169,12.048-3.249c1.751-0.356,3.506-0.71,5.268-1.067c1.24-0.027,2.483-0.051,3.944-0.085
					c0.407,2.387-0.427,3.47-2.74,3.975C343.233,180.704,340.245,181.739,337.232,182.61z"/>
				<path fill-rule="evenodd" clip-rule="evenodd" fill="#D857A0" d="M298.748,197.449l0.119-0.093
					c6.828,1.217,12.768-1.582,18.689-4.412c6.498-1.681,12.99-3.374,19.49-5.029c2.337-0.594,4.691-1.105,7.022-1.642
					c0.731,0.169,1.477,0.343,2.228,0.515c-0.202,0.838-0.156,1.899-0.663,2.463c-0.715,0.795-1.835,1.229-2.782,1.818l0.166-0.068
					c-8.117,2.152-16.239,4.304-24.356,6.459l0.141-0.072c-5.556,0.69-11.099,1.504-16.67,1.957
					C301.05,199.433,299.876,198.121,298.748,197.449z"/>
				<path fill-rule="evenodd" clip-rule="evenodd" fill="#D857A0" d="M348.841,195.078c-8.408,2.198-16.816,4.399-25.201,6.595
					c-3.187,0.388-3.847-2.135-4.839-4.285l-0.141,0.072c8.117-2.155,16.239-4.307,24.356-6.459l-0.166,0.068
					C345.376,191.603,348.334,191.492,348.841,195.078z"/>
				<path fill-rule="evenodd" clip-rule="evenodd" fill="#D857A0" d="M345.087,176.154c-1.762,0.357-3.517,0.711-5.268,1.067
					c-1.746,0.297-3.489,0.598-5.232,0.894c-0.208-0.299-0.412-0.592-0.619-0.894c6.008-4.654,12.009-9.316,18.016-13.968
					c0.374,0.384,0.755,0.776,1.133,1.169C350.63,168.453,352.623,175.307,345.087,176.154z"/>
				<path fill-rule="evenodd" clip-rule="evenodd" fill="#D857A0" d="M259.044,184.546c4.688,2.155,6.51,7.188,4.279,11.825
					c-2.752,5.724-8.068,7.739-13.573,5.138c-4.192-1.984-6.11-9.34-3.817-14.651C247.705,182.755,253.079,181.805,259.044,184.546z
					 M258.656,186.003c-5.084-2.479-9.618-1.872-11.218,1.488c-2.153,4.529-0.263,11.312,3.663,13.163
					c3.614,1.697,8.516-0.146,10.337-3.882C263.783,191.958,262.76,188.002,258.656,186.003z"/>
				<path fill-rule="evenodd" clip-rule="evenodd" fill="#D857A0" d="M331.845,24.169c-2.255-1.123-3.801-5.199-2.762-7.271
					c0.998-2,5.037-3.306,7.086-2.29c2.208,1.093,3.717,5.197,2.681,7.29C337.774,24.08,334.072,25.279,331.845,24.169z"/>
				<path fill-rule="evenodd" clip-rule="evenodd" fill="#D857A0" d="M341.392,201.983c2.704-0.802,5.402-1.607,8.085-2.406
					c3.963-1.286,7.857-2.066,11.216,2.189c-1.35,0.626-2.709,1.26-4.065,1.89c-0.205,0.058-0.335,0.091-0.383,0.098
					c-4.622,0.601-9.265,2.097-13.829-0.003C341.91,203.517,341.729,202.588,341.392,201.983z"/>
				<path fill-rule="evenodd" clip-rule="evenodd" fill="#D857A0" d="M329.201,210.102c0.172-0.062,0.339-0.118,0.507-0.176
					c0.8,0.449,2.341,1.177,2.29,1.311c-0.521,1.401-1.04,2.996-2.086,3.957c-1.057,0.969-2.703,1.286-4.074,1.883
					c-1.043,0.077-2.097,0.158-3.154,0.243c-1.583-2.614-1.279-4.397,2.023-5.251C326.266,211.667,327.708,210.775,329.201,210.102z
					"/>
				<path fill-rule="evenodd" clip-rule="evenodd" fill="#D857A0" d="M356.245,203.753c0.048-0.007,0.178-0.04,0.383-0.098
					c3.077,0.051,6.47-2.088,9.417,1.586c-1.239,0.504-2.339,0.949-3.439,1.399l0.191-0.059c-3.57,0.106-7.135,0.213-10.705,0.319
					c-0.061-0.479-0.124-0.958-0.188-1.434C353.352,204.895,354.794,204.328,356.245,203.753z"/>
				<path fill-rule="evenodd" clip-rule="evenodd" fill="#D857A0" d="M327.772,180.47c-2.043,0.432-4.083,0.862-6.127,1.294
					c-1.01-1.029-2.025-2.058-3.334-3.387c2.75-1.131,4.789-1.968,6.825-2.801l-0.205,0.137
					C327.134,176.525,329.417,177.294,327.772,180.47z"/>
				<path fill-rule="evenodd" clip-rule="evenodd" fill="#D857A0" d="M324.931,175.713l0.205-0.137
					c-1.501,0.261-3.04,0.392-4.499,0.808c-2.416,0.698-3.62-0.178-3.967-3.421c2.178-0.33,4.429-0.965,6.622-0.822
					C323.923,172.18,324.391,174.458,324.931,175.713z"/>
				<path fill-rule="evenodd" clip-rule="evenodd" fill="#D857A0" d="M316.562,166.766c1.746,0.836,3.491,1.67,5.817,2.782
					c-6.2,3.008-6.651,2.933-8.195-0.968c0.834-0.611,1.713-1.253,2.59-1.896L316.562,166.766z"/>
				<path fill-rule="evenodd" clip-rule="evenodd" fill="#D857A0" d="M322.683,217.32c1.058-0.085,2.111-0.166,3.151-0.244
					c1.018-0.106,2.058-0.215,3.291-0.351c-0.135,4.844-4.417,3.518-6.446,5.2l0.128-0.03
					C322.765,220.369,322.722,218.843,322.683,217.32z"/>
				<path fill-rule="evenodd" clip-rule="evenodd" fill="#D857A0" d="M362.796,206.583l-0.191,0.059
					c6.817,0.414,6.817,0.414,9.738,3.025c-4.199-0.436-7.359-0.759-11.094-1.146C362.044,207.52,362.42,207.05,362.796,206.583z"/>
				<path fill-rule="evenodd" clip-rule="evenodd" fill="#D857A0" d="M316.562,166.766l0.212-0.082
					c-2.026,0.07-4.456,0.905-4.683-3.36c1.604,0.261,3.127,0.361,4.52,0.845C316.863,164.259,316.591,165.865,316.562,166.766z"/>
				<path fill-rule="evenodd" clip-rule="evenodd" fill="#D857A0" d="M322.679,221.925c1.377-0.016,2.752-0.03,4.94-0.05
					c-1.208,1.917-2.196,3.499-3.187,5.077c-0.386-0.125-0.77-0.251-1.152-0.377c-0.149-1.565-0.297-3.129-0.457-4.689
					C322.807,221.895,322.679,221.925,322.679,221.925z"/>
				<path fill-rule="evenodd" clip-rule="evenodd" fill="#D857A0" d="M317.556,192.944c-5.922,2.83-11.861,5.629-18.689,4.412
					C305.099,195.882,311.327,194.416,317.556,192.944z"/>
				<path fill-rule="evenodd" clip-rule="evenodd" fill="#D857A0" d="M301.522,192.686c4.306-1.266,8.617-2.53,12.924-3.799
					C310.139,190.156,305.828,191.42,301.522,192.686z"/>
				<path fill-rule="evenodd" clip-rule="evenodd" fill="#D857A0" d="M343.017,191c-8.117,2.152-16.239,4.304-24.356,6.459
					C326.778,195.304,334.9,193.153,343.017,191z"/>
				<path fill-rule="evenodd" clip-rule="evenodd" fill="#D857A0" d="M258.656,186.003c4.104,1.999,5.127,5.954,2.782,10.77
					c-1.821,3.736-6.723,5.579-10.337,3.882c-3.926-1.851-5.816-8.634-3.663-13.163
					C249.038,184.131,253.572,183.525,258.656,186.003z"/>
				<path fill="#D857A0" d="M112.607,201.664c-5.968-2.743-11.339-1.794-13.114,2.312c-2.292,5.311-0.373,12.667,3.817,14.65
					c5.509,2.603,10.823,0.585,13.577-5.136C119.117,208.852,117.292,203.817,112.607,201.664z"/>
				<path fill-rule="evenodd" clip-rule="evenodd" fill="#D857A0" d="M112.607,201.664c4.685,2.153,6.51,7.188,4.28,11.826
					c-2.754,5.721-8.068,7.738-13.577,5.136c-4.19-1.983-6.109-9.34-3.817-14.65C101.268,199.87,106.639,198.92,112.607,201.664z
					 M112.217,203.121c-5.084-2.479-9.619-1.875-11.219,1.485c-2.15,4.53-0.263,11.314,3.665,13.166
					c3.612,1.698,8.514-0.146,10.336-3.884C117.345,209.074,116.324,205.117,112.217,203.121z"/>
				<path fill-rule="evenodd" clip-rule="evenodd" fill="#D857A0" d="M112.217,203.121c4.106,1.996,5.128,5.953,2.782,10.768
					c-1.822,3.737-6.724,5.582-10.336,3.884c-3.928-1.852-5.815-8.636-3.665-13.166
					C102.598,201.246,107.133,200.641,112.217,203.121z"/>
			</g>
			<g>
				<path fill="#D857A0" d="M149.502,45.277c0.062,2.256,2.281,4.412,4.532,4.399c2.415-0.01,4.889-2.604,4.789-5.012
					c-0.105-2.438-2.437-4.711-4.73-4.607C151.744,40.16,149.433,42.788,149.502,45.277z"/>
				<path fill-rule="evenodd" clip-rule="evenodd" fill="#D857A0" d="M68.971,4.328c0.289-2.019,0.408-3.595,0.76-5.123
					c0.479-2.084,1.155-9.561,4.684-8.97C79.326-8.935,76.2,0.442,75.61,2.924c-0.37,1.555-1.068,3.023-1.793,5.029
					c3.303-0.365,6.222-0.87,9.154-0.966c2.938-0.103,6.697-0.092,9.456,0.986c5.237,2.05-1.415,4.694-3.676,5.434
					c-1.858,0.606-3.694,1.185-5.653,1.312c-1.133,0.073-10.476-0.012-10.613-0.547c0.852,3.363,1.535,6.706,2.573,9.937
					c0.95,2.951,1.433,7.304-1.894,8.907c-4.215,2.031-5.729-3.006-6.357-6.022c-0.287-1.392-2.354-7.182-1.135-8.308
					c-1.188,1.097-1.953,2.062-2.936,2.662c-3.517,2.153-6.521,5.633-10.55,6.857c-5.442,1.657-8.046-3.218-5.155-7.61
					c1.137-1.74,14.644-11.469,16.423-9.993C59.467,7.294,53.01,5.744,50.527,0.866c-2.067-4.05,0.229-6.687,4.469-5.486
					c4.403,1.242,7.845,4.801,11.702,7.094C67.364,2.865,67.915,3.456,68.971,4.328z"/>
				<path fill-rule="evenodd" clip-rule="evenodd" fill="#D857A0" d="M140.901,17.294c-4.971-3.577-9.939-7.154-15.904-11.444
					c0.553,9.287,1.037,17.479,1.523,25.676c-0.304,0.023-0.611,0.046-0.918,0.068c-0.543-7.715-1.082-15.436-1.664-23.739
					c-5.199,4.226-8.686,10.093-15.441,11.473c5.975-3.215,10.906-7.511,14.963-13.91c-8.615,0-16.709,0-24.807,0
					c-0.004-0.38-0.012-0.757-0.018-1.142c7.59,0,15.173,0,23.674,0c-5.178-5.011-9.617-9.308-14.057-13.61
					c0.202-0.212,0.408-0.416,0.617-0.624c4.652,4.312,9.308,8.63,13.959,12.942c0.378-0.163,0.755-0.33,1.133-0.494
					c0-7.1,0-14.197,0-21.301c0.396-0.006,0.789-0.017,1.184-0.023c0,6.979,0,13.957,0,21.931
					c3.913-4.603,7.121-8.374,10.328-12.135c0.226,0.187,0.455,0.378,0.686,0.572c-3.119,3.873-6.239,7.738-10.053,12.465
					c8.668,0,16.225,0,23.78,0c0.004,0.33,0.007,0.662,0.01,0.993c-7.292,0-14.587,0-21.882,0c-0.168,0.366-0.34,0.727-0.511,1.092
					c4.642,3.501,9.278,7.006,13.917,10.508C141.249,16.83,141.075,17.061,140.901,17.294z"/>
				<path fill-rule="evenodd" clip-rule="evenodd" fill="#D857A0" d="M108.082-58.663c-0.029,2.963-2.443,5.586-4.711,5.59
					c-2.243,0.006-4.555-2.516-4.465-4.864c0.096-2.394,2.74-5.143,4.944-4.869C106.467-62.484,107.86-60.815,108.082-58.663z"/>
				<path fill-rule="evenodd" clip-rule="evenodd" fill="#D857A0" d="M149.502,45.277c-0.069-2.489,2.241-5.117,4.591-5.22
					c2.294-0.104,4.625,2.169,4.73,4.607c0.1,2.408-2.374,5.002-4.789,5.012C151.784,49.689,149.564,47.533,149.502,45.277z"/>
				<path fill-rule="evenodd" clip-rule="evenodd" fill="#D857A0" d="M70.115-18.535c-0.049-1.819,1.643-3.742,3.361-3.816
					c1.68-0.076,3.381,1.584,3.459,3.37c0.074,1.759-1.738,3.656-3.504,3.666C71.785-15.308,70.161-16.886,70.115-18.535z"/>
			</g>
			<g>
				<path fill="#D857A0" d="M469.118-46.358c-0.572-2.184-3.224-3.779-5.413-3.255c-2.35,0.558-4.169,3.646-3.525,5.969
					c0.657,2.351,3.443,4.034,5.653,3.412C468.098-40.866,469.751-43.95,469.118-46.358z"/>
				<path fill-rule="evenodd" clip-rule="evenodd" fill="#D857A0" d="M543.551-41.706c0.176,2.031,0.418,3.593,0.424,5.161
					c0.006,2.139,1.047,9.573-2.523,9.8c-4.973,0.307-4.059-9.535-4.047-12.087c0.006-1.598,0.354-3.187,0.604-5.305
					c-3.135,1.105-5.861,2.261-8.697,3.021c-2.836,0.767-6.5,1.61-9.432,1.188c-5.566-0.807,0.311-4.894,2.346-6.127
					c1.672-1.013,3.328-1.993,5.207-2.562c1.086-0.328,10.205-2.368,10.459-1.878c-1.592-3.082-3.018-6.183-4.762-9.093
					c-1.596-2.658-3.055-6.787-0.18-9.104c3.643-2.936,6.262,1.626,7.559,4.421c0.596,1.29,3.924,6.459,2.992,7.833
					c0.908-1.338,1.434-2.451,2.254-3.26c2.936-2.896,5.072-6.967,8.717-9.074c4.924-2.851,8.566,1.306,6.75,6.24
					c-0.713,1.952-11.656,14.495-13.725,13.462c4.635,2.315,11.275,2.359,14.803,6.545c2.934,3.475,1.295,6.564-3.105,6.358
					c-4.57-0.209-8.73-2.894-13.008-4.25C545.447-40.647,544.777-41.096,543.551-41.706z"/>
				<path fill-rule="evenodd" clip-rule="evenodd" fill="#D857A0" d="M472.301,1.914c5.653,2.354,11.305,4.71,18.088,7.532
					c-2.647-8.918-4.98-16.785-7.316-24.658c0.291-0.092,0.585-0.184,0.879-0.275c2.281,7.391,4.56,14.786,7.013,22.741
					c4.104-5.297,6.166-11.803,12.432-14.681c-5.088,4.488-8.915,9.792-11.413,16.945c8.391-1.957,16.272-3.796,24.159-5.635
					c0.09,0.369,0.184,0.734,0.277,1.107c-7.393,1.725-14.777,3.447-23.055,5.378c6.18,3.703,11.479,6.88,16.78,10.062
					c-0.148,0.252-0.303,0.498-0.459,0.748c-5.51-3.144-11.024-6.29-16.534-9.434c-0.331,0.245-0.66,0.493-0.991,0.739
					c1.613,6.914,3.226,13.826,4.839,20.743c-0.385,0.096-0.765,0.195-1.146,0.292c-1.586-6.796-3.171-13.592-4.982-21.357
					c-2.766,5.371-5.033,9.773-7.302,14.164c-0.262-0.131-0.528-0.265-0.798-0.401c2.158-4.48,4.318-8.954,6.959-14.423
					c-8.441,1.969-15.801,3.686-23.159,5.402c-0.079-0.321-0.157-0.644-0.235-0.965c7.102-1.657,14.206-3.314,21.311-4.972
					c0.08-0.395,0.166-0.784,0.249-1.179c-5.315-2.355-10.627-4.715-15.94-7.072C472.068,2.446,472.185,2.181,472.301,1.914z"/>
				<path fill-rule="evenodd" clip-rule="evenodd" fill="#D857A0" d="M533.068,45.454c-0.645-2.892,1.111-5.995,3.318-6.514
					c2.184-0.515,5.006,1.415,5.453,3.723c0.449,2.353-1.502,5.631-3.709,5.865C535.508,48.809,533.773,47.5,533.068,45.454z"/>
				<path fill-rule="evenodd" clip-rule="evenodd" fill="#D857A0" d="M469.118-46.358c0.634,2.408-1.02,5.492-3.285,6.126
					c-2.21,0.622-4.996-1.062-5.653-3.412c-0.644-2.323,1.176-5.411,3.525-5.969C465.894-50.137,468.545-48.542,469.118-46.358z"/>
				<path fill-rule="evenodd" clip-rule="evenodd" fill="#D857A0" d="M560.926-2.25c0.461,1.761-0.748,4.018-2.406,4.479
					c-1.617,0.456-3.652-0.774-4.133-2.496c-0.473-1.695,0.861-3.955,2.578-4.366C558.566-5.012,560.508-3.844,560.926-2.25z"/>
			</g>
			<g>
				<path fill="#D857A0" d="M316.442,123.619c0.032,0.495,0.347-0.897-0.174-1.366c-1.471-1.33-3.248-3.063-4.98-3.147
					c-1.397-0.066-3.776,1.845-4.094,3.244c-0.316,1.406,1.284,4.639,2.203,4.698c4.832,0.318,5.875,4.1,7.877,7.238
					c5.583,8.723,14.713,10.13,21.359,3.334c2.502-2.558,4.279-5.717,8.578-6.116c1.057-0.1,2.648-3.375,2.486-5.045
					c-0.138-1.395-2.471-3.588-3.834-3.591c-1.634-0.004-3.743,1.624-4.777,3.142c-1.349,1.979-1.513,4.742-2.771,6.816
					c-3.402,5.631-7.588,7.235-12.934,5.431C321.12,136.816,316.083,129.474,316.442,123.619z"/>
				<path fill="#D857A0" d="M380.362,143.167c-2.274,2.916-4.825,4.903-4.485,6.045c0.546,1.865,2.763,3.846,4.688,4.443
					c0.951,0.291,4.038-2.467,3.986-3.763C384.479,148.038,382.426,146.262,380.362,143.167z"/>
				<path fill="#D857A0" d="M334.333,116.253c-1.117-3.376-2.231-6.75-3.719-11.226C328.397,110.209,329.77,114.893,334.333,116.253
					z"/>
				<path fill="#D857A0" d="M324.821,118.247c0.869-0.221,1.75-0.44,2.621-0.66c-0.92-3.247-1.838-6.493-2.766-9.737
					c-0.786,0.213-1.576,0.431-2.365,0.646C323.149,111.746,323.987,114.998,324.821,118.247z"/>
				<path fill-rule="evenodd" clip-rule="evenodd" fill="#D857A0" d="M316.442,123.619c-0.359,5.855,4.678,13.197,8.94,14.638
					c5.346,1.805,9.531,0.2,12.934-5.431c1.258-2.074,1.422-4.837,2.771-6.816c1.034-1.518,3.144-3.146,4.777-3.142
					c1.363,0.003,3.696,2.196,3.834,3.591c0.162,1.67-1.43,4.945-2.486,5.045c-4.299,0.399-6.076,3.559-8.578,6.116
					c-6.646,6.796-15.776,5.389-21.359-3.334c-2.002-3.139-3.045-6.92-7.877-7.238c-0.919-0.06-2.52-3.292-2.203-4.698
					c0.317-1.399,2.696-3.311,4.094-3.244c1.732,0.084,3.51,1.817,4.98,3.147C316.789,122.721,316.474,124.114,316.442,123.619z"/>
				<path fill-rule="evenodd" clip-rule="evenodd" fill="#D857A0" d="M287.247,153.536c-3.109,2.177-4.896,4.409-6.496,4.28
					c-1.723-0.135-3.268-2.483-4.891-3.87c1.388-1.57,2.713-4.341,4.166-4.41C281.901,149.445,283.87,151.527,287.247,153.536z"/>
				<path fill-rule="evenodd" clip-rule="evenodd" fill="#D857A0" d="M380.362,143.167c2.064,3.095,4.117,4.87,4.189,6.726
					c0.052,1.296-3.035,4.054-3.986,3.763c-1.926-0.598-4.143-2.578-4.688-4.443C375.537,148.071,378.087,146.083,380.362,143.167z"
					/>
				<path fill-rule="evenodd" clip-rule="evenodd" fill="#D857A0" d="M334.333,116.253c-4.562-1.36-5.936-6.044-3.719-11.226
					C332.101,109.503,333.215,112.877,334.333,116.253z"/>
				<path fill-rule="evenodd" clip-rule="evenodd" fill="#D857A0" d="M324.821,118.247c-0.834-3.249-1.672-6.501-2.51-9.752
					c0.789-0.215,1.579-0.433,2.365-0.646c0.928,3.244,1.846,6.49,2.766,9.737C326.571,117.806,325.69,118.026,324.821,118.247z"/>
			</g>
			<g>
				<path fill="#D857A0" d="M574.768,197.187c0.031,0.495,0.346-0.897-0.174-1.366c-1.471-1.33-3.248-3.063-4.98-3.147
					c-1.398-0.066-3.777,1.845-4.094,3.244c-0.316,1.406,1.283,4.639,2.203,4.698c4.832,0.318,5.875,4.1,7.877,7.238
					c5.582,8.723,14.713,10.13,21.359,3.334c2.502-2.558,4.279-5.717,8.578-6.116c1.057-0.1,2.648-3.375,2.486-5.045
					c-0.139-1.395-2.471-3.588-3.834-3.591c-1.635-0.004-3.744,1.624-4.777,3.142c-1.35,1.979-1.514,4.742-2.771,6.816
					c-3.402,5.631-7.588,7.235-12.934,5.431C579.445,210.384,574.408,203.042,574.768,197.187z"/>
				<path fill="#D857A0" d="M592.658,189.822c-1.117-3.376-2.232-6.75-3.719-11.226
					C586.723,183.778,588.096,188.461,592.658,189.822z"/>
				<path fill="#D857A0" d="M583.146,191.815c0.869-0.221,1.75-0.44,2.621-0.66c-0.92-3.247-1.838-6.493-2.766-9.737
					c-0.787,0.213-1.576,0.431-2.365,0.646C581.475,185.314,582.312,188.566,583.146,191.815z"/>
				<path fill-rule="evenodd" clip-rule="evenodd" fill="#D857A0" d="M574.768,197.187c-0.359,5.855,4.678,13.197,8.939,14.638
					c5.346,1.805,9.531,0.2,12.934-5.431c1.258-2.074,1.422-4.837,2.771-6.816c1.033-1.518,3.143-3.146,4.777-3.142
					c1.363,0.003,3.695,2.196,3.834,3.591c0.162,1.67-1.43,4.945-2.486,5.045c-4.299,0.399-6.076,3.559-8.578,6.116
					c-6.646,6.796-15.777,5.389-21.359-3.334c-2.002-3.139-3.045-6.92-7.877-7.238c-0.92-0.06-2.52-3.292-2.203-4.698
					c0.316-1.399,2.695-3.311,4.094-3.244c1.732,0.084,3.51,1.817,4.98,3.147C575.113,196.29,574.799,197.682,574.768,197.187z"/>
				<path fill-rule="evenodd" clip-rule="evenodd" fill="#D857A0" d="M468.006,44.837c-3.109,2.177-4.896,4.409-6.496,4.28
					c-1.723-0.135-3.268-2.483-4.891-3.87c1.388-1.57,2.713-4.341,4.166-4.41C462.661,40.747,464.629,42.829,468.006,44.837z"/>
				<path fill-rule="evenodd" clip-rule="evenodd" fill="#D857A0" d="M608.197,14.742c2.064,3.095,4.117,4.87,4.189,6.726
					c0.051,1.296-3.035,4.054-3.986,3.763c-1.926-0.598-4.143-2.578-4.689-4.443C603.371,19.645,605.922,17.658,608.197,14.742z"/>
				<path fill-rule="evenodd" clip-rule="evenodd" fill="#D857A0" d="M592.658,189.822c-4.562-1.36-5.936-6.044-3.719-11.226
					C590.426,183.072,591.541,186.446,592.658,189.822z"/>
				<path fill-rule="evenodd" clip-rule="evenodd" fill="#D857A0" d="M583.146,191.815c-0.834-3.249-1.672-6.501-2.51-9.752
					c0.789-0.215,1.578-0.433,2.365-0.646c0.928,3.244,1.846,6.49,2.766,9.737C584.896,191.375,584.016,191.594,583.146,191.815z"/>
			</g>
			<g>
				<path fill="#D857A0" d="M393.537,94.389c0.05-3.734-2.564-7.393-5.388-7.541c-2.967-0.155-7.885,4.979-8.039,8.395
					c-0.147,3.185,2.537,5.804,6.016,5.879C390.299,101.213,393.484,98.32,393.537,94.389z"/>
				<path fill="#D857A0" d="M432.456,73.046c-3.161-0.156-5.971,2.242-6.178,5.27c-0.19,2.815,2.949,5.785,6.17,5.824
					c2.811,0.034,5.559-2.591,5.708-5.452C438.318,75.642,435.859,73.211,432.456,73.046z"/>
				<path fill="#D857A0" d="M413.035,125.732c-2.204-1.482-3.478-3.004-4.622-2.915c-1.113,0.083-2.101,1.818-3.139,2.831
					c1.068,1.05,2.039,2.771,3.235,2.94C409.577,128.742,410.886,127.177,413.035,125.732z"/>
				<path fill-rule="evenodd" clip-rule="evenodd" fill="#D857A0" d="M462.618,124.678c-5.186,2.194-10.154,4.458-15.257,6.353
					c-1.39,0.516-3.268,0.207-4.789-0.211c-5.155-1.408-6.909-7.008-2.858-10.373c3.174-2.633,7.314-4.121,11.096-5.975
					c1.08-0.526,2.412-0.547,4.113-0.898c-3.33-2.116-6.367-3.773-9.086-5.849c-2.381-1.813-4.592-3.931-6.533-6.208
					c-2.645-3.105-2.698-7.326-0.502-9.661c2.668-2.83,6.521-3.521,9.774-0.461c4.244,3.982,7.657,8.842,11.417,13.34
					c0.379,0.458,0.655,1.005,1.296,1.986c0.719-3.626,0.962-6.865,2.052-9.792c1.061-2.862,2.658-5.688,4.624-8.014
					c1.948-2.293,5.239-2.749,7.578-1.032c1.729,1.272,3.616,4.188,3.307,6.007c-0.841,4.917-2.813,9.641-4.187,13.953
					c1.942-0.473,5.025-1.389,8.172-1.955c4.308-0.777,7.527,0.905,8.607,4.183c1.059,3.225-0.529,6.775-4.592,8.405
					c-3.881,1.553-8.086,2.308-12.271,3.449c1.123,1.371,2.719,2.937,3.867,4.782c1.644,2.649,3.509,5.36,4.256,8.307
					c0.609,2.426,0.691,6.252-0.742,7.592c-1.678,1.574-5.349,1.809-7.975,1.418c-4.521-0.674-6.987-4.304-8.389-8.366
					C464.304,131.902,463.497,127.982,462.618,124.678z"/>
				<path fill-rule="evenodd" clip-rule="evenodd" fill="#D857A0" d="M393.537,94.389c-0.053,3.931-3.237,6.824-7.411,6.732
					c-3.479-0.075-6.163-2.694-6.016-5.879c0.154-3.415,5.072-8.55,8.039-8.395C390.972,86.997,393.586,90.655,393.537,94.389z"/>
				<path fill-rule="evenodd" clip-rule="evenodd" fill="#D857A0" d="M432.456,73.046c3.403,0.165,5.862,2.596,5.7,5.642
					c-0.149,2.861-2.897,5.486-5.708,5.452c-3.221-0.039-6.36-3.009-6.17-5.824C426.485,75.289,429.294,72.89,432.456,73.046z"/>
				<path fill-rule="evenodd" clip-rule="evenodd" fill="#D857A0" d="M413.035,125.732c-2.148,1.445-3.458,3.01-4.525,2.856
					c-1.196-0.17-2.167-1.891-3.235-2.94c1.038-1.013,2.025-2.748,3.139-2.831C409.557,122.728,410.831,124.25,413.035,125.732z"/>
			</g>
			<g>
				<path fill="#D857A0" d="M24.129,79.672c-0.462,0.779-1.138,1.799-1.685,2.884c-2.49,4.931-4.443,9.981-1.838,15.477
					c1.384,2.917,3.756,4.963,7.076,4.763c3.219-0.195,4.522-2.8,5.229-5.647c0.311-1.218,0.677-2.433,0.812-3.67
					c0.394-3.645,0.684-7.297,1.027-11.161c2.69,2.32,4.93,4.505,7.432,6.342c2.649,1.951,5.655,2.905,8.776,0.983
					c3.142-1.93,5.798-8.092,5.107-11.584c-0.712-3.607-3.293-5.333-6.602-5.813c-2.949-0.431-5.979-0.37-8.972-0.427
					c-1.445-0.029-2.897,0.164-4.753,0.28c0.72-2.94,1.734-5.343,1.802-7.768c0.104-3.947,0.06-8.017-0.794-11.839
					c-0.791-3.544-4.789-6.156-7.592-5.689c-3.508,0.581-5.495,3.175-6.23,6.346c-0.523,2.235-0.51,4.809,0.049,7.03
					c0.779,3.055,2.304,5.921,3.801,9.587c-1.952-1.061-3.273-1.981-4.736-2.537c-2.665-1.014-5.371-2.248-8.154-2.591
					c-3.844-0.47-6.438,2.995-5.078,6.662c0.639,1.74,2.027,3.764,3.605,4.489C15.985,77.42,19.894,78.325,24.129,79.672z"/>
				<path fill-rule="evenodd" clip-rule="evenodd" fill="#D857A0" d="M24.129,79.672c-4.235-1.348-8.145-2.252-11.718-3.884
					c-1.578-0.726-2.967-2.749-3.605-4.489c-1.359-3.667,1.234-7.132,5.078-6.662c2.783,0.343,5.489,1.577,8.154,2.591
					c1.463,0.556,2.784,1.477,4.736,2.537c-1.497-3.666-3.021-6.532-3.801-9.587c-0.559-2.222-0.572-4.795-0.049-7.03
					c0.735-3.171,2.723-5.765,6.23-6.346c2.803-0.467,6.801,2.146,7.592,5.689c0.854,3.822,0.898,7.892,0.794,11.839
					c-0.067,2.425-1.082,4.827-1.802,7.768c1.855-0.116,3.308-0.31,4.753-0.28c2.993,0.057,6.022-0.004,8.972,0.427
					c3.309,0.48,5.89,2.206,6.602,5.813c0.69,3.492-1.966,9.654-5.107,11.584c-3.121,1.922-6.127,0.968-8.776-0.983
					c-2.502-1.837-4.741-4.021-7.432-6.342c-0.344,3.864-0.634,7.517-1.027,11.161c-0.135,1.237-0.501,2.452-0.812,3.67
					c-0.706,2.848-2.01,5.452-5.229,5.647c-3.32,0.2-5.692-1.846-7.076-4.763c-2.605-5.495-0.652-10.546,1.838-15.477
					C22.992,81.471,23.667,80.452,24.129,79.672z M36.845,59.445c-0.92-2.583-1.523-5.445-2.955-7.808
					c-0.818-1.354-3.086-2.729-4.518-2.561c-1.421,0.164-3.307,2.049-3.761,3.55c-0.718,2.396-1.01,5.244-0.425,7.64
					c0.941,3.861,2.783,7.493,4.138,11.259c0.312,0.864,0.521,2.017,0.202,2.802c-0.979,2.386-2.047,4.771-3.412,6.946
					c-2.87,4.562-5.514,9.264-3.67,14.759c0.586,1.742,2.852,3.231,4.695,4.047c0.523,0.233,3.1-2.194,3.322-3.621
					c0.904-5.777,1.166-11.649,1.844-17.466c0.348-3.036,0.952-6.055,1.656-9.029C34.756,66.573,35.794,63.247,36.845,59.445z
					 M33.529,74.178c2.525,6.211,5.641,10.742,10.772,13.218c1.767,0.851,5.538,0.738,6.399-0.42
					c1.789-2.393,2.908-5.775,2.934-8.765c0.013-1.328-3.174-3.611-5.109-3.847C43.859,73.794,39.078,74.178,33.529,74.178z
					 M28.531,74.578c-4.291-3.416-8.379-6.542-13.8-7.08c-1.087-0.106-2.261,0.635-3.399,0.986c0.424,1.212,0.558,2.657,1.316,3.597
					C15.833,76,22.334,77.055,28.531,74.578z"/>
				<path fill-rule="evenodd" clip-rule="evenodd" fill="#D857A0" d="M36.845,59.445c-1.051,3.802-2.089,7.128-2.883,10.518
					c-0.704,2.975-1.309,5.993-1.656,9.029c-0.678,5.816-0.939,11.688-1.844,17.466c-0.223,1.427-2.799,3.854-3.322,3.621
					c-1.844-0.815-4.109-2.305-4.695-4.047c-1.844-5.495,0.8-10.197,3.67-14.759c1.365-2.175,2.434-4.561,3.412-6.946
					c0.319-0.785,0.109-1.938-0.202-2.802c-1.354-3.766-3.196-7.397-4.138-11.259c-0.585-2.396-0.293-5.244,0.425-7.64
					c0.454-1.501,2.34-3.386,3.761-3.55c1.432-0.169,3.699,1.207,4.518,2.561C35.322,54,35.925,56.862,36.845,59.445z"/>
				<path fill-rule="evenodd" clip-rule="evenodd" fill="#D857A0" d="M33.529,74.178c5.549,0,10.33-0.384,14.996,0.187
					c1.936,0.235,5.122,2.519,5.109,3.847c-0.025,2.989-1.145,6.372-2.934,8.765c-0.861,1.158-4.633,1.271-6.399,0.42
					C39.169,84.92,36.054,80.389,33.529,74.178z"/>
				<path fill-rule="evenodd" clip-rule="evenodd" fill="#D857A0" d="M28.531,74.578C22.334,77.055,15.833,76,12.648,72.081
					c-0.759-0.939-0.893-2.385-1.316-3.597c1.139-0.352,2.312-1.093,3.399-0.986C20.152,68.036,24.24,71.162,28.531,74.578z"/>
			</g>
			<g>
				<path fill-rule="evenodd" clip-rule="evenodd" fill="#D857A0" d="M115.39,77.738c-0.407-4.328-0.974-8.654-1.159-12.993
					c-0.098-2.342,0.025-4.879,0.849-7.02c0.618-1.605,2.454-3.701,3.868-3.794c1.666-0.114,4.231,1.275,5.045,2.761
					c1.834,3.362,3.613,7.099,4,10.828c0.805,7.818,1.164,15.754,0.826,23.6c-0.289,6.563-3.112,7.894-8.983,5.178
					c-11.063-5.112-20.823-12.072-29.059-21.101c-1.004-1.104-1.933-2.323-2.66-3.624C86.635,68.91,86,66.144,88.25,63.532
					c2.443-2.835,5.584-3.043,8.508-1.287c3.192,1.918,6.24,4.212,8.947,6.771c3.134,2.962,5.824,6.389,8.711,9.614
					C114.739,78.333,115.065,78.035,115.39,77.738z"/>
			</g>
			<g>
				<path fill="#D857A0" d="M494.621,74.234c-0.778,0.107-1.564,0.222-2.354,0.337c-0.747,6.612-1.377,13.335,3.604,19.015
					c2.998,3.427,7,4.793,11.597,3.007c6.859-2.669,11.92-6.962,13.23-14.722c-3.416,2.179-5.99,5.401-9.295,7.469
					c-2.857,1.785-6.963,3.712-9.717,2.889c-2.351-0.704-4.011-5.047-5.157-8.096C495.37,81.026,495.219,77.543,494.621,74.234z"/>
				<path fill="#D857A0" d="M512.465,77.84c4.777-2.663,6.705-8.802,5.184-16.469C513.371,64.464,510.697,72.97,512.465,77.84z"/>
				<path fill="#D857A0" d="M509.254,60.604c-5.375,1.609-9.395,7.343-8.466,10.62c0.18,0.657,0.968,1.66,1.417,1.631
					c1.061-0.08,2.709-0.413,3.012-1.117C506.674,68.375,507.762,64.86,509.254,60.604z"/>
				<path fill-rule="evenodd" clip-rule="evenodd" fill="#D857A0" d="M494.621,74.234c0.599,3.31,0.749,6.792,1.908,9.898
					c1.146,3.049,2.806,7.392,5.157,8.096c2.754,0.823,6.859-1.104,9.717-2.889c3.305-2.067,5.879-5.29,9.295-7.469
					c-1.311,7.76-6.371,12.053-13.23,14.722c-4.598,1.786-8.599,0.42-11.597-3.007c-4.98-5.68-4.351-12.402-3.604-19.015
					C493.056,74.456,493.842,74.341,494.621,74.234z"/>
				<path fill-rule="evenodd" clip-rule="evenodd" fill="#D857A0" d="M512.465,77.84c-1.768-4.87,0.906-13.376,5.184-16.469
					C519.17,69.039,517.242,75.177,512.465,77.84z"/>
				<path fill-rule="evenodd" clip-rule="evenodd" fill="#D857A0" d="M509.254,60.604c-1.492,4.256-2.58,7.771-4.037,11.134
					c-0.303,0.704-1.951,1.037-3.012,1.117c-0.449,0.029-1.238-0.974-1.417-1.631C499.859,67.947,503.879,62.213,509.254,60.604z"/>
			</g>
			<g>
				<path fill="#D857A0" d="M397.474,36.389c-0.49,0.615-0.981,1.239-1.475,1.867c4.02,5.307,8.199,10.613,15.729,11.297
					c4.537,0.418,8.381-1.35,10.482-5.812c3.133-6.661,3.84-13.259-0.562-19.786c-0.975,3.934-0.618,8.043-1.587,11.818
					c-0.842,3.263-2.489,7.488-5.053,8.788c-2.191,1.11-6.391-0.893-9.324-2.312C402.703,40.795,400.191,38.375,397.474,36.389z"/>
				<path fill="#D857A0" d="M412.9,26.707c1.627-5.221-1.209-10.999-7.602-15.507C404.331,16.389,408.259,24.395,412.9,26.707z"/>
				<path fill="#D857A0" d="M398.683,16.428c-2.787,4.87-1.748,11.796,1.186,13.531c0.584,0.352,1.848,0.535,2.152,0.205
					c0.715-0.79,1.681-2.167,1.414-2.886C402.172,23.838,400.537,20.541,398.683,16.428z"/>
				<path fill-rule="evenodd" clip-rule="evenodd" fill="#D857A0" d="M397.474,36.389c2.717,1.986,5.229,4.406,8.211,5.859
					c2.934,1.42,7.133,3.423,9.324,2.312c2.563-1.3,4.211-5.525,5.053-8.788c0.969-3.775,0.612-7.885,1.587-11.818
					c4.401,6.527,3.694,13.125,0.562,19.786c-2.102,4.463-5.945,6.23-10.482,5.812c-7.529-0.684-11.709-5.99-15.729-11.297
					C396.493,37.628,396.984,37.004,397.474,36.389z"/>
				<path fill-rule="evenodd" clip-rule="evenodd" fill="#D857A0" d="M412.9,26.707c-4.641-2.312-8.569-10.317-7.602-15.507
					C411.691,15.708,414.527,21.486,412.9,26.707z"/>
				<path fill-rule="evenodd" clip-rule="evenodd" fill="#D857A0" d="M398.683,16.428c1.854,4.112,3.489,7.41,4.752,10.851
					c0.267,0.719-0.699,2.096-1.414,2.886c-0.305,0.33-1.568,0.146-2.152-0.205C396.935,28.224,395.896,21.298,398.683,16.428z"/>
			</g>
			<path fill-rule="evenodd" clip-rule="evenodd" fill="#D857A0" d="M222.33,17.126c-2.713-3.094-4.764-5.279-6.629-7.612
				c-1.293-1.631-2.445-3.4-3.457-5.219c-1.135-2.038-2.233-4.293-0.225-6.379c1.731-1.795,5.584-1.795,7.58,0.573
				c2.877,3.416,5.213,7.311,7.572,11.127c1.13,1.833,1.773,3.955,2.93,6.623c0.758-4.281,1.248-7.879,2.068-11.396
				c0.494-2.125,1.328-4.214,2.314-6.16c1.32-2.607,3.535-4.196,6.553-3.384c2.883,0.774,3.338,3.416,3.279,5.899
				c-0.189,7.599-3.029,14.184-8.295,20.136c2.07,0.351,4.111,0.437,5.961,1.077c2.709,0.933,5.516,1.93,7.86,3.514
				c3.319,2.235,3.108,5.359-0.507,6.993c-1.933,0.875-4.695,1.241-6.615,0.545c-3.863-1.389-7.406-3.667-11.342-5.716
				c0.354,2.033,0.977,4.099,1.018,6.169c0.083,4.27,0.094,8.566-0.324,12.802c-0.291,2.964-2.074,5.33-5.369,5.421
				c-3.297,0.099-4.85-2.349-5.078-5.161c-0.52-6.31-0.635-12.65-0.885-18.204c-4.564,1.522-9.658,3.598-14.949,4.819
				c-2.92,0.678-6.201,0.121-9.27-0.262c-3.737-0.458-5.521-3.011-6.09-6.613c-0.565-3.552,1.21-5.799,4.075-7.333
				c7.425-3.962,15.398-3.871,23.455-2.94C219.089,16.576,220.21,16.789,222.33,17.126z"/>
			<g>
				<path fill="#D857A0" d="M11.46,158.017c-0.094,0.318-0.186,0.639-0.277,0.96c7.149,3.112,14.939,4.12,22.416,6.158
					c7.523,2.052,15.084,3.964,22.891,6.009c-0.117-0.711-0.105-1.176-0.211-1.203C41.343,165.945,26.404,161.982,11.46,158.017z"/>
				<path fill="#D857A0" d="M16.931,163.759c12.604,3.592,25.153,7.459,38.045,9.988C42.568,169.381,29.884,166.093,16.931,163.759z
					"/>
				<path fill="#D857A0" d="M39.726,158.763c0.014-0.273,0.023-0.545,0.037-0.818c-12.45-2.897-24.899-5.799-37.35-8.702
					c-0.086,0.228-0.172,0.452-0.258,0.679c0.752,0.334,1.474,0.795,2.259,0.98c11.065,2.653,22.133,5.275,33.21,7.874
					C38.29,158.928,39.027,158.776,39.726,158.763z"/>
				<path fill="#D857A0" d="M5.654,153.503c-0.082,0.118-0.164,0.234-0.244,0.354c0.87,0.55,1.67,1.383,2.613,1.609
					c8.738,2.118,17.498,4.146,26.264,6.143c0.658,0.15,1.41-0.125,2.119-0.208c-0.011-0.216-0.021-0.431-0.035-0.646
					C26.128,158.34,15.892,155.922,5.654,153.503z"/>
				<path fill="#D857A0" d="M27.552,171.561c-0.84-2.243-16.971-6.537-19.674-5.243C14.553,168.094,20.976,169.806,27.552,171.561z"
					/>
				<path fill="#D857A0" d="M52.367,140.358c0.156-0.194,0.311-0.387,0.461-0.581c-0.346-0.381-0.629-0.979-1.057-1.111
					c-4.94-1.514-9.896-2.987-14.868-4.399c-0.601-0.169-1.32,0.074-1.985,0.128c0.038,0.126,0.076,0.257,0.117,0.387
					C40.814,136.639,46.589,138.5,52.367,140.358z"/>
				<path fill="#D857A0" d="M21.378,150.482c-6.754-2.751-13.918-3.946-20.926-5.749c-0.094,0.361-0.191,0.718-0.285,1.077
					C7.174,147.612,14.234,149.2,21.378,150.482z"/>
				<path fill="#D857A0" d="M30.121,141.609c5.697,1.567,11.129,3.062,16.553,4.55c0.612,0.169,1.227,0.391,1.852,0.436
					c0.469,0.031,0.955-0.173,1.966-0.385C43.978,143.376,31.409,140.446,30.121,141.609z"/>
				<path fill="#D857A0" d="M32.287,137.757c0.02,0.191,0.042,0.382,0.062,0.571c6.377,1.667,12.754,3.335,19.131,5.002
					c0.08-0.211,0.155-0.426,0.235-0.639c-0.282-0.237-0.53-0.604-0.853-0.69c-5.654-1.551-11.311-3.079-16.984-4.556
					C33.408,137.325,32.82,137.644,32.287,137.757z"/>
				<path fill="#D857A0" d="M47.286,150.53c0.046-0.304,0.095-0.608,0.144-0.912c-6.098-1.428-12.191-2.867-18.299-4.247
					c-0.319-0.069-0.75,0.369-1.564,0.805C34.548,147.773,40.827,149.621,47.286,150.53z"/>
				<path fill="#D857A0" d="M22.736,184.234c1.23,2.357,13.762,5.381,16.085,3.911C33.406,186.829,28.226,185.571,22.736,184.234z"
					/>
				<path fill="#D857A0" d="M18.31,172.225c-0.037-0.221-0.072-0.438-0.109-0.657c-4.601-1.122-9.194-2.264-13.809-3.332
					c-0.472-0.112-1.047,0.21-1.574,0.33c0.01,0.191,0.018,0.38,0.029,0.567c4.629,1.191,9.254,2.403,13.898,3.534
					C17.208,172.779,17.787,172.383,18.31,172.225z"/>
				<path fill="#D857A0" d="M45.369,152.751c-0.033-0.152-0.069-0.303-0.105-0.453c-5.767-1.217-11.528-2.442-17.305-3.614
					c-0.307-0.062-0.707,0.353-1.062,0.542c5.812,1.64,11.445,2.84,17.089,3.976C44.401,153.285,44.907,152.913,45.369,152.751z"/>
				<path fill="#D857A0" d="M18.576,147.992c0.088-0.293,0.178-0.585,0.266-0.881c-5.773-2.602-12.145-3.249-18.113-5.208
					c-0.098,0.317-0.191,0.63-0.287,0.944C6.485,144.562,12.533,146.279,18.576,147.992z"/>
				<path fill="#D857A0" d="M49.316,175.862c-6.594-1.693-13.188-3.38-19.779-5.069C35.789,173.784,42.333,175.632,49.316,175.862z"
					/>
				<path fill="#D857A0" d="M14.939,175.124c0.025-0.301,0.054-0.603,0.083-0.908c-4.589-1.044-9.177-2.109-13.776-3.097
					c-0.283-0.064-0.698,0.464-1.543,1.069C5.232,173.285,9.978,174.835,14.939,175.124z"/>
				<path fill="#D857A0" d="M21.132,179.411c-0.104,0.343-0.211,0.686-0.316,1.022c5.391,1.353,10.783,2.709,16.178,4.062
					c0.082-0.29,0.163-0.581,0.244-0.872C31.984,181.812,26.505,180.803,21.132,179.411z"/>
				<path fill="#D857A0" d="M37.236,132.472c5.442,1.442,10.552,2.799,15.656,4.152c0.049-0.181,0.097-0.362,0.141-0.544
					C50.965,134.605,38.759,131.532,37.236,132.472z"/>
				<path fill="#D857A0" d="M19.787,175.111c0.541,1.663,8.76,4.067,14.727,4.419C30.037,177.041,24.831,176.928,19.787,175.111z"/>
				<path fill="#D857A0" d="M26.794,150.641c-0.112,0.249-0.227,0.495-0.338,0.743c0.305,0.884,0.299,0.898,4.862,2.218
					c1.896,0.552,3.804,1.068,5.722,1.541c1.727,0.422,3.471,0.762,5.207,1.14c-0.006-0.028-0.016-0.066-0.023-0.1
					C37.082,154.338,31.937,152.487,26.794,150.641z"/>
				<path fill="#D857A0" d="M19.605,172.136c0.633,1.587,9.596,4.193,12.41,3.712C28.141,174.14,24.021,173.249,19.605,172.136z"/>
				<path fill="#D857A0" d="M-0.569,174.675c1.258,2.013,9.644,3.626,11.815,2.263C7.248,176.173,3.548,175.468-0.569,174.675z"/>
				<path fill="#D857A0" d="M67.668,178.605c-1.578-0.159-2.878-0.668-3.36-0.244c-0.637,0.562-1.113,2.1-0.773,2.75
					c0.336,0.63,2.053,1.164,2.686,0.831C66.908,181.579,67.046,180.172,67.668,178.605z"/>
				<path fill="#D857A0" d="M2.894,139.16c-0.033,0.257-0.066,0.514-0.097,0.772c3.187,0.815,6.373,1.633,9.562,2.451
					C9.582,139.827,6.33,139.139,2.894,139.16z"/>
				<path fill="#D857A0" d="M25.428,188.935c1.142,1.934,6.013,3.191,8.052,1.928C30.663,190.191,28.113,189.579,25.428,188.935z"/>
				<path fill="#D857A0" d="M49.47,130.862c0.084-0.226,0.174-0.455,0.256-0.682c-2.035-0.532-4.067-1.062-6.104-1.594
					c-0.064,0.237-0.122,0.474-0.185,0.711C45.449,129.823,47.458,130.344,49.47,130.862z"/>
				<path fill-rule="evenodd" clip-rule="evenodd" fill="#D857A0" d="M11.46,158.017c14.943,3.965,29.883,7.928,44.818,11.924
					c0.105,0.027,0.094,0.492,0.211,1.203c-7.807-2.045-15.367-3.957-22.891-6.009c-7.477-2.038-15.267-3.046-22.416-6.158
					C11.275,158.656,11.367,158.335,11.46,158.017z"/>
				<path fill-rule="evenodd" clip-rule="evenodd" fill="#D857A0" d="M16.931,163.759c12.953,2.334,25.637,5.622,38.045,9.988
					C42.084,171.218,29.535,167.351,16.931,163.759z"/>
				<path fill-rule="evenodd" clip-rule="evenodd" fill="#D857A0" d="M39.726,158.763c-0.699,0.013-1.437,0.165-2.102,0.013
					c-11.077-2.599-22.145-5.221-33.21-7.874c-0.785-0.186-1.507-0.646-2.259-0.98c0.086-0.227,0.172-0.451,0.258-0.679
					c12.45,2.903,24.899,5.805,37.35,8.702C39.75,158.218,39.74,158.49,39.726,158.763z"/>
				<path fill-rule="evenodd" clip-rule="evenodd" fill="#D857A0" d="M5.654,153.503c10.238,2.419,20.475,4.837,30.717,7.251
					c0.014,0.216,0.024,0.431,0.035,0.646c-0.709,0.083-1.461,0.358-2.119,0.208c-8.766-1.997-17.525-4.024-26.264-6.143
					c-0.943-0.227-1.743-1.06-2.613-1.609C5.49,153.738,5.572,153.622,5.654,153.503z"/>
				<path fill-rule="evenodd" clip-rule="evenodd" fill="#D857A0" d="M27.552,171.561c-6.576-1.755-12.999-3.467-19.674-5.243
					C10.582,165.024,26.712,169.318,27.552,171.561z"/>
				<path fill-rule="evenodd" clip-rule="evenodd" fill="#D857A0" d="M52.367,140.358c-5.777-1.858-11.553-3.719-17.332-5.577
					c-0.041-0.13-0.079-0.261-0.117-0.387c0.665-0.054,1.385-0.297,1.985-0.128c4.972,1.412,9.928,2.886,14.868,4.399
					c0.428,0.132,0.711,0.73,1.057,1.111C52.677,139.971,52.523,140.164,52.367,140.358z"/>
				<path fill-rule="evenodd" clip-rule="evenodd" fill="#D857A0" d="M21.378,150.482c-7.145-1.282-14.204-2.87-21.211-4.672
					c0.094-0.359,0.191-0.716,0.285-1.077C7.46,146.536,14.625,147.731,21.378,150.482z"/>
				<path fill-rule="evenodd" clip-rule="evenodd" fill="#D857A0" d="M30.121,141.609c1.288-1.163,13.857,1.768,20.37,4.601
					c-1.011,0.212-1.497,0.416-1.966,0.385c-0.625-0.045-1.239-0.267-1.852-0.436C41.25,144.67,35.818,143.176,30.121,141.609z"/>
				<path fill-rule="evenodd" clip-rule="evenodd" fill="#D857A0" d="M32.287,137.757c0.533-0.113,1.121-0.433,1.592-0.312
					c5.674,1.477,11.33,3.005,16.984,4.556c0.322,0.086,0.57,0.453,0.853,0.69c-0.08,0.213-0.155,0.428-0.235,0.639
					c-6.377-1.667-12.754-3.335-19.131-5.002C32.329,138.139,32.306,137.949,32.287,137.757z"/>
				<path fill-rule="evenodd" clip-rule="evenodd" fill="#D857A0" d="M47.286,150.53c-6.459-0.909-12.737-2.757-19.72-4.354
					c0.814-0.436,1.245-0.874,1.564-0.805c6.107,1.38,12.201,2.819,18.299,4.247C47.38,149.921,47.332,150.226,47.286,150.53z"/>
				<path fill-rule="evenodd" clip-rule="evenodd" fill="#D857A0" d="M22.736,184.234c5.49,1.337,10.67,2.595,16.085,3.911
					C36.498,189.615,23.966,186.591,22.736,184.234z"/>
				<path fill-rule="evenodd" clip-rule="evenodd" fill="#D857A0" d="M18.31,172.225c-0.523,0.158-1.103,0.554-1.564,0.442
					c-4.645-1.131-9.27-2.343-13.898-3.534c-0.012-0.188-0.02-0.376-0.029-0.567c0.527-0.12,1.103-0.442,1.574-0.33
					c4.614,1.068,9.208,2.21,13.809,3.332C18.238,171.787,18.273,172.004,18.31,172.225z"/>
				<path fill-rule="evenodd" clip-rule="evenodd" fill="#D857A0" d="M45.369,152.751c-0.462,0.161-0.968,0.533-1.383,0.45
					c-5.644-1.136-11.277-2.336-17.089-3.976c0.354-0.189,0.755-0.604,1.062-0.542c5.776,1.172,11.538,2.397,17.305,3.614
					C45.299,152.449,45.335,152.599,45.369,152.751z"/>
				<path fill-rule="evenodd" clip-rule="evenodd" fill="#D857A0" d="M18.576,147.992c-6.043-1.713-12.091-3.43-18.135-5.145
					c0.096-0.314,0.189-0.627,0.287-0.944c5.969,1.959,12.34,2.606,18.113,5.208C18.753,147.407,18.664,147.699,18.576,147.992z"/>
				<path fill-rule="evenodd" clip-rule="evenodd" fill="#D857A0" d="M49.316,175.862c-6.983-0.229-13.527-2.078-19.779-5.069
					C36.127,172.482,42.722,174.168,49.316,175.862z"/>
				<path fill-rule="evenodd" clip-rule="evenodd" fill="#D857A0" d="M14.939,175.124c-4.961-0.288-9.707-1.839-15.236-2.936
					c0.845-0.605,1.26-1.134,1.543-1.069c4.6,0.987,9.188,2.053,13.776,3.097C14.993,174.521,14.964,174.823,14.939,175.124z"/>
				<path fill-rule="evenodd" clip-rule="evenodd" fill="#D857A0" d="M21.132,179.411c5.373,1.393,10.852,2.401,16.105,4.213
					c-0.081,0.291-0.162,0.582-0.244,0.872c-5.395-1.354-10.787-2.71-16.178-4.062C20.921,180.096,21.029,179.753,21.132,179.411z"
					/>
				<path fill-rule="evenodd" clip-rule="evenodd" fill="#D857A0" d="M37.236,132.472c1.523-0.94,13.729,2.133,15.797,3.608
					c-0.044,0.182-0.092,0.363-0.141,0.544C47.788,135.271,42.678,133.915,37.236,132.472z"/>
				<path fill-rule="evenodd" clip-rule="evenodd" fill="#D857A0" d="M19.787,175.111c5.044,1.817,10.25,1.93,14.727,4.419
					C28.546,179.178,20.328,176.774,19.787,175.111z"/>
				<path fill-rule="evenodd" clip-rule="evenodd" fill="#D857A0" d="M26.794,150.641c5.143,1.846,10.287,3.697,15.43,5.542
					c0.008,0.033,0.018,0.071,0.023,0.1c-1.736-0.378-3.48-0.718-5.207-1.14c-1.918-0.473-3.826-0.989-5.722-1.541
					c-4.563-1.319-4.558-1.334-4.862-2.218C26.568,151.136,26.682,150.89,26.794,150.641z"/>
				<path fill-rule="evenodd" clip-rule="evenodd" fill="#D857A0" d="M19.605,172.136c4.416,1.112,8.536,2.004,12.41,3.712
					C29.201,176.33,20.238,173.723,19.605,172.136z"/>
				<path fill-rule="evenodd" clip-rule="evenodd" fill="#D857A0" d="M-0.569,174.675c4.117,0.793,7.816,1.498,11.815,2.263
					C9.075,178.301,0.689,176.688-0.569,174.675z"/>
				<path fill-rule="evenodd" clip-rule="evenodd" fill="#D857A0" d="M67.668,178.605c-0.622,1.567-0.761,2.974-1.448,3.337
					c-0.633,0.333-2.35-0.201-2.686-0.831c-0.34-0.65,0.137-2.188,0.773-2.75C64.791,177.937,66.09,178.446,67.668,178.605z"/>
				<path fill-rule="evenodd" clip-rule="evenodd" fill="#D857A0" d="M2.894,139.16c3.436-0.021,6.688,0.667,9.465,3.224
					c-3.188-0.818-6.375-1.636-9.562-2.451C2.828,139.673,2.861,139.417,2.894,139.16z"/>
				<path fill-rule="evenodd" clip-rule="evenodd" fill="#D857A0" d="M25.428,188.935c2.685,0.644,5.234,1.256,8.052,1.928
					C31.441,192.126,26.57,190.869,25.428,188.935z"/>
				<path fill-rule="evenodd" clip-rule="evenodd" fill="#D857A0" d="M49.47,130.862c-2.012-0.518-4.021-1.039-6.032-1.564
					c0.062-0.237,0.12-0.474,0.185-0.711c2.036,0.531,4.068,1.062,6.104,1.594C49.644,130.407,49.554,130.636,49.47,130.862z"/>
			</g>
			<g>
				<path fill="#D857A0" d="M585.945,62.247c-0.094,0.318-0.186,0.639-0.277,0.96c7.148,3.112,14.939,4.12,22.416,6.158
					c7.523,2.052,15.084,3.964,22.891,6.009c-0.117-0.711-0.105-1.176-0.211-1.203C615.828,70.174,600.889,66.211,585.945,62.247z"
					/>
				<path fill="#D857A0" d="M591.416,67.989c12.604,3.592,25.152,7.459,38.045,9.988C617.053,73.611,604.369,70.323,591.416,67.989z
					"/>
				<path fill="#D857A0" d="M614.211,62.993c0.014-0.273,0.023-0.545,0.037-0.818c-12.451-2.897-24.9-5.799-37.35-8.702
					c-0.086,0.228-0.172,0.452-0.258,0.679c0.752,0.334,1.473,0.795,2.258,0.98c11.066,2.653,22.133,5.275,33.211,7.874
					C612.773,63.158,613.512,63.005,614.211,62.993z"/>
				<path fill="#D857A0" d="M580.139,57.733c-0.082,0.118-0.164,0.234-0.244,0.354c0.869,0.55,1.67,1.383,2.613,1.609
					c8.738,2.118,17.498,4.146,26.264,6.143c0.658,0.15,1.41-0.125,2.119-0.208c-0.012-0.216-0.021-0.431-0.035-0.646
					C600.613,62.57,590.377,60.152,580.139,57.733z"/>
				<path fill="#D857A0" d="M602.037,75.791c-0.84-2.243-16.971-6.537-19.674-5.243C589.037,72.324,595.461,74.036,602.037,75.791z"
					/>
				<path fill="#D857A0" d="M626.852,44.587c0.156-0.194,0.311-0.387,0.461-0.581c-0.346-0.381-0.629-0.979-1.057-1.111
					c-4.941-1.514-9.896-2.987-14.869-4.399c-0.6-0.169-1.32,0.074-1.984,0.128c0.037,0.126,0.076,0.257,0.117,0.387
					C615.299,40.869,621.074,42.729,626.852,44.587z"/>
				<path fill="#D857A0" d="M595.863,54.711c-6.754-2.751-13.918-3.946-20.926-5.749c-0.094,0.361-0.191,0.718-0.285,1.077
					C581.658,51.841,588.719,53.429,595.863,54.711z"/>
				<path fill="#D857A0" d="M604.605,45.838c5.697,1.567,11.129,3.062,16.553,4.55c0.611,0.169,1.227,0.391,1.852,0.436
					c0.469,0.031,0.955-0.173,1.965-0.385C618.463,47.606,605.893,44.675,604.605,45.838z"/>
				<path fill="#D857A0" d="M606.771,41.987c0.02,0.191,0.041,0.382,0.062,0.571c6.377,1.667,12.754,3.335,19.131,5.002
					c0.08-0.211,0.154-0.426,0.234-0.639c-0.281-0.237-0.529-0.604-0.852-0.69c-5.654-1.551-11.311-3.079-16.984-4.556
					C607.893,41.554,607.305,41.874,606.771,41.987z"/>
				<path fill="#D857A0" d="M621.77,54.759c0.047-0.304,0.096-0.608,0.145-0.912c-6.098-1.428-12.191-2.867-18.299-4.247
					c-0.32-0.069-0.75,0.369-1.564,0.805C609.033,52.002,615.311,53.85,621.77,54.759z"/>
				<path fill="#D857A0" d="M597.221,88.463c1.23,2.357,13.762,5.381,16.084,3.911C607.891,91.058,602.711,89.8,597.221,88.463z"/>
				<path fill="#D857A0" d="M592.795,76.455c-0.037-0.221-0.072-0.438-0.109-0.657c-4.602-1.122-9.195-2.264-13.809-3.332
					c-0.473-0.112-1.047,0.21-1.574,0.33c0.01,0.191,0.018,0.38,0.029,0.567c4.629,1.191,9.254,2.403,13.898,3.534
					C591.691,77.008,592.271,76.613,592.795,76.455z"/>
				<path fill="#D857A0" d="M619.854,56.981c-0.033-0.152-0.07-0.303-0.105-0.453c-5.768-1.217-11.529-2.442-17.305-3.614
					c-0.307-0.062-0.707,0.353-1.062,0.542c5.812,1.64,11.445,2.84,17.09,3.976C618.885,57.514,619.391,57.142,619.854,56.981z"/>
				<path fill="#D857A0" d="M593.061,52.221c0.088-0.293,0.178-0.585,0.266-0.881c-5.773-2.602-12.145-3.249-18.113-5.208
					c-0.098,0.317-0.191,0.63-0.287,0.944C580.969,48.792,587.018,50.508,593.061,52.221z"/>
				<path fill="#D857A0" d="M623.801,80.091c-6.594-1.693-13.189-3.38-19.779-5.069C610.273,78.013,616.816,79.862,623.801,80.091z"
					/>
				<path fill="#D857A0" d="M589.424,79.353c0.025-0.301,0.053-0.603,0.082-0.908c-4.588-1.044-9.176-2.109-13.775-3.097
					c-0.283-0.064-0.699,0.464-1.543,1.069C579.717,77.514,584.463,79.065,589.424,79.353z"/>
				<path fill="#D857A0" d="M595.617,83.64c-0.104,0.343-0.211,0.686-0.316,1.022c5.391,1.353,10.783,2.709,16.178,4.062
					c0.082-0.29,0.162-0.581,0.244-0.872C606.469,86.042,600.99,85.033,595.617,83.64z"/>
				<path fill="#D857A0" d="M611.721,36.702c5.441,1.442,10.551,2.799,15.656,4.152c0.049-0.181,0.096-0.362,0.141-0.544
					C625.449,38.834,613.244,35.761,611.721,36.702z"/>
				<path fill="#D857A0" d="M594.271,79.34c0.541,1.663,8.76,4.067,14.727,4.419C604.521,81.27,599.314,81.158,594.271,79.34z"/>
				<path fill="#D857A0" d="M601.279,54.871c-0.113,0.249-0.227,0.495-0.338,0.743c0.305,0.884,0.299,0.898,4.861,2.218
					c1.896,0.552,3.805,1.068,5.723,1.541c1.727,0.422,3.471,0.762,5.207,1.14c-0.006-0.028-0.016-0.066-0.023-0.1
					C611.566,58.568,606.422,56.716,601.279,54.871z"/>
				<path fill="#D857A0" d="M594.09,76.366c0.633,1.587,9.596,4.193,12.41,3.712C602.625,78.37,598.506,77.478,594.09,76.366z"/>
				<path fill="#D857A0" d="M573.916,78.905c1.258,2.013,9.643,3.626,11.814,2.263C581.732,80.403,578.033,79.698,573.916,78.905z"
					/>
				<path fill="#D857A0" d="M642.152,82.834c-1.578-0.159-2.877-0.668-3.359-0.244c-0.637,0.562-1.113,2.1-0.773,2.75
					c0.336,0.63,2.053,1.164,2.686,0.831C641.393,85.808,641.531,84.402,642.152,82.834z"/>
				<path fill="#D857A0" d="M577.379,43.389c-0.033,0.257-0.066,0.514-0.098,0.772c3.188,0.815,6.373,1.633,9.562,2.451
					C584.066,44.056,580.814,43.369,577.379,43.389z"/>
				<path fill="#D857A0" d="M599.912,93.165c1.143,1.934,6.014,3.191,8.053,1.928C605.146,94.42,602.598,93.808,599.912,93.165z"/>
				<path fill="#D857A0" d="M623.955,35.091c0.084-0.226,0.174-0.455,0.256-0.682c-2.035-0.532-4.068-1.062-6.104-1.594
					c-0.064,0.237-0.123,0.474-0.186,0.711C619.934,34.052,621.943,34.574,623.955,35.091z"/>
				<path fill-rule="evenodd" clip-rule="evenodd" fill="#D857A0" d="M585.945,62.247c14.943,3.965,29.883,7.928,44.818,11.924
					c0.105,0.027,0.094,0.492,0.211,1.203c-7.807-2.045-15.367-3.957-22.891-6.009c-7.477-2.038-15.268-3.046-22.416-6.158
					C585.76,62.885,585.852,62.565,585.945,62.247z"/>
				<path fill-rule="evenodd" clip-rule="evenodd" fill="#D857A0" d="M591.416,67.989c12.953,2.334,25.637,5.622,38.045,9.988
					C616.568,75.448,604.02,71.581,591.416,67.989z"/>
				<path fill-rule="evenodd" clip-rule="evenodd" fill="#D857A0" d="M614.211,62.993c-0.699,0.013-1.438,0.165-2.102,0.013
					c-11.078-2.599-22.145-5.221-33.211-7.874c-0.785-0.186-1.506-0.646-2.258-0.98c0.086-0.227,0.172-0.451,0.258-0.679
					c12.449,2.903,24.898,5.805,37.35,8.702C614.234,62.448,614.225,62.719,614.211,62.993z"/>
				<path fill-rule="evenodd" clip-rule="evenodd" fill="#D857A0" d="M580.139,57.733c10.238,2.419,20.475,4.837,30.717,7.251
					c0.014,0.216,0.023,0.431,0.035,0.646c-0.709,0.083-1.461,0.358-2.119,0.208c-8.766-1.997-17.525-4.024-26.264-6.143
					c-0.943-0.227-1.744-1.06-2.613-1.609C579.975,57.967,580.057,57.851,580.139,57.733z"/>
				<path fill-rule="evenodd" clip-rule="evenodd" fill="#D857A0" d="M602.037,75.791c-6.576-1.755-13-3.467-19.674-5.243
					C585.066,69.253,601.197,73.547,602.037,75.791z"/>
				<path fill-rule="evenodd" clip-rule="evenodd" fill="#D857A0" d="M626.852,44.587c-5.777-1.858-11.553-3.719-17.332-5.577
					c-0.041-0.13-0.08-0.261-0.117-0.387c0.664-0.054,1.385-0.297,1.984-0.128c4.973,1.412,9.928,2.886,14.869,4.399
					c0.428,0.132,0.711,0.73,1.057,1.111C627.162,44.201,627.008,44.393,626.852,44.587z"/>
				<path fill-rule="evenodd" clip-rule="evenodd" fill="#D857A0" d="M595.863,54.711c-7.145-1.282-14.205-2.87-21.211-4.672
					c0.094-0.359,0.191-0.716,0.285-1.077C581.945,50.765,589.109,51.96,595.863,54.711z"/>
				<path fill-rule="evenodd" clip-rule="evenodd" fill="#D857A0" d="M604.605,45.838c1.287-1.163,13.857,1.768,20.369,4.601
					c-1.01,0.212-1.496,0.416-1.965,0.385c-0.625-0.045-1.24-0.267-1.852-0.436C615.734,48.9,610.303,47.406,604.605,45.838z"/>
				<path fill-rule="evenodd" clip-rule="evenodd" fill="#D857A0" d="M606.771,41.987c0.533-0.113,1.121-0.433,1.592-0.312
					c5.674,1.477,11.33,3.005,16.984,4.556c0.322,0.086,0.57,0.453,0.852,0.69c-0.08,0.213-0.154,0.428-0.234,0.639
					c-6.377-1.667-12.754-3.335-19.131-5.002C606.812,42.369,606.791,42.178,606.771,41.987z"/>
				<path fill-rule="evenodd" clip-rule="evenodd" fill="#D857A0" d="M621.77,54.759c-6.459-0.909-12.736-2.757-19.719-4.354
					c0.814-0.436,1.244-0.874,1.564-0.805c6.107,1.38,12.201,2.819,18.299,4.247C621.865,54.151,621.816,54.456,621.77,54.759z"/>
				<path fill-rule="evenodd" clip-rule="evenodd" fill="#D857A0" d="M597.221,88.463c5.49,1.337,10.67,2.595,16.084,3.911
					C610.982,93.844,598.451,90.821,597.221,88.463z"/>
				<path fill-rule="evenodd" clip-rule="evenodd" fill="#D857A0" d="M592.795,76.455c-0.523,0.158-1.104,0.554-1.564,0.442
					c-4.645-1.131-9.27-2.343-13.898-3.534c-0.012-0.188-0.02-0.376-0.029-0.567c0.527-0.12,1.102-0.442,1.574-0.33
					c4.613,1.068,9.207,2.21,13.809,3.332C592.723,76.016,592.758,76.234,592.795,76.455z"/>
				<path fill-rule="evenodd" clip-rule="evenodd" fill="#D857A0" d="M619.854,56.981c-0.463,0.161-0.969,0.533-1.383,0.45
					c-5.645-1.136-11.277-2.336-17.09-3.976c0.355-0.189,0.756-0.604,1.062-0.542c5.775,1.172,11.537,2.397,17.305,3.614
					C619.783,56.678,619.82,56.829,619.854,56.981z"/>
				<path fill-rule="evenodd" clip-rule="evenodd" fill="#D857A0" d="M593.061,52.221c-6.043-1.713-12.092-3.43-18.135-5.145
					c0.096-0.314,0.189-0.627,0.287-0.944c5.969,1.959,12.34,2.606,18.113,5.208C593.238,51.636,593.148,51.928,593.061,52.221z"/>
				<path fill-rule="evenodd" clip-rule="evenodd" fill="#D857A0" d="M623.801,80.091c-6.984-0.229-13.527-2.078-19.779-5.069
					C610.611,76.711,617.207,78.398,623.801,80.091z"/>
				<path fill-rule="evenodd" clip-rule="evenodd" fill="#D857A0" d="M589.424,79.353c-4.961-0.288-9.707-1.839-15.236-2.936
					c0.844-0.605,1.26-1.134,1.543-1.069c4.6,0.987,9.188,2.053,13.775,3.097C589.477,78.75,589.449,79.052,589.424,79.353z"/>
				<path fill-rule="evenodd" clip-rule="evenodd" fill="#D857A0" d="M595.617,83.64c5.373,1.393,10.852,2.401,16.105,4.213
					c-0.082,0.291-0.162,0.582-0.244,0.872c-5.395-1.354-10.787-2.71-16.178-4.062C595.406,84.326,595.514,83.983,595.617,83.64z"/>
				<path fill-rule="evenodd" clip-rule="evenodd" fill="#D857A0" d="M611.721,36.702c1.523-0.94,13.729,2.133,15.797,3.608
					c-0.045,0.182-0.092,0.363-0.141,0.544C622.271,39.5,617.162,38.144,611.721,36.702z"/>
				<path fill-rule="evenodd" clip-rule="evenodd" fill="#D857A0" d="M594.271,79.34c5.043,1.817,10.25,1.93,14.727,4.419
					C603.031,83.408,594.812,81.003,594.271,79.34z"/>
				<path fill-rule="evenodd" clip-rule="evenodd" fill="#D857A0" d="M601.279,54.871c5.143,1.846,10.287,3.697,15.43,5.542
					c0.008,0.033,0.018,0.071,0.023,0.1c-1.736-0.378-3.48-0.718-5.207-1.14c-1.918-0.473-3.826-0.989-5.723-1.541
					c-4.562-1.319-4.557-1.334-4.861-2.218C601.053,55.366,601.166,55.12,601.279,54.871z"/>
				<path fill-rule="evenodd" clip-rule="evenodd" fill="#D857A0" d="M594.09,76.366c4.416,1.112,8.535,2.004,12.41,3.712
					C603.686,80.559,594.723,77.953,594.09,76.366z"/>
				<path fill-rule="evenodd" clip-rule="evenodd" fill="#D857A0" d="M573.916,78.905c4.117,0.793,7.816,1.498,11.814,2.263
					C583.559,82.531,575.174,80.917,573.916,78.905z"/>
				<path fill-rule="evenodd" clip-rule="evenodd" fill="#D857A0" d="M642.152,82.834c-0.621,1.567-0.76,2.974-1.447,3.337
					c-0.633,0.333-2.35-0.201-2.686-0.831c-0.34-0.65,0.137-2.188,0.773-2.75C639.275,82.167,640.574,82.675,642.152,82.834z"/>
				<path fill-rule="evenodd" clip-rule="evenodd" fill="#D857A0" d="M577.379,43.389c3.436-0.021,6.688,0.667,9.465,3.224
					c-3.189-0.818-6.375-1.636-9.562-2.451C577.312,43.903,577.346,43.646,577.379,43.389z"/>
				<path fill-rule="evenodd" clip-rule="evenodd" fill="#D857A0" d="M599.912,93.165c2.686,0.644,5.234,1.256,8.053,1.928
					C605.926,96.356,601.055,95.098,599.912,93.165z"/>
				<path fill-rule="evenodd" clip-rule="evenodd" fill="#D857A0" d="M623.955,35.091c-2.012-0.518-4.021-1.039-6.033-1.564
					c0.062-0.237,0.121-0.474,0.186-0.711c2.035,0.531,4.068,1.062,6.104,1.594C624.129,34.636,624.039,34.866,623.955,35.091z"/>
			</g>
			<g>
				<path fill="#D857A0" d="M564.914,139.94c4.043-5.532,7.758-10.609,11.469-15.683c-0.24-0.165-0.482-0.334-0.721-0.504
					c-3.439,4.187-6.867,8.371-10.623,12.945c-0.527-7.243-1.004-13.822-1.482-20.401c-0.352,0.021-0.699,0.045-1.049,0.068
					c0,7.244,0,14.485,0,21.729c-0.564,0.432-1.135,0.862-1.697,1.294c-4.021-4.525-8.039-9.046-12.061-13.567
					c-0.168,0.169-0.332,0.337-0.502,0.505c4.234,4.575,8.475,9.151,13.428,14.501c-6.801,0-12.582,0-18.363,0
					c-0.002,0.41-0.01,0.81-0.014,1.216c5.365,0,10.729,0,17.281,0c-3.986,5.763-7.27,10.498-10.551,15.237
					c0.303,0.23,0.607,0.462,0.912,0.693c3.715-4.942,7.428-9.889,11.797-15.698c0.447,8.861,0.842,16.644,1.232,24.416
					c0.416-0.026,0.834-0.053,1.25-0.079c0-7.426,0-14.851,0-23.137c5.479,5.18,10.271,9.712,15.068,14.25
					c0.285-0.295,0.572-0.588,0.857-0.881c-4.711-4.8-9.428-9.599-14.531-14.797c6.383-0.392,12.014-0.738,17.639-1.084
					c-0.02-0.341-0.037-0.684-0.057-1.024C577.963,139.94,571.729,139.94,564.914,139.94z"/>
				<path fill-rule="evenodd" clip-rule="evenodd" fill="#D857A0" d="M564.914,139.94c6.814,0,13.049,0,19.283,0
					c0.02,0.341,0.037,0.684,0.057,1.024c-5.625,0.346-11.256,0.692-17.639,1.084c5.104,5.198,9.82,9.997,14.531,14.797
					c-0.285,0.293-0.572,0.586-0.857,0.881c-4.797-4.538-9.59-9.07-15.068-14.25c0,8.286,0,15.711,0,23.137
					c-0.416,0.026-0.834,0.053-1.25,0.079c-0.391-7.772-0.785-15.555-1.232-24.416c-4.369,5.81-8.082,10.756-11.797,15.698
					c-0.305-0.231-0.609-0.463-0.912-0.693c3.281-4.739,6.564-9.475,10.551-15.237c-6.553,0-11.916,0-17.281,0
					c0.004-0.406,0.012-0.806,0.014-1.216c5.781,0,11.562,0,18.363,0c-4.953-5.35-9.193-9.926-13.428-14.501
					c0.17-0.168,0.334-0.336,0.502-0.505c4.021,4.521,8.039,9.042,12.061,13.567c0.562-0.432,1.133-0.862,1.697-1.294
					c0-7.244,0-14.485,0-21.729c0.35-0.023,0.697-0.048,1.049-0.068c0.479,6.579,0.955,13.158,1.482,20.401
					c3.756-4.574,7.184-8.759,10.623-12.945c0.238,0.17,0.48,0.339,0.721,0.504C572.672,129.331,568.957,134.408,564.914,139.94z"/>
			</g>
			<g>
				<path fill="#D857A0" d="M695.811,161.228c3.873-2.189,5.234-6.559,3.195-10.256c-2.578-4.671-8.086-6.355-12.527-3.834
					c-4.377,2.494-6.193,7.463-4.053,11.078C684.777,162.187,691.445,163.688,695.811,161.228z"/>
				<path fill="#D857A0" d="M490.97,32.726c0.905-0.473,1.166-1.412,0.615-2.212c-0.699-1.012-2.061-1.376-3.098-0.834
					c-1.023,0.538-1.388,1.61-0.811,2.392C488.31,32.928,489.951,33.254,490.97,32.726z"/>
				<path fill-rule="evenodd" clip-rule="evenodd" fill="#D857A0" d="M656.957,201.995c0.459,1.124,1.355,2.77,1.793,4.528
					c0.73,2.923,1.572,6.111-1.174,8.414c-0.951,0.797-3.021,1.223-4.09,0.736c-3.188-1.462-3.477-4.698-3.492-7.746
					c-0.016-2.19,0.396-4.391,0.654-6.969c-2.512,1.634-4.566,3.221-6.836,4.37c-2.062,1.045-4.527,1.692-5.863-1.08
					c-1.219-2.541,0.65-4.049,2.564-5.106c2.27-1.25,4.701-2.199,6.852-3.184c-1.764-3.07-3.732-6.044-5.162-9.26
					c-0.453-1.008,0.166-3.427,0.977-3.837c1.115-0.561,3.504-0.372,4.256,0.47c2.361,2.637,4.207,5.729,6.189,8.557
					c2.197-2.866,4.439-5.959,6.865-8.904c1.729-2.099,4.115-2.787,6.332-1.035c2.521,1.994,1.174,4.404-0.297,6.319
					c-1.48,1.934-3.355,3.565-5.121,5.393c3.252,1.043,6.488,1.632,9.225,3.132c1.51,0.828,3.105,3.241,3.01,4.842
					c-0.139,2.386-2.561,3.137-4.957,2.678C664.785,203.563,660.893,202.777,656.957,201.995z"/>
				<g>
					<path fill="#D857A0" d="M623.428,107.705c-0.723,0.588-1.531,1.094-2.154,1.775c-8.965,9.777-7.566,24.456,3.045,32.513
						c8.543,6.485,18.432,3.924,21.988-3.589c0.471-0.989,1.764-1.705,2.822-2.28c5.236-2.865,7.629-7.97,5.934-13.626
						c-1.26-4.218-3.947-7.383-8.512-8.136c-4.359-0.723-8.176,0.481-10.928,4.226c-2.924,3.979-2.732,8.257,0.039,11.879
						c2.363,3.097,5.736,5.427,9.039,8.437c-1.383,3.204-4.734,5.355-9.188,5.679c-6.369,0.457-11.307-2.655-14.752-7.544
						C613.744,127.065,614.953,117.5,623.428,107.705z"/>
					<path fill="#D857A0" d="M626.023,106.226c7.363-3.455,14.982-3.916,22.756-1.887c5.27,1.372,9.666,4.095,12.475,9.007
						c7.627,13.332,2.164,31.605-11.818,39.382c-12.973,7.217-31.031,2.729-41.115-10.244c-1.666-2.149-3.42-3.984-1.285-7.267
						c1.803-2.77-0.264-6.52-3.32-7.671c-2.705-1.018-5.848,0.683-6.801,3.678c-1.014,3.189,0.51,7.032,3.584,7.051
						c4.143,0.026,5.508,2.835,7.469,5.294c8.627,10.786,20,15.125,33.408,13.018c11.812-1.858,18.803-9.911,22.893-20.688
						c5.121-13.49-1.012-32.6-21.65-33.679C636.709,101.913,630.996,102.573,626.023,106.226z"/>
					<path fill-rule="evenodd" clip-rule="evenodd" fill="#D857A0" d="M623.428,107.705c-8.475,9.796-9.684,19.36-2.666,29.333
						c3.445,4.889,8.383,8.001,14.752,7.544c4.453-0.323,7.805-2.475,9.188-5.679c-3.303-3.01-6.676-5.34-9.039-8.437
						c-2.771-3.622-2.963-7.899-0.039-11.879c2.752-3.744,6.568-4.948,10.928-4.226c4.564,0.753,7.252,3.918,8.512,8.136
						c1.695,5.656-0.697,10.761-5.934,13.626c-1.059,0.575-2.352,1.291-2.822,2.28c-3.557,7.513-13.445,10.074-21.988,3.589
						c-10.611-8.057-12.01-22.735-3.045-32.513C621.896,108.798,622.705,108.292,623.428,107.705z"/>
					<path fill-rule="evenodd" clip-rule="evenodd" fill="#D857A0" d="M626.023,106.226c4.973-3.653,10.686-4.313,16.594-4.006
						c20.639,1.079,26.771,20.188,21.65,33.679c-4.09,10.776-11.08,18.829-22.893,20.688c-13.408,2.107-24.781-2.231-33.408-13.018
						c-1.961-2.459-3.326-5.268-7.469-5.294c-3.074-0.019-4.598-3.861-3.584-7.051c0.953-2.995,4.096-4.695,6.801-3.678
						c3.057,1.151,5.123,4.901,3.32,7.671c-2.135,3.282-0.381,5.117,1.285,7.267c10.084,12.974,28.143,17.461,41.115,10.244
						c13.982-7.776,19.445-26.05,11.818-39.382c-2.809-4.912-7.205-7.635-12.475-9.007
						C641.006,102.31,633.387,102.771,626.023,106.226z"/>
				</g>
				<g>
					<path fill="#D857A0" d="M466.265,197.224c-0.163-0.917-0.213-1.869-0.506-2.746c-4.197-12.583-17.709-18.485-29.904-13.118
						c-9.816,4.32-12.377,14.21-7.535,20.965c0.637,0.893,0.635,2.371,0.623,3.575c-0.036,5.969,3.266,10.538,9.033,11.802
						c4.299,0.946,8.371,0.133,11.245-3.492c2.747-3.461,3.548-7.382,1.61-11.606c-2.061-4.487-5.893-6.396-10.404-5.731
						c-3.855,0.563-7.529,2.381-11.765,3.809c-2.13-2.765-2.384-6.74-0.505-10.79c2.692-5.79,7.811-8.597,13.756-9.234
						C454.04,179.361,461.815,185.06,466.265,197.224z"/>
					<path fill="#D857A0" d="M466.298,200.211c-0.554,8.115-3.85,15-9.396,20.812c-3.758,3.94-8.271,6.463-13.93,6.534
						c-15.358,0.197-28.683-13.45-28.695-29.448c-0.012-14.846,12.677-28.456,28.915-30.976c2.688-0.412,5.144-1.055,6.977,2.404
						c1.546,2.921,5.828,2.934,8.318,0.821c2.203-1.872,2.241-5.444,0.085-7.731c-2.296-2.435-6.395-2.968-7.903-0.289
						c-2.034,3.609-5.151,3.438-8.254,3.96c-13.618,2.308-22.933,10.145-27.598,22.889c-4.109,11.23-0.462,21.25,6.975,30.058
						c9.309,11.024,28.993,14.939,39.954-2.581C464.883,211.647,467.08,206.332,466.298,200.211z"/>
					<path fill-rule="evenodd" clip-rule="evenodd" fill="#D857A0" d="M466.265,197.224c-4.45-12.164-12.226-17.863-24.352-16.568
						c-5.945,0.638-11.063,3.444-13.756,9.234c-1.879,4.05-1.625,8.025,0.505,10.79c4.235-1.428,7.909-3.245,11.765-3.809
						c4.512-0.664,8.344,1.244,10.404,5.731c1.938,4.225,1.137,8.146-1.61,11.606c-2.874,3.625-6.946,4.438-11.245,3.492
						c-5.768-1.264-9.069-5.833-9.033-11.802c0.012-1.204,0.014-2.683-0.623-3.575c-4.842-6.755-2.281-16.645,7.535-20.965
						c12.195-5.367,25.707,0.535,29.904,13.118C466.052,195.355,466.102,196.307,466.265,197.224z"/>
					<path fill-rule="evenodd" clip-rule="evenodd" fill="#D857A0" d="M466.298,200.211c0.781,6.12-1.415,11.436-4.553,16.452
						c-10.961,17.521-30.646,13.605-39.954,2.581c-7.437-8.808-11.084-18.827-6.975-30.058
						c4.665-12.744,13.979-20.581,27.598-22.889c3.103-0.521,6.22-0.351,8.254-3.96c1.509-2.679,5.607-2.146,7.903,0.289
						c2.156,2.287,2.118,5.859-0.085,7.731c-2.49,2.112-6.772,2.1-8.318-0.821c-1.833-3.459-4.289-2.816-6.977-2.404
						c-16.238,2.52-28.927,16.13-28.915,30.976c0.013,15.998,13.337,29.646,28.695,29.448c5.658-0.071,10.172-2.594,13.93-6.534
						C462.449,215.211,465.745,208.327,466.298,200.211z"/>
				</g>
			</g>
			<g>
				<path fill="#D857A0" d="M709.326,75.111c-1.135,0.928-2.529,1.691-3.348,2.861c-0.594,0.845-0.43,2.223-0.609,3.361
					c1.082-0.256,2.314-0.274,3.205-0.834c1.002-0.627,1.699-1.742,2.211-2.296c2.021,1.843,3.84,3.702,5.893,5.251
					c0.557,0.42,1.816-0.102,2.758-0.189c-0.113-0.936,0.1-2.137-0.404-2.754c-1.139-1.395-2.633-2.502-4.207-3.931
					c2.408-0.347,4.514-0.443,6.467-1.032c0.773-0.235,1.215-1.571,1.807-2.404c-0.842-0.344-1.688-0.986-2.518-0.969
					c-1.625,0.036-3.236,0.443-4.758,0.68c0.904-2.737,2.057-5.165,2.404-7.701c0.195-1.393-0.957-2.976-1.504-4.467
					c-1.447,0.879-3.578,1.428-4.191,2.709c-1.062,2.223-1.186,4.894-1.701,7.369c-2.072-0.842-3.988-1.782-6.014-2.362
					c-0.781-0.222-1.799,0.374-2.705,0.6c0.297,0.981,0.291,2.423,0.955,2.867C704.973,73.147,707.15,74.023,709.326,75.111z"/>
				<path fill="#D857A0" d="M760.414,114.586c1.633-2.237,3.498-3.763,3.229-4.663c-0.402-1.377-2.137-2.836-3.59-3.232
					c-0.74-0.204-3.041,1.919-2.951,2.829C757.236,110.958,758.793,112.266,760.414,114.586z"/>
				<path fill-rule="evenodd" clip-rule="evenodd" fill="#D857A0" d="M709.326,75.111c-2.176-1.088-4.354-1.964-6.26-3.241
					c-0.664-0.444-0.658-1.886-0.955-2.867c0.906-0.226,1.924-0.821,2.705-0.6c2.025,0.58,3.941,1.521,6.014,2.362
					c0.516-2.476,0.639-5.146,1.701-7.369c0.613-1.281,2.744-1.83,4.191-2.709c0.547,1.491,1.699,3.074,1.504,4.467
					c-0.348,2.536-1.5,4.964-2.404,7.701c1.521-0.236,3.133-0.644,4.758-0.68c0.83-0.018,1.676,0.625,2.518,0.969
					c-0.592,0.833-1.033,2.169-1.807,2.404c-1.953,0.589-4.059,0.686-6.467,1.032c1.574,1.429,3.068,2.536,4.207,3.931
					c0.504,0.617,0.291,1.818,0.404,2.754c-0.941,0.088-2.201,0.609-2.758,0.189c-2.053-1.549-3.871-3.408-5.893-5.251
					c-0.512,0.554-1.209,1.669-2.211,2.296c-0.891,0.56-2.123,0.578-3.205,0.834c0.18-1.139,0.016-2.517,0.609-3.361
					C706.797,76.802,708.191,76.039,709.326,75.111z"/>
				<path fill-rule="evenodd" clip-rule="evenodd" fill="#D857A0" d="M676.615,84.385c-0.498,2.544-2.133,4.284-4.924,4.644
					c-2.557,0.329-5.58-2.445-5.711-4.983c-0.109-2.311,2.367-4.775,4.854-4.817C673.672,79.174,676.504,81.586,676.615,84.385z"/>
				<path fill-rule="evenodd" clip-rule="evenodd" fill="#D857A0" d="M760.414,114.586c-1.621-2.32-3.178-3.628-3.312-5.066
					c-0.09-0.91,2.211-3.033,2.951-2.829c1.453,0.396,3.188,1.855,3.59,3.232C763.912,110.824,762.047,112.349,760.414,114.586z"/>
			</g>
			<path fill-rule="evenodd" clip-rule="evenodd" fill="#D857A0" d="M675.32,17.928c1.953-3.788,3.598-7.788,5.955-11.304
				c2.162-3.221,4.963-6.066,7.771-8.769c1.016-0.977,2.871-1.396,4.379-1.483c4.314-0.254,5.475,1.27,4.242,5.51
				c-1.932,6.644-5.688,12.377-9.826,17.755c-4.182,5.434-8.932,10.435-13.473,15.594c-0.543,0.618-1.283,1.086-1.969,1.562
				c-1.584,1.094-2.924,0.946-3.484-1.054c-0.867-3.062-1.977-6.126-2.283-9.261c-0.787-8.014-1.256-16.06-1.691-24.102
				c-0.105-1.98,0.273-4.021,0.643-5.997c0.477-2.555,2.725-4.4,5.135-4.369c2.564,0.035,3.361,1.971,3.902,3.951
				c1.701,6.199,1.377,12.479,0.588,18.761c-0.135,1.047-0.258,2.096-0.383,3.142C674.988,17.886,675.154,17.908,675.32,17.928z"/>
			<path fill="#D857A0" d="M357.875,70.838c-0.249-0.387-0.507-0.77-0.744-1.16c-2.255-3.716-4.331-7.558-6.825-11.103
				c-1.503-2.131-3.512-3.999-5.577-5.618c-1.98-1.558-3.701-0.919-4.987,1.286c-1.392,2.386-0.733,4.709,0.306,6.93
				c3.979,8.528,9.83,15.672,16.67,22.023c3.551,3.295,4.403,3.051,6.561-1.406c4.273-8.832,6.859-18.2,8.411-27.845
				c0.445-2.741,0.36-5.632,0.06-8.405c-0.273-2.57-2.178-3.346-4.094-1.666c-1.646,1.441-3.121,3.287-4.094,5.241
				C360.188,55.9,358.428,63.141,357.875,70.838z"/>
			<path fill-rule="evenodd" clip-rule="evenodd" fill="#D857A0" d="M357.875,70.838c0.553-7.697,2.312-14.938,5.686-21.723
				c0.973-1.954,2.447-3.8,4.094-5.241c1.916-1.68,3.82-0.904,4.094,1.666c0.301,2.773,0.386,5.664-0.06,8.405
				c-1.552,9.645-4.138,19.013-8.411,27.845c-2.157,4.457-3.01,4.701-6.561,1.406c-6.84-6.352-12.691-13.495-16.67-22.023
				c-1.039-2.221-1.697-4.544-0.306-6.93c1.286-2.205,3.007-2.844,4.987-1.286c2.065,1.619,4.074,3.487,5.577,5.618
				c2.494,3.545,4.57,7.387,6.825,11.103C357.369,70.069,357.626,70.452,357.875,70.838z"/>
			<path fill="#D857A0" d="M187.342,70.19c-4.912-4.785-9.144-8.913-13.375-13.038c-0.171,0.177-0.352,0.358-0.524,0.535
				c4.138,4.396,8.271,8.788,12.405,13.184c-0.121,0.317-0.253,0.631-0.373,0.947c-5.615,0-11.229,0-16.838,0
				c0,0.452,0,0.907,0.002,1.359c5.233,0,10.465,0,16.754,0c-3.664,5.258-6.627,9.508-9.586,13.753
				c0.286,0.218,0.568,0.438,0.859,0.657c3.348-4.591,6.699-9.183,10.053-13.773c0.469,0.112,0.943,0.226,1.414,0.34
				c0,7.631,0,15.262,0,22.895c0.537-0.01,1.075-0.023,1.611-0.036c0-7.336,0-14.673,0-22.986
				c5.526,5.234,10.223,9.684,14.918,14.132c0.223-0.234,0.449-0.47,0.675-0.706c-4.649-4.688-9.292-9.376-14.511-14.638
				c6.401-0.369,11.703-0.676,17-0.979c-0.02-0.301-0.043-0.602-0.066-0.903c-6.029,0-12.062,0-18.531,0
				c3.527-4.713,6.712-8.964,9.895-13.215c-0.221-0.172-0.434-0.342-0.65-0.515c-2.824,3.483-5.648,6.96-8.984,11.078
				c-0.477-7.337-0.889-13.748-1.305-20.161c-0.279,0.023-0.56,0.045-0.842,0.066C187.342,55.149,187.342,62.112,187.342,70.19z"/>
			<path fill-rule="evenodd" clip-rule="evenodd" fill="#D857A0" d="M187.342,70.19c0-8.078,0-15.041,0-22.005
				c0.282-0.021,0.562-0.043,0.842-0.066c0.416,6.413,0.828,12.824,1.305,20.161c3.336-4.118,6.16-7.595,8.984-11.078
				c0.217,0.173,0.43,0.343,0.65,0.515c-3.183,4.251-6.367,8.502-9.895,13.215c6.469,0,12.502,0,18.531,0
				c0.023,0.302,0.047,0.603,0.066,0.903c-5.297,0.304-10.599,0.61-17,0.979c5.219,5.262,9.861,9.95,14.511,14.638
				c-0.226,0.236-0.452,0.472-0.675,0.706c-4.695-4.448-9.392-8.897-14.918-14.132c0,8.313,0,15.65,0,22.986
				c-0.536,0.013-1.074,0.026-1.611,0.036c0-7.633,0-15.264,0-22.895c-0.471-0.114-0.945-0.228-1.414-0.34
				c-3.354,4.591-6.705,9.183-10.053,13.773c-0.291-0.219-0.573-0.439-0.859-0.657c2.959-4.245,5.922-8.495,9.586-13.753
				c-6.289,0-11.521,0-16.754,0c-0.002-0.452-0.002-0.907-0.002-1.359c5.609,0,11.223,0,16.838,0c0.12-0.316,0.252-0.63,0.373-0.947
				c-4.135-4.396-8.268-8.788-12.405-13.184c0.173-0.177,0.354-0.358,0.524-0.535C178.199,61.277,182.43,65.405,187.342,70.19z"/>
			<path fill-rule="evenodd" clip-rule="evenodd" fill="#D857A0" d="M227.214,179.316c-4.971-3.577-9.939-7.154-15.904-11.444
				c0.553,9.287,1.037,17.479,1.523,25.676c-0.304,0.023-0.611,0.046-0.918,0.068c-0.543-7.715-1.082-15.436-1.664-23.739
				c-5.199,4.226-8.686,10.093-15.441,11.473c5.975-3.215,10.906-7.511,14.963-13.91c-8.615,0-16.709,0-24.807,0
				c-0.004-0.38-0.012-0.757-0.018-1.142c7.59,0,15.173,0,23.674,0c-5.178-5.011-9.617-9.308-14.057-13.61
				c0.202-0.212,0.408-0.416,0.617-0.624c4.652,4.312,9.308,8.63,13.959,12.942c0.378-0.163,0.755-0.33,1.133-0.494
				c0-7.1,0-14.197,0-21.301c0.396-0.006,0.789-0.017,1.184-0.023c0,6.979,0,13.957,0,21.931c3.913-4.603,7.121-8.374,10.328-12.135
				c0.226,0.187,0.455,0.378,0.686,0.572c-3.119,3.873-6.239,7.738-10.053,12.465c8.668,0,16.225,0,23.78,0
				c0.004,0.33,0.007,0.662,0.01,0.993c-7.292,0-14.587,0-21.882,0c-0.168,0.366-0.34,0.727-0.511,1.092
				c4.642,3.501,9.278,7.006,13.917,10.508C227.562,178.851,227.388,179.083,227.214,179.316z"/>
		</g>
	</g>
</g>
</svg>
