<?xml version="1.0" encoding="utf-8"?>
<!-- Generator: Adobe Illustrator 16.0.0, SVG Export Plug-In . SVG Version: 6.00 Build 0)  -->
<!DOCTYPE svg PUBLIC "-//W3C//DTD SVG 1.1//EN" "http://www.w3.org/Graphics/SVG/1.1/DTD/svg11.dtd">
<svg version="1.1" id="Layer_1" xmlns="http://www.w3.org/2000/svg" xmlns:xlink="http://www.w3.org/1999/xlink" x="0px" y="0px"
	 width="100px" height="82px" viewBox="0 0 100 82" enable-background="new 0 0 100 82" xml:space="preserve">
<g>
	<path fill="#EFEFEF" d="M100,79.441C100,80.787,98.639,82,97.291,82H2.169C0.822,82,0,80.787,0,79.441V2.318
		C0,0.971,0.822,0,2.169,0h95.122C98.639,0,100,0.971,100,2.318V79.441z"/>
	<g opacity="0.35">
		<path fill="#FFFFFF" d="M60.783,50.535c0-2.115,0-2.822,0-4.754c-0.016-2.709-1.879-4.529-4.547-4.494
			c-2.617,0.037-4.438,1.861-4.438,4.477c-0.02,1.988,0,2.727,0,4.756c-1.273,0-2.321,0-3.575,0c0-2.01,0.057-2.695-0.037-4.629
			c-0.036-0.883-0.238-1.859-0.681-2.613c-1.014-1.73-3.132-2.376-5.12-1.768c-2.1,0.623-3.205,2.078-3.221,4.307
			c0,1.973,0,2.713,0,4.646c-1.29,0-2.341,0-3.557,0c0-3.516,0-5.693,0-9.084c-1.069,0-1.96,0-2.988,0c0,3.537,0,5.695,0,9.141
			c-0.388,0.016-0.646,0.055-0.906,0.055c-2.742,0.072-3.425,0.773-3.425,3.518c-0.017,2.871-0.017,4.287,0,7.162
			c0,0.848,0,0.443,0,1.424c-1.104,0-1.95,0-2.891,0c0,1.012,0,1.914,0,2.889c16.435,0,32.787,0,49.123,0c0-1.049,0-1.988,0-3.039
			c-0.922,0-1.73,0-2.725,0c0-3.314,0-3.832,0-7.057c0-4.42,0-4.42-4.254-4.99c-0.055,0-0.094-0.057-0.275-0.182
			c0-3.316,0-5.473,0-8.957c-0.996,0-1.844,0-2.875,0c0,3.5,0,5.715,0,9.193C63.139,50.535,62.072,50.535,60.783,50.535z"/>
		<path fill="#FFFFFF" d="M66.564,36.394c0.188-6.464-3.867-10.12-9.979-12.79c-1.51-0.662-3.535-0.772-4.512-1.86
			c-1.014-1.122-1.014-3.149-1.512-4.751c-0.109-0.312-0.477-0.534-0.718-0.791c-0.222,0.236-0.553,0.443-0.644,0.736
			c-0.386,1.255-0.81,2.542-1.067,3.832c-0.24,1.158-0.773,1.654-1.972,1.896c-7.438,1.49-13.303,6.324-13.01,13.688
			c0.951,0,1.886,0,2.826,0c0.386-8.269,6.629-10.927,13.424-11.223c7.534-0.331,12.874,2.237,14.512,11.262
			C64.742,36.394,65.607,36.394,66.564,36.394z"/>
		<path fill="#FFFFFF" d="M67.227,37.674c-11.541,0-22.997,0-34.478,0c0,1.05,0,1.382,0,2.396c11.535,0,22.99,0,34.478,0
			C67.227,39.022,67.227,38.686,67.227,37.674z"/>
		<path fill-rule="evenodd" clip-rule="evenodd" fill="#B3B3B3" d="M60.783,50.535c1.289,0,2.355,0,3.609,0c0-3.479,0-5.693,0-9.193
			c1.031,0,1.879,0,2.875,0c0,3.484,0,5.641,0,8.957c0.182,0.125,0.221,0.182,0.275,0.182c4.254,0.57,4.254,0.57,4.254,4.99
			c0,3.225,0,3.742,0,7.057c0.994,0,1.803,0,2.725,0c0,1.051,0,1.99,0,3.039c-16.336,0-32.688,0-49.123,0c0-0.975,0-1.877,0-2.889
			c0.94,0,1.786,0,2.891,0c0-0.98,0-0.576,0-1.424c-0.017-2.875-0.017-4.291,0-7.162c0-2.744,0.683-3.445,3.425-3.518
			c0.26,0,0.519-0.039,0.906-0.055c0-3.445,0-5.604,0-9.141c1.028,0,1.919,0,2.988,0c0,3.391,0,5.568,0,9.084
			c1.216,0,2.267,0,3.557,0c0-1.934,0-2.674,0-4.646c0.016-2.229,1.121-3.684,3.221-4.307c1.988-0.609,4.106,0.037,5.12,1.768
			c0.442,0.754,0.645,1.73,0.681,2.613c0.094,1.934,0.037,2.619,0.037,4.629c1.254,0,2.301,0,3.575,0c0-2.029-0.02-2.768,0-4.756
			c0-2.615,1.82-4.439,4.438-4.477c2.668-0.035,4.531,1.785,4.547,4.494C60.783,47.713,60.783,48.42,60.783,50.535z M68.703,53.668
			c-12.598,0-25.026,0-37.486,0c0,3.994,0,5.178,0,9.137c12.515,0,24.964,0,37.486,0C68.703,58.828,68.703,57.645,68.703,53.668z
			 M57.932,50.443c0-2.08,0.088-2.82-0.078-4.773c-0.033-0.516-0.846-1.197-1.434-1.342c-0.83-0.242-1.695,0.145-1.73,1.213
			c-0.055,2.027,0,2.805,0,4.902C55.775,50.443,56.713,50.443,57.932,50.443z M45.314,50.463c0-2.154,0.095-2.949-0.07-4.957
			c-0.022-0.443-0.924-1.16-1.401-1.145c-0.59,0.023-1.566,0.666-1.604,1.088c-0.184,2.064-0.091,2.896-0.091,5.014
			C43.252,50.463,44.173,50.463,45.314,50.463z"/>
		<path fill-rule="evenodd" clip-rule="evenodd" fill="#B3B3B3" d="M66.564,36.394c-0.957,0-1.822,0-2.65,0
			c0-6.312-6.979-11.593-14.512-11.262c-6.795,0.296-13.424,4.336-13.424,11.223c-0.94,0-1.875,0-2.826,0
			c-0.293-7.364,5.571-12.198,13.01-13.688c1.198-0.242,1.731-0.738,1.972-1.896c0.258-1.29,0.682-2.577,1.067-3.832
			c0.091-0.293,0.125-0.736,0.644-0.736c0.517,0,0.609,0.479,0.718,0.791c0.498,1.602,0.498,3.629,1.512,4.751
			c0.977,1.088,3.002,1.198,4.512,1.86C62.697,26.274,66.752,29.93,66.564,36.394z"/>
		<path fill-rule="evenodd" clip-rule="evenodd" fill="#B3B3B3" d="M67.227,37.674c0,1.012,0,1.348,0,2.396
			c-11.488,0-22.943,0-34.478,0c0-1.014,0-1.346,0-2.396C44.23,37.674,55.686,37.674,67.227,37.674z"/>
		<path fill-rule="evenodd" clip-rule="evenodd" fill="#FFFFFF" d="M68.703,53.668c0,3.977,0,5.16,0,9.137
			c-12.521,0-24.971,0-37.486,0c0-3.959,0-5.143,0-9.137C43.677,53.668,56.105,53.668,68.703,53.668z M63.195,60.996
			c0-1.346,0.018-2.525,0-3.701c-0.016-1.105-0.773-1.678-1.693-1.475c-0.645,0.129-1.492,0.811-1.619,1.379
			c-0.24,1.217-0.076,2.506-0.076,3.797C61.023,60.996,62.018,60.996,63.195,60.996z M47.728,61.033c0-1.365-0.02-2.562,0.018-3.777
			c0-0.975-0.479-1.398-1.396-1.473c-0.995-0.072-1.809,0.277-1.898,1.307c-0.131,1.311-0.037,2.615-0.037,3.943
			C45.609,61.033,46.585,61.033,47.728,61.033z M40.085,61.033c0-1.309-0.021-2.467,0-3.629c0.034-1.012-0.386-1.529-1.399-1.621
			s-1.824,0.312-1.935,1.307c-0.147,1.289-0.037,2.615-0.037,3.943C37.893,61.033,38.871,61.033,40.085,61.033z M55.463,60.996
			c0-1.346,0.184-2.561-0.076-3.664c-0.127-0.609-0.957-1.42-1.51-1.457c-0.553-0.035-1.564,0.682-1.674,1.234
			c-0.258,1.236-0.094,2.578-0.094,3.887C53.324,60.996,54.32,60.996,55.463,60.996z"/>
		<path fill-rule="evenodd" clip-rule="evenodd" fill="#FFFFFF" d="M57.932,50.443c-1.219,0-2.156,0-3.242,0
			c0-2.098-0.055-2.875,0-4.902c0.035-1.068,0.9-1.455,1.73-1.213c0.588,0.145,1.4,0.826,1.434,1.342
			C58.02,47.623,57.932,48.363,57.932,50.443z"/>
		<path fill-rule="evenodd" clip-rule="evenodd" fill="#FFFFFF" d="M45.314,50.463c-1.141,0-2.062,0-3.166,0
			c0-2.117-0.093-2.949,0.091-5.014c0.037-0.422,1.014-1.064,1.604-1.088c0.478-0.016,1.379,0.701,1.401,1.145
			C45.409,47.514,45.314,48.309,45.314,50.463z"/>
		<path fill-rule="evenodd" clip-rule="evenodd" fill="#B3B3B3" d="M63.195,60.996c-1.178,0-2.172,0-3.389,0
			c0-1.291-0.164-2.58,0.076-3.797c0.127-0.568,0.975-1.25,1.619-1.379c0.92-0.203,1.678,0.369,1.693,1.475
			C63.213,58.471,63.195,59.65,63.195,60.996z"/>
		<path fill-rule="evenodd" clip-rule="evenodd" fill="#B3B3B3" d="M47.728,61.033c-1.143,0-2.119,0-3.314,0
			c0-1.328-0.094-2.633,0.037-3.943c0.09-1.029,0.903-1.379,1.898-1.307c0.918,0.074,1.396,0.498,1.396,1.473
			C47.708,58.471,47.728,59.668,47.728,61.033z"/>
		<path fill-rule="evenodd" clip-rule="evenodd" fill="#B3B3B3" d="M40.085,61.033c-1.215,0-2.192,0-3.371,0
			c0-1.328-0.11-2.654,0.037-3.943c0.11-0.994,0.921-1.398,1.935-1.307s1.434,0.609,1.399,1.621
			C40.065,58.566,40.085,59.725,40.085,61.033z"/>
		<path fill-rule="evenodd" clip-rule="evenodd" fill="#B3B3B3" d="M55.463,60.996c-1.143,0-2.139,0-3.354,0
			c0-1.309-0.164-2.65,0.094-3.887c0.109-0.553,1.121-1.27,1.674-1.234c0.553,0.037,1.383,0.848,1.51,1.457
			C55.646,58.436,55.463,59.65,55.463,60.996z"/>
	</g>
</g>
</svg>
