<?xml version="1.0" encoding="utf-8"?>
<!-- Generator: Adobe Illustrator 16.0.0, SVG Export Plug-In . SVG Version: 6.00 Build 0)  -->
<!DOCTYPE svg PUBLIC "-//W3C//DTD SVG 1.1//EN" "http://www.w3.org/Graphics/SVG/1.1/DTD/svg11.dtd">
<svg version="1.1" id="Layer_1" xmlns="http://www.w3.org/2000/svg" xmlns:xlink="http://www.w3.org/1999/xlink" x="0px" y="0px"
	 width="100px" height="82px" viewBox="0 0 100 82" enable-background="new 0 0 100 82" xml:space="preserve">
<g>
	<path fill="none" d="M100,79.441C100,80.787,98.639,82,97.291,82H2.169C0.822,82,0,80.787,0,79.441V2.318
		C0,0.971,0.822,0,2.169,0h95.122C98.639,0,100,0.971,100,2.318V79.441z"/>
	<g opacity="0.8">
		<polygon fill="#082B81" points="25.716,12.027 16.99,9.983 15.8,15.061 24.767,17.163 		"/>
		<path fill="#082B81" d="M53.929,23.995l7.96,1.865l-1.393,5.943l-7.96-1.865l-2.431,10.375l9.342,2.189
			c0.774-2.176,1.467-4.602,2.056-7.331c1.373-4.861,2.289-9.02,2.748-12.473c0.079-0.587,0.148-1.105,0.215-1.593l-9.337-2.188
			c-0.062,0.227-0.185,0.7-0.185,0.7L53.929,23.995z"/>
		<path fill="#082B81" d="M31.7,18.787l15.298,3.584l1.015-5.12l-14.957-3.504c-0.068,0.259-0.142,0.522-0.219,0.809
			C32.124,17.192,31.743,18.603,31.7,18.787z"/>
		
			<rect x="28.979" y="26.392" transform="matrix(0.9736 0.2281 -0.2281 0.9736 8.1126 -7.5768)" fill="#082B81" width="15.712" height="9.831"/>
		<path fill="#082B81" d="M69.305,31.978c-1.032,4.338-2.183,8.343-3.447,12.026l7.833,1.834l4.299-18.354l0.713-3.042l-7.195-1.686
			c-0.032,0.116-0.062,0.221-0.094,0.346C71.406,23.137,70.702,26.096,69.305,31.978z"/>
		<path fill="#082B81" d="M80.293,47.386l8.143,1.907l4.648-19.839l0.365-1.558l-8.143-1.907c-0.037,0.134-0.062,0.264-0.094,0.401
			L80.293,47.386z"/>
		<path fill="#082B81" d="M80.293,47.386l-4.518,19.28l-6.602-1.547l4.518-19.281l-7.833-1.834
			c-0.452,1.312-0.916,2.589-1.397,3.817c-1.883,4.897-4.425,8.735-7.629,11.504c-3.202,2.77-5.376,4.369-5.411,4.361l-4.712-5.748
			c0.879-0.451,3.11-2.252,6.69-5.395c2.425-2.127,4.433-5.496,6.049-10.042l-9.342-2.189L44.983,62.18l38.33,8.98l5.123-21.867
			L80.293,47.386z"/>
		
			<rect x="25.253" y="41.841" transform="matrix(-0.9736 -0.2281 0.2281 -0.9736 54.576 100.729)" fill="#082B81" width="15.712" height="10.739"/>
		
			<rect x="2.67" y="38.757" transform="matrix(0.2281 -0.9736 0.9736 0.2281 -31.4909 47.0037)" fill="#082B81" width="22.459" height="9.211"/>
		
			<rect x="13.07" y="21.915" transform="matrix(0.9736 0.2281 -0.2281 0.9736 6.6813 -3.3141)" fill="#082B81" width="9.212" height="10.656"/>
		<path fill="#ffffff" d="M20.944,33.481l-5.122,21.865l29.161,6.834l5.123-21.867L20.944,33.481z M39.533,54.23l-15.298-3.584
			l2.45-10.456l15.298,3.584L39.533,54.23z"/>
		<path fill="#ffffff" d="M20.944,33.481l29.162,6.832l2.431-10.375l2.593-11.02l-7.117-1.668l-1.015,5.12L31.7,18.787l1.355-5.04
			l-7.339-1.72l-0.949,5.136L15.8,15.061l-1.394,5.943l8.969,2.102L20.944,33.481z M30.307,24.73l15.298,3.584l-2.242,9.572
			l-15.298-3.584L30.307,24.73z"/>
		<polygon fill="#ffffff" points="52.537,29.938 60.497,31.803 61.889,25.86 53.929,23.995 55.129,18.918 55.129,18.918 		"/>
		
			<rect x="71.343" y="46.352" transform="matrix(-0.9736 -0.2281 0.2281 -0.9736 134.6631 128.0705)" fill="#ffffff" width="6.781" height="19.802"/>
		<path fill="#ffffff" d="M53.399,52.545c-3.58,3.143-6.589,5.131-7.467,5.584l-0.949,4.051l6.438,1.508
			c0.035,0.008,2.209-1.592,5.411-4.361c3.204-2.77,5.746-6.607,7.629-11.504c0.481-1.229,0.945-2.506,1.397-3.817l-6.41-1.502
			C57.832,47.049,55.824,50.418,53.399,52.545z"/>
		<path fill="#ffffff" d="M61.503,35.171c-0.589,2.729-1.281,5.155-2.056,7.331l6.41,1.502c1.265-3.684,2.415-7.688,3.447-12.026
			c1.396-5.882,2.101-8.841,2.109-8.876c0.031-0.125,0.062-0.229,0.094-0.346l-7.042-1.65C64.4,21.593,62.741,29.892,61.503,35.171z
			"/>
		<path fill="#ffffff" d="M73.691,45.838l6.602,1.548l4.92-20.996c0.031-0.138,0.057-0.268,0.094-0.401l-6.604-1.547l-0.713,3.042
			L73.691,45.838z"/>
		<path fill="none" stroke="#082B81" stroke-miterlimit="10" d="M85.756,72.49c-0.236,1.006-1.242,1.631-2.248,1.395L5.468,55.602
			c-1.006-0.236-1.63-1.242-1.395-2.248L14.547,8.651c0.235-1.006,1.241-1.63,2.247-1.395l78.042,18.284
			c1.006,0.235,1.629,1.242,1.393,2.247L85.756,72.49z"/>
	</g>
</g>
</svg>
