<?xml version="1.0" encoding="utf-8"?>
<!-- Generator: Adobe Illustrator 16.0.0, SVG Export Plug-In . SVG Version: 6.00 Build 0)  -->
<!DOCTYPE svg PUBLIC "-//W3C//DTD SVG 1.1//EN" "http://www.w3.org/Graphics/SVG/1.1/DTD/svg11.dtd">
<svg version="1.1" id="Layer_1" xmlns="http://www.w3.org/2000/svg" xmlns:xlink="http://www.w3.org/1999/xlink" x="0px" y="0px"
	 width="100px" height="82px" viewBox="0 0 100 82" enable-background="new 0 0 100 82" xml:space="preserve">
<g>
	<path fill="#EFEFEF" d="M100,79.441C100,80.787,98.638,82,97.291,82H2.169C0.822,82,0,80.787,0,79.441V2.318
		C0,0.971,0.822,0,2.169,0h95.121C98.638,0,100,0.971,100,2.318V79.441z"/>
	<g opacity="0.35">
		<path fill-rule="evenodd" clip-rule="evenodd" fill="#B3B3B3" d="M48.106,21.815c-1.201,0-1.24,0-2.458,0c0-1.046,0-1.588,0-2.75
			c1.172,0,1.286,0,2.601,0c0-1.312,0-1.38,0-2.637c1.086,0,2.065,0,3.159,0c0,1.143,0,1.211,0,2.58c1.41,0,1.621,0,3.011,0
			c0,1.123,0,1.627,0,2.748c-1.269,0-1.487,0-2.726,0c-0.626,2.173-0.265,2.932,1.618,4.054c0.554,0.326,0.972,0.84,1.485,1.198
			c1.522,1.144,2.21,1.947,2.115,3.89c-0.114,2.227-0.097,3.165,0.018,5.393c0.04,0.724,0.439,1.638,0.973,2.115
			c3.522,3.14,7.139,6.169,10.729,9.252c1.761,1.502,1.99,2.951,0.239,4.379c-2.076,1.713-2.592,3.713-2.438,6.242
			c0.189,2.953,0.037,0.998,0.037,4.139c3.257,0,6.406,0,9.635,0c0,1.066,0,1.943,0,2.912c-17.441,0-34.823,0-52.293,0
			c0-0.893,0-1.77,0-2.816c3.104,0,9.53,0,9.53,0l0.036-4.365c0,0,0.393-3.311-2.408-6.111c-1.683-1.391-1.504-2.857,0.164-4.283
			c3.502-3.007,7.006-6.018,10.547-8.97c0.896-0.741,1.343-1.484,1.286-2.684c-0.104-2.229-0.021-2.521-0.029-4.75
			c-0.019-1.636,0.493-3.006,1.817-4.033c0.58-0.457,1.077-1.066,1.695-1.45C48.325,24.727,48.627,23.948,48.106,21.815z M63.5,62.4
			c0-4.15,0.018-3.283-0.039-7.357c0-0.357-0.456-0.779-0.779-1.084c-2.303-2.037-4.819-3.885-6.901-6.129
			c-2.144-2.287-4.58-3.027-7.513-2.61c-0.629,0.095-1.351,0.286-1.827,0.686c-3.046,2.569-6.036,5.198-9.027,7.825
			c-0.37,0.326-0.893,0.783-0.902,1.178c-0.064,4.133-0.048,3.301-0.048,7.492c2.876,0,5.55,0,8.424,0c0-0.627,0-1.199,0-1.771
			c0.012-2.969-0.027-0.996,0.012-3.965c0.035-2.877,1.371-4.857,3.529-5.445c3.522-0.955,6.456,1.291,6.542,5.08
			c0.056,3.145,0,1.32,0.01,4.461c0.009,0.557,0.046,1.105,0.064,1.641C57.959,62.4,60.643,62.4,63.5,62.4z M66.679,49.996
			c-3.15-2.699-6.301-5.214-9.234-7.976c-1.865-1.77-3.809-2.645-6.388-2.341c-1.573,0.19-3.19,0-4.77,0.057
			c-0.555,0.02-1.2,0.172-1.6,0.495c-3.827,3.2-7.597,6.437-11.423,9.691c0.646,0.688,1.197,1.26,1.758,1.846
			c2.059-1.789,4.22-3.311,5.934-5.234c3.141-3.542,6.854-5.102,11.508-4.264c0.875,0.151,1.868,0.4,2.523,0.95
			c3.332,2.781,6.568,5.695,9.939,8.605C65.518,51.195,66.049,50.646,66.679,49.996z M49.943,26.878
			c-0.857,0.664-1.602,1.179-2.247,1.788c-0.6,0.572-1.522,1.236-1.562,1.906c-0.18,2.721-0.075,3.508-0.075,6.213
			c2.77,0,5.292,0,7.959,0c0-2.664,0.019-3.321-0.021-5.911c0-0.302-0.235-0.665-0.476-0.893
			C52.378,28.953,51.218,27.964,49.943,26.878z"/>
		<path fill-rule="evenodd" clip-rule="evenodd" fill="#FFFFFF" d="M51.921,62.438c-1.36,0-3.969,0-3.969,0l0.01-1.049
			c0,0-0.021-1.527,0-4.766c0.018-1.715,0.665-2.549,1.94-2.549c1.59-0.018,1.982,1.104,2,2.34
			C51.971,60.014,51.921,58.668,51.921,62.438z"/>
		<path fill-rule="evenodd" clip-rule="evenodd" fill="#B3B3B3" d="M52.264,35.239c-1.675,0-2.666,0-4.13,0
			c0.246-1.313,0.38-2.552,0.8-3.714c0.093-0.247,1.655-0.381,1.79-0.152C51.332,32.477,51.693,33.735,52.264,35.239z"/>
	</g>
</g>
</svg>
