<?xml version="1.0" encoding="utf-8"?>
<!-- Generator: Adobe Illustrator 16.0.0, SVG Export Plug-In . SVG Version: 6.00 Build 0)  -->
<!DOCTYPE svg PUBLIC "-//W3C//DTD SVG 1.1//EN" "http://www.w3.org/Graphics/SVG/1.1/DTD/svg11.dtd">
<svg version="1.1" id="Layer_1" xmlns="http://www.w3.org/2000/svg" xmlns:xlink="http://www.w3.org/1999/xlink" x="0px" y="0px"
	 width="100px" height="82px" viewBox="0 0 100 82" enable-background="new 0 0 100 82" xml:space="preserve">
<g>
	<path fill="#FFE680" d="M100,79.441C100,80.787,98.639,82,97.291,82H2.169C0.822,82,0,80.787,0,79.441V2.318
		C0,0.971,0.822,0,2.169,0h95.122C98.639,0,100,0.971,100,2.318V79.441z"/>
	<g opacity="0.35">
		<path fill-rule="evenodd" clip-rule="evenodd" fill="#B3B3B3" d="M48.106,21.815c-1.201,0-1.24,0-2.458,0c0-1.046,0-1.588,0-2.75
			c1.172,0,1.286,0,2.601,0c0-1.312,0-1.38,0-2.637c1.086,0,2.066,0,3.16,0c0,1.143,0,1.211,0,2.58c1.41,0,1.621,0,3.01,0
			c0,1.123,0,1.627,0,2.748c-1.268,0-1.486,0-2.725,0c-0.627,2.173-0.266,2.932,1.617,4.054c0.555,0.326,0.973,0.84,1.486,1.198
			c1.521,1.144,2.209,1.947,2.115,3.89c-0.115,2.227-0.098,3.165,0.018,5.393c0.039,0.724,0.439,1.638,0.973,2.115
			c3.521,3.14,7.139,6.168,10.729,9.252c1.76,1.502,1.99,2.951,0.238,4.379c-2.076,1.713-2.592,3.713-2.438,6.242
			c0.189,2.953,0.037,0.998,0.037,4.139c3.256,0,6.406,0,9.635,0c0,1.066,0,1.943,0,2.912c-17.441,0-34.824,0-52.293,0
			c0-0.893,0-1.77,0-2.816c3.104,0,9.53,0,9.53,0l0.036-4.365c0,0,0.393-3.311-2.408-6.111c-1.683-1.391-1.504-2.857,0.164-4.283
			c3.502-3.008,7.006-6.018,10.547-8.97c0.896-0.741,1.343-1.484,1.286-2.684c-0.104-2.229-0.021-2.521-0.029-4.75
			c-0.019-1.636,0.493-3.006,1.817-4.033c0.58-0.457,1.077-1.066,1.695-1.45C48.325,24.727,48.627,23.948,48.106,21.815z M63.5,62.4
			c0-4.15,0.018-3.283-0.039-7.357c0-0.357-0.457-0.779-0.779-1.084c-2.303-2.037-4.82-3.885-6.902-6.129
			c-2.143-2.287-4.58-3.027-7.512-2.609c-0.629,0.094-1.351,0.285-1.827,0.686c-3.046,2.568-6.036,5.197-9.027,7.824
			c-0.37,0.326-0.893,0.783-0.902,1.178c-0.064,4.133-0.048,3.301-0.048,7.492c2.876,0,5.55,0,8.424,0c0-0.627,0-1.199,0-1.771
			c0.012-2.969-0.027-0.996,0.012-3.965c0.035-2.877,1.371-4.857,3.529-5.445c3.522-0.955,6.456,1.291,6.542,5.08
			c0.057,3.145,0,1.32,0.01,4.461c0.01,0.557,0.047,1.105,0.064,1.641C57.959,62.4,60.643,62.4,63.5,62.4z M66.68,49.996
			c-3.15-2.699-6.301-5.215-9.234-7.977c-1.865-1.769-3.809-2.644-6.389-2.34c-1.573,0.19-3.19,0-4.769,0.057
			c-0.555,0.02-1.2,0.172-1.6,0.495c-3.827,3.201-7.597,6.437-11.423,9.691c0.646,0.688,1.197,1.26,1.758,1.846
			c2.059-1.789,4.22-3.311,5.934-5.234c3.141-3.541,6.854-5.102,11.508-4.264c0.875,0.15,1.867,0.4,2.523,0.949
			c3.332,2.781,6.568,5.695,9.939,8.605C65.518,51.195,66.049,50.646,66.68,49.996z M49.943,26.878
			c-0.857,0.664-1.602,1.179-2.247,1.788c-0.6,0.572-1.522,1.236-1.562,1.906c-0.18,2.721-0.075,3.508-0.075,6.213
			c2.77,0,5.292,0,7.958,0c0-2.664,0.02-3.321-0.021-5.911c0-0.302-0.234-0.665-0.475-0.893
			C52.379,28.953,51.219,27.964,49.943,26.878z"/>
		<path fill-rule="evenodd" clip-rule="evenodd" fill="#FFFFFF" d="M51.922,62.438c-1.361,0-3.969,0-3.969,0l0.01-1.049
			c0,0-0.021-1.527,0-4.766c0.018-1.715,0.665-2.549,1.94-2.549c1.589-0.018,1.982,1.104,2,2.34
			C51.971,60.014,51.922,58.668,51.922,62.438z"/>
		<path fill-rule="evenodd" clip-rule="evenodd" fill="#B3B3B3" d="M52.264,35.239c-1.674,0-2.666,0-4.129,0
			c0.246-1.313,0.38-2.552,0.8-3.714c0.093-0.247,1.656-0.381,1.791-0.152C51.332,32.477,51.693,33.735,52.264,35.239z"/>
	</g>
	<g>
		<g>
			<path fill="none" d="M45.269,29.008c-0.094,0.165-0.155,0.33-0.165,0.49c-0.09,1.361-0.108,2.207-0.104,3.087
				c-0.004-0.876,0.015-1.718,0.104-3.076C45.114,29.349,45.175,29.18,45.269,29.008z"/>
			<path fill="none" d="M50.873,54.994c-0.018-1.236-0.41-2.219-2-2.203c-1.275,0-1.923,0.797-1.94,2.512
				c-0.008,1.221-0.01,2.186-0.009,2.916c-0.001-0.711,0.001-1.646,0.009-2.838c0.018-1.715,0.665-2.549,1.94-2.549
				c1.59-0.018,1.983,0.945,2,2.182c0.029,1.566,0.037,2.311,0.035,2.9C50.91,57.318,50.902,56.57,50.873,54.994z"/>
			<path fill="none" d="M43.878,54.387L43.878,54.387L43.878,54.387z"/>
			<path fill="none" d="M44.074,53.436c-0.019,0.066-0.026,0.139-0.043,0.205C44.047,53.574,44.055,53.502,44.074,53.436z"/>
			<path fill="none" d="M44.382,52.582c-0.046,0.102-0.077,0.215-0.117,0.322C44.305,52.797,44.336,52.684,44.382,52.582z"/>
			<path fill="none" d="M44.792,51.836c-0.041,0.062-0.07,0.133-0.108,0.195C44.722,51.969,44.751,51.898,44.792,51.836z"/>
			<path fill="none" d="M52.992,32.691c0,0.819-0.004,1.691-0.004,3.188C52.988,34.379,52.992,33.509,52.992,32.691z"/>
			<path fill="none" d="M52.928,29.567c-0.074-0.288-0.254-0.632-0.438-0.807c-1.143-1.029-2.303-1.996-3.578-3.082
				c1.275,1.086,2.435,2.116,3.578,3.146C52.674,28.998,52.854,29.299,52.928,29.567z"/>
			<path fill="none" d="M62.43,53.66c0-0.359-0.455-0.643-0.779-0.947c-2.303-2.037-4.818-3.889-6.9-6.133
				c-2.145-2.287-4.58-3.037-7.513-2.619c-0.629,0.094-1.351,0.268-1.827,0.668c-3.046,2.568-6.036,5.162-9.027,7.789
				c-0.37,0.326-0.893,0.715-0.902,1.109c0.01-0.395,0.532-0.713,0.902-1.039c2.991-2.627,5.981-5.256,9.027-7.824
				c0.477-0.4,1.198-0.592,1.827-0.686c2.933-0.418,5.369,0.322,7.513,2.609c2.082,2.244,4.598,4.092,6.9,6.129
				c0.324,0.305,0.779,0.586,0.779,0.945c0.035,2.545,0.043,3.166,0.043,4.25C62.473,56.826,62.465,56.207,62.43,53.66z"/>
			<path fill="none" d="M61.65,52.717c-2.303-2.037-4.818-3.885-6.9-6.129c-2.145-2.287-4.58-3.027-7.513-2.609
				c-0.629,0.094-1.351,0.285-1.827,0.686c-3.046,2.568-6.036,5.197-9.027,7.824c-0.37,0.326-0.893,0.705-0.902,1.1
				C35.416,57.721,35.432,57,35.432,61C38.308,61,41,61,44,61c0,0,0-1.041,0-1.613c0-2.969-0.1-1.014-0.061-3.982
				c0.004-0.352-0.038-0.691,0.006-1.018l0,0c0.036-0.26,0.059-0.504,0.119-0.746c0.017-0.066,0.008-0.139,0.026-0.205
				c0.053-0.188,0.115-0.357,0.183-0.531c0.04-0.107,0.067-0.221,0.113-0.322c0.088-0.195,0.193-0.373,0.299-0.551
				c0.038-0.062,0.066-0.133,0.107-0.195c0.624-0.943,1.517-1.598,2.604-1.895c3.523-0.955,6.456,1.256,6.542,5.045
				c0.055,3.145,0,1.312,0.01,4.453C53.957,59.994,53.994,61,54.014,61C56.93,61,60,61,63,61c0,0,0-0.602,0-0.816
				c0-1.072-0.262-1.73-0.262-2.271c0-1.084-0.14-1.705-0.175-4.25C62.563,53.303,61.975,53.021,61.65,52.717z"/>
			<path fill="none" d="M52.988,36c0-2,0.004-2.43,0.004-3.249c0-0.818-0.006-1.615-0.025-2.91c0-0.071-0.016-0.17-0.039-0.259
				c-0.074-0.268-0.254-0.577-0.438-0.751c-1.143-1.029-2.303-2.063-3.578-3.149c-0.857,0.664-1.602,1.219-2.247,1.828
				c-0.456,0.436-1.098,0.972-1.396,1.499c-0.094,0.172-0.155,0.34-0.165,0.5c-0.09,1.358-0.108,2.26-0.104,3.136
				C45.002,33.526,45.029,34,45.029,36C47.798,36,50.32,36,52.988,36z"/>
			<path fill="none" d="M56.414,40.778c-1.865-1.77-3.809-2.645-6.387-2.341c-1.574,0.19-3.191,0-4.77,0.057
				c-0.555,0.02-1.2,0.172-1.6,0.495c-3.827,3.201-7.597,6.437-11.423,9.691c0.646,0.688,1.197,1.26,1.758,1.846
				c2.059-1.789,4.22-3.311,5.934-5.234c3.141-3.542,6.854-5.102,11.507-4.264c0.875,0.151,1.869,0.4,2.523,0.95
				c3.332,2.781,6.568,5.695,9.939,8.605c0.592-0.629,1.123-1.178,1.752-1.828C62.498,46.055,59.348,43.539,56.414,40.778z"/>
			<path fill="#FFFFFF" d="M65.438,61c0-3,0.152-1.098-0.037-4.051c-0.152-2.529,0.363-4.485,2.439-6.198
				c1.75-1.428,1.521-2.854-0.24-4.356c-3.59-3.084-7.205-6.103-10.729-9.242c-0.533-0.478-0.932-1.386-0.973-2.109
				c-0.113-2.229-0.131-3.164-0.018-5.391c0.096-1.942-0.592-2.744-2.115-3.888c-0.514-0.358-0.932-0.629-1.484-0.955
				C50.398,23.688,50.037,23,50.662,21C51.9,21,52,21,54,21c0-1,0-2,0-3c-2,0-2,0-3,0c0-1,0-2,0-3c-1,0-2,0-4,0c0,2,0,2,0,3
				c-1,0-1,0-2,0c0,1,0,2,0,3c1,0,0.875,0,2.076,0c0.521,2,0.219,2.698-1.657,3.838c-0.618,0.384-1.115,0.886-1.695,1.343
				c-1.324,1.027-1.836,2.344-1.817,3.98c0.009,2.229-0.075,2.495,0.029,4.724c0.057,1.199-0.391,1.929-1.286,2.67
				c-3.541,2.952-7.045,5.957-10.547,8.964c-1.668,1.426-1.847,2.888-0.164,4.278c2.801,2.801,2.408,5.974,2.408,5.974L32.31,61
				c0,0-6.31,0-9.31,0c0,1,0,2,0,3c18,0,35,0,52,0c0-1,0-2,0-3C72,61,68.695,61,65.438,61z M45.104,29.499
				c0.01-0.16,0.071-0.325,0.165-0.49c0.299-0.548,0.94-1.127,1.396-1.562c0.646-0.609,1.39-1.104,2.247-1.768
				c1.275,1.086,2.435,2.053,3.578,3.082c0.184,0.175,0.363,0.519,0.438,0.807c0.023,0.082,0.039,0.162,0.039,0.233
				c0.02,1.298,0.025,2.127,0.025,2.951c0,0.818-0.004,1.249-0.004,3.249c-2.668,0-5.19,0-7.959,0c0-2-0.026-2.476-0.029-3.354
				C44.996,31.766,45.014,30.86,45.104,29.499z M50.891,61c-1.36,0-3.968,0-3.968,0l0.01-0.951c0,0-0.008-0.581-0.009-1.8
				c-0.001-0.73,0.001-1.71,0.009-2.931c0.018-1.715,0.665-2.52,1.94-2.52c1.59-0.016,1.983,0.963,2,2.199
				c0.029,1.576,0.037,2.383,0.035,2.979C50.906,58.744,50.891,59,50.891,61z M63,60.184C63,60.398,63,61,63,61c-3,0-6.07,0-8.986,0
				c-0.02,0-0.064-1.006-0.072-1.561c-0.01-3.141,0.037-1.208-0.018-4.353c-0.086-3.789-3.035-6.05-6.558-5.095
				c-1.077,0.293-1.958,0.926-2.573,1.852c-0.041,0.062-0.07,0.129-0.108,0.191c-0.107,0.178-0.214,0.354-0.302,0.549
				c-0.046,0.102-0.077,0.214-0.117,0.321c-0.067,0.174-0.14,0.343-0.191,0.53c-0.019,0.066-0.026,0.139-0.043,0.205
				c-0.06,0.242-0.116,0.486-0.152,0.746l0,0c-0.045,0.332,0.065,0.676,0.061,1.035C43.9,58.391,44,56.418,44,59.387
				C44,59.959,44,61,44,61c-3,0-5.692,0-8.568,0c0-4-0.017-3.279,0.048-7.412c0.01-0.395,0.532-0.813,0.902-1.14
				c2.991-2.627,5.981-5.235,9.027-7.804c0.477-0.4,1.198-0.582,1.827-0.676c2.933-0.418,5.369,0.328,7.513,2.615
				c2.082,2.244,4.598,4.094,6.9,6.131c0.324,0.305,0.779,0.587,0.779,0.946c0.035,2.547,0.309,3.165,0.309,4.251
				C62.738,58.453,63,59.111,63,60.184z M53.957,41.977c-0.654-0.55-1.648-0.799-2.523-0.95c-4.654-0.838-8.367,0.723-11.507,4.264
				c-1.714,1.924-3.875,3.445-5.934,5.234c-0.561-0.586-1.111-1.158-1.758-1.846c3.826-3.254,7.596-6.49,11.423-9.691
				c0.399-0.323,1.045-0.476,1.6-0.495c1.579-0.057,3.196,0.134,4.77-0.057c2.578-0.304,4.521,0.571,6.387,2.341
				c2.934,2.761,6.084,5.277,9.234,7.976c-0.629,0.65-1.16,1.199-1.752,1.828C60.525,47.672,57.289,44.758,53.957,41.977z"/>
			<path fill="#FFFFFF" d="M44.684,52.031c-0.106,0.178-0.214,0.355-0.302,0.551C44.47,52.387,44.577,52.209,44.684,52.031z"/>
			<path fill="#FFFFFF" d="M43.73,59.387c0-2.969,0.035-0.996,0.074-3.965c0.004-0.359,0.029-0.703,0.074-1.035
				c-0.044,0.326-0.07,0.666-0.074,1.018C43.765,58.373,43.73,56.418,43.73,59.387z"/>
			<path fill="#FFFFFF" d="M53.939,54.986c-0.086-3.789-3.02-6-6.542-5.045c-1.087,0.297-1.98,0.951-2.604,1.895
				c0.615-0.926,1.496-1.566,2.573-1.859c3.523-0.955,6.472,1.291,6.558,5.08c0.055,3.145,0.008,1.182,0.018,4.322
				c0.008,0.555,0.053,1.5,0.072,1.5c-0.02,0-0.057-0.945-0.064-1.5C53.939,56.238,53.994,58.131,53.939,54.986z"/>
			<path fill="#FFFFFF" d="M62.473,57.912c0,0.541-0.002,1.199-0.004,2.271C62.471,59.111,62.473,58.453,62.473,57.912z"/>
			<path fill="#FFFFFF" d="M44.031,53.641c-0.06,0.242-0.116,0.486-0.152,0.746C43.915,54.127,43.971,53.883,44.031,53.641z"/>
			<path fill="#FFFFFF" d="M44.265,52.904c-0.067,0.174-0.139,0.344-0.191,0.531C44.125,53.248,44.198,53.078,44.265,52.904z"/>
			<path fill="#FFFFFF" d="M46.666,27.508c0.646-0.609,1.39-1.166,2.247-1.83c-0.857,0.664-1.602,1.158-2.247,1.768
				c-0.456,0.436-1.098,1.015-1.396,1.562C45.568,28.481,46.209,27.944,46.666,27.508z"/>
			<path fill="#FFFFFF" d="M52.992,32.691c0-0.823-0.006-1.593-0.025-2.891c0-0.071-0.016-0.151-0.039-0.233
				c0.023,0.089,0.039,0.173,0.039,0.244C52.986,31.106,52.992,31.873,52.992,32.691z"/>
			<path fill="#FFFFFF" d="M45.029,35.879c0-1.499-0.026-2.414-0.029-3.294C45.002,33.464,45.029,34.377,45.029,35.879z"/>
			<path fill="#FFFFFF" d="M50.908,57.914c-0.002,0.766-0.018,1.277-0.018,2.965C50.891,59.184,50.906,58.682,50.908,57.914z"/>
			<path fill="#FFFFFF" d="M46.932,59.988c0,0-0.008-0.562-0.009-1.77C46.924,59.438,46.932,59.988,46.932,59.988z"/>
		</g>
		<path fill-rule="evenodd" clip-rule="evenodd" fill="#FFFFFF" d="M51.234,33.997c-1.675,0-2.667,0-4.13,0
			c0.246-1.313,0.38-2.552,0.8-3.714c0.093-0.247,1.655-0.381,1.79-0.152C50.301,31.235,50.662,32.493,51.234,33.997z"/>
	</g>
</g>
</svg>
