<?xml version="1.0" encoding="utf-8"?>
<!-- Generator: Adobe Illustrator 16.0.0, SVG Export Plug-In . SVG Version: 6.00 Build 0)  -->
<!DOCTYPE svg PUBLIC "-//W3C//DTD SVG 1.1//EN" "http://www.w3.org/Graphics/SVG/1.1/DTD/svg11.dtd">
<svg version="1.1" id="Layer_1" xmlns="http://www.w3.org/2000/svg" xmlns:xlink="http://www.w3.org/1999/xlink" x="0px" y="0px"
	 width="100px" height="82px" viewBox="0 0 100 82" enable-background="new 0 0 100 82" xml:space="preserve">
<g>
	<path fill="#FFE680" d="M100,79.562C100,80.908,98.908,82,97.561,82H2.439C1.092,82,0,80.908,0,79.562V2.438
		C0,1.092,1.092,0,2.439,0h95.121C98.908,0,100,1.092,100,2.438V79.562z"/>
	<g opacity="0.35">
		<path fill="#FFFFFF" d="M20.595,64.897c19.688,0,39.24,0,58.757,0c0-1.083,0-2.055,0-3.141c-1.332,0-2.533,0-3.827,0
			c-0.038-3.427-1.485-5.56-5.104-5.674c0-9.062,0-11.777,0-20.915c1.561,0,3.028,0.037,4.493,0
			c1.829-0.059,2.723-0.973,2.858-2.763c0.168-2.266-0.479-3.37-2.782-4.434c-7.635-3.564-15.288-7.074-22.904-10.625
			c-1.407-0.658-2.723-0.64-4.112,0.018c-4.645,2.189-9.331,4.323-13.976,6.473c-3.179,1.467-6.358,2.934-9.521,4.417
			c-1.939,0.937-2.608,2.609-2.055,4.95c0.322,1.43,1.314,1.964,3.522,1.964c1.218,0,2.419,0,3.694,0c0,9.138,0,11.853,0,20.915
			c-3.676,0.076-5.009,2.322-5.105,5.731c-1.368,0-2.625,0-3.939,0C20.595,62.9,20.595,63.849,20.595,64.897z"/>
		<path fill-rule="evenodd" clip-rule="evenodd" fill="#B3B3B3" d="M20.595,64.897c0-1.048,0-1.997,0-3.083c1.314,0,2.571,0,3.939,0
			c0.097-3.409,1.43-5.655,5.105-5.731c0-9.062,0-11.777,0-20.915c-1.275,0-2.477,0-3.694,0c-2.208,0-3.2-0.534-3.522-1.964
			c-0.554-2.341,0.115-4.014,2.055-4.95c3.162-1.483,6.342-2.95,9.521-4.417c4.645-2.149,9.331-4.283,13.976-6.473
			c1.39-0.657,2.705-0.676,4.112-0.018c7.616,3.551,15.27,7.061,22.904,10.625c2.304,1.063,2.95,2.168,2.782,4.434
			c-0.136,1.79-1.029,2.704-2.858,2.763c-1.465,0.037-2.933,0-4.493,0c0,9.138,0,11.853,0,20.915
			c3.618,0.114,5.065,2.247,5.104,5.674c1.294,0,2.495,0,3.827,0c0,1.086,0,2.058,0,3.141
			C59.835,64.897,40.283,64.897,20.595,64.897z M67.262,56.14c0-9.196,0-11.911,0-20.879c-11.538,0-22.964,0-34.5,0
			c0,9.044,0,11.739,0,20.879c2.969,0,5.863,0,8.721,0c0,1.122,0,2.036,0,3.104c-4.001,0-7.921,0-11.825,0
			c-1.865,0.02-2.304,0.607-1.886,2.455c14.89,0,29.759,0,44.631,0c0-2.133-0.307-2.436-2.267-2.455c-1.048,0-2.112,0-3.18,0
			c-2.799,0-5.578,0-8.416,0c0-1.125,0-2.059,0-3.104C61.472,56.14,64.33,56.14,67.262,56.14z M25.127,31.604
			c0.132,0.193,0.247,0.383,0.379,0.555c1.372,0,2.743-0.097,4.112,0.018c2.247,0.192,4.248-0.4,6.266-1.352
			c4.341-2.057,8.757-3.998,13.176-5.931c0.533-0.238,1.351-0.273,1.865-0.048c4.951,2.171,9.882,4.379,14.775,6.627
			c2.97,1.352,5.979,0.381,9.101,0.381c-0.419-0.688-0.933-1.105-1.505-1.391c-6.624-3.087-13.308-6.037-19.857-9.282
			c-2.417-1.188-4.342-1.229-6.779-0.018c-6.587,3.284-13.326,6.234-19.992,9.338C26.096,30.768,25.639,31.245,25.127,31.604z
			 M59.857,32.101c-3.372-1.523-6.323-2.876-9.274-4.188c-0.304-0.113-0.743-0.135-1.048,0c-2.969,1.294-5.901,2.646-8.873,3.978
			c0.021,0.078,0.039,0.135,0.057,0.211C46.946,32.101,53.154,32.101,59.857,32.101z"/>
		<path fill-rule="evenodd" clip-rule="evenodd" fill="#FFFFFF" d="M67.262,56.14c-2.933,0-5.79,0-8.722,0c0,1.046,0,1.979,0,3.104
			c2.838,0,5.617,0,8.416,0c1.067,0,2.132,0,3.18,0c1.96,0.02,2.267,0.322,2.267,2.455c-14.872,0-29.741,0-44.631,0
			c-0.418-1.848,0.021-2.436,1.886-2.455c3.904,0,7.824,0,11.825,0c0-1.068,0-1.982,0-3.104c-2.857,0-5.752,0-8.721,0
			c0-9.14,0-11.835,0-20.879c11.536,0,22.962,0,34.5,0C67.262,44.229,67.262,46.944,67.262,56.14z M52.791,50.729
			c0,3.125,0,5.468,0,8.402c1.086,0,1.961,0,2.836,0c0-4.038,0-7.299,0-11.258c-3.751,0-7.424,0-11.136,0c0,4.035,0,7.335,0,11.275
			c0.97,0,1.848,0,2.894,0c0-3.084,0-5.43,0-8.42C49.211,50.729,50.85,50.729,52.791,50.729z M63.854,43.092
			c-9.331,0-18.487,0-27.608,0c0,0.99,0,1.848,0,2.705c9.271,0,18.431,0,27.608,0C63.854,44.845,63.854,44.006,63.854,43.092z
			 M40.073,54.442c0-2.284,0-4.415,0-6.53c-1.351,0-2.552,0-3.809,0c0,2.21,0,4.341,0,6.53
			C37.579,54.442,38.779,54.442,40.073,54.442z M59.95,54.424c1.372,0,2.571,0,3.827,0c0-2.19,0-4.324,0-6.492
			c-1.333,0-2.552,0-3.827,0C59.95,50.14,59.95,52.234,59.95,54.424z M56.352,37.817c0,2.305,0,1.428,0,3.542
			c1.236,0,2.323,0,3.483,0c0-2.229,0-1.352,0-3.542C58.618,37.817,57.531,37.817,56.352,37.817z M40.283,37.838
			c0,2.244,0,1.367,0,3.521c1.2,0,2.283,0,3.447,0c0-2.211,0-1.334,0-3.521C42.566,37.838,41.483,37.838,40.283,37.838z
			 M51.726,41.376c0-2.264,0-1.387,0-3.538c-1.201,0-2.287,0-3.391,0c0,2.228,0,1.367,0,3.538
			C49.497,41.376,50.543,41.376,51.726,41.376z"/>
		<path fill-rule="evenodd" clip-rule="evenodd" fill="#FFFFFF" d="M25.127,31.604c0.512-0.359,0.969-0.836,1.54-1.103
			c6.666-3.104,13.405-6.054,19.992-9.338c2.438-1.211,4.362-1.17,6.779,0.018c6.55,3.245,13.233,6.195,19.857,9.282
			c0.572,0.285,1.086,0.703,1.505,1.391c-3.122,0-6.131,0.971-9.101-0.381c-4.894-2.248-9.824-4.456-14.775-6.627
			c-0.515-0.226-1.332-0.19-1.865,0.048c-4.419,1.933-8.835,3.874-13.176,5.931c-2.018,0.951-4.019,1.544-6.266,1.352
			c-1.369-0.114-2.74-0.018-4.112-0.018C25.375,31.987,25.259,31.797,25.127,31.604z"/>
		<path fill-rule="evenodd" clip-rule="evenodd" fill="#FFFFFF" d="M59.857,32.101c-6.703,0-12.911,0-19.139,0
			c-0.018-0.076-0.035-0.133-0.057-0.211c2.972-1.332,5.904-2.684,8.873-3.978c0.305-0.135,0.744-0.113,1.048,0
			C53.534,29.225,56.485,30.578,59.857,32.101z"/>
		<path fill-rule="evenodd" clip-rule="evenodd" fill="#B3B3B3" d="M52.791,50.729c-1.94,0-3.579,0-5.406,0c0,2.99,0,5.336,0,8.42
			c-1.046,0-1.924,0-2.894,0c0-3.94,0-7.24,0-11.275c3.712,0,7.385,0,11.136,0c0,3.959,0,7.22,0,11.258c-0.875,0-1.75,0-2.836,0
			C52.791,56.197,52.791,53.854,52.791,50.729z"/>
		<path fill-rule="evenodd" clip-rule="evenodd" fill="#B3B3B3" d="M63.854,43.092c0,0.914,0,1.753,0,2.705
			c-9.178,0-18.337,0-27.608,0c0-0.857,0-1.715,0-2.705C45.367,43.092,54.523,43.092,63.854,43.092z"/>
		<path fill-rule="evenodd" clip-rule="evenodd" fill="#B3B3B3" d="M40.073,54.442c-1.294,0-2.494,0-3.809,0c0-2.189,0-4.32,0-6.53
			c1.257,0,2.458,0,3.809,0C40.073,50.027,40.073,52.158,40.073,54.442z"/>
		<path fill-rule="evenodd" clip-rule="evenodd" fill="#B3B3B3" d="M59.95,54.424c0-2.19,0-4.284,0-6.492c1.275,0,2.494,0,3.827,0
			c0,2.168,0,4.302,0,6.492C62.521,54.424,61.322,54.424,59.95,54.424z"/>
		<path fill-rule="evenodd" clip-rule="evenodd" fill="#B3B3B3" d="M56.352,37.817c1.179,0,2.266,0,3.483,0c0,2.19,0,1.312,0,3.542
			c-1.16,0-2.247,0-3.483,0C56.352,39.245,56.352,40.122,56.352,37.817z"/>
		<path fill-rule="evenodd" clip-rule="evenodd" fill="#B3B3B3" d="M40.283,37.838c1.2,0,2.283,0,3.447,0c0,2.187,0,1.31,0,3.521
			c-1.164,0-2.247,0-3.447,0C40.283,39.206,40.283,40.083,40.283,37.838z"/>
		<path fill-rule="evenodd" clip-rule="evenodd" fill="#B3B3B3" d="M51.726,41.376c-1.183,0-2.229,0-3.391,0
			c0-2.171,0-1.311,0-3.538c1.104,0,2.189,0,3.391,0C51.726,39.99,51.726,39.113,51.726,41.376z"/>
	</g>
	<g>
		<path fill-rule="evenodd" clip-rule="evenodd" fill="#FFFFFF" d="M19.586,63.897c0-1.048,0-1.997,0-3.083c1.314,0,2.571,0,3.939,0
			c0.097-3.409,1.43-5.655,5.105-5.731c0-9.062,0-11.777,0-20.915c-1.275,0-2.477,0-3.694,0c-2.208,0-3.2-0.534-3.522-1.964
			c-0.554-2.341,0.115-4.014,2.055-4.95c3.162-1.483,6.342-2.95,9.521-4.417c4.645-2.149,9.331-4.283,13.976-6.473
			c1.39-0.657,2.705-0.676,4.112-0.018c7.616,3.551,15.27,7.061,22.904,10.625c2.304,1.063,2.95,2.168,2.782,4.434
			c-0.136,1.79-1.029,2.704-2.858,2.763c-1.465,0.037-2.933,0-4.493,0c0,9.138,0,11.853,0,20.915
			c3.618,0.114,5.065,2.247,5.104,5.674c1.294,0,2.495,0,3.827,0c0,1.086,0,2.058,0,3.141
			C58.827,63.897,39.274,63.897,19.586,63.897z M66.253,55.14c0-9.196,0-11.911,0-20.879c-11.538,0-22.964,0-34.5,0
			c0,9.044,0,11.739,0,20.879c2.969,0,5.863,0,8.721,0c0,1.122,0,2.036,0,3.104c-4.001,0-7.921,0-11.825,0
			c-1.865,0.02-2.304,0.607-1.886,2.455c14.89,0,29.759,0,44.631,0c0-2.133-0.307-2.436-2.267-2.455c-1.048,0-2.112,0-3.18,0
			c-2.799,0-5.578,0-8.416,0c0-1.125,0-2.059,0-3.104C60.463,55.14,63.321,55.14,66.253,55.14z M24.119,30.604
			c0.132,0.193,0.247,0.383,0.379,0.555c1.372,0,2.743-0.097,4.112,0.018c2.247,0.192,4.248-0.4,6.266-1.352
			c4.341-2.057,8.757-3.998,13.176-5.931c0.533-0.238,1.351-0.273,1.865-0.048c4.951,2.171,9.882,4.379,14.775,6.627
			c2.97,1.352,5.979,0.381,9.101,0.381c-0.419-0.688-0.933-1.105-1.505-1.391c-6.624-3.087-13.308-6.037-19.857-9.282
			c-2.417-1.188-4.342-1.229-6.779-0.018c-6.587,3.284-13.326,6.234-19.992,9.338C25.087,29.768,24.63,30.245,24.119,30.604z
			 M58.848,31.101c-3.372-1.523-6.323-2.876-9.274-4.188c-0.304-0.113-0.743-0.135-1.048,0c-2.969,1.294-5.901,2.646-8.873,3.978
			c0.021,0.078,0.039,0.135,0.057,0.211C45.937,31.101,52.145,31.101,58.848,31.101z"/>
		<path fill-rule="evenodd" clip-rule="evenodd" fill="#FFFFFF" d="M51.782,49.729c-1.94,0-3.579,0-5.406,0c0,2.99,0,5.336,0,8.42
			c-1.046,0-1.924,0-2.894,0c0-3.94,0-7.24,0-11.275c3.712,0,7.385,0,11.136,0c0,3.959,0,7.22,0,11.258c-0.875,0-1.75,0-2.836,0
			C51.782,55.197,51.782,52.854,51.782,49.729z"/>
		<path fill-rule="evenodd" clip-rule="evenodd" fill="#FFFFFF" d="M62.845,42.092c0,0.914,0,1.753,0,2.705
			c-9.178,0-18.337,0-27.608,0c0-0.857,0-1.715,0-2.705C44.358,42.092,53.514,42.092,62.845,42.092z"/>
		<path fill-rule="evenodd" clip-rule="evenodd" fill="#FFFFFF" d="M39.064,53.442c-1.294,0-2.494,0-3.809,0c0-2.189,0-4.32,0-6.53
			c1.257,0,2.458,0,3.809,0C39.064,49.027,39.064,51.158,39.064,53.442z"/>
		<path fill-rule="evenodd" clip-rule="evenodd" fill="#FFFFFF" d="M58.941,53.424c0-2.19,0-4.284,0-6.492c1.275,0,2.494,0,3.827,0
			c0,2.168,0,4.302,0,6.492C61.512,53.424,60.313,53.424,58.941,53.424z"/>
		<path fill-rule="evenodd" clip-rule="evenodd" fill="#FFFFFF" d="M55.343,36.817c1.179,0,2.266,0,3.483,0c0,2.19,0,1.312,0,3.542
			c-1.16,0-2.247,0-3.483,0C55.343,38.245,55.343,39.122,55.343,36.817z"/>
		<path fill-rule="evenodd" clip-rule="evenodd" fill="#FFFFFF" d="M39.274,36.838c1.2,0,2.283,0,3.447,0c0,2.187,0,1.31,0,3.521
			c-1.164,0-2.247,0-3.447,0C39.274,38.206,39.274,39.083,39.274,36.838z"/>
		<path fill-rule="evenodd" clip-rule="evenodd" fill="#FFFFFF" d="M50.717,40.376c-1.183,0-2.229,0-3.391,0
			c0-2.171,0-1.311,0-3.538c1.104,0,2.189,0,3.391,0C50.717,38.99,50.717,38.113,50.717,40.376z"/>
	</g>
</g>
</svg>
