<?xml version="1.0" encoding="utf-8"?>
<!-- Generator: Adobe Illustrator 16.0.0, SVG Export Plug-In . SVG Version: 6.00 Build 0)  -->
<!DOCTYPE svg PUBLIC "-//W3C//DTD SVG 1.1//EN" "http://www.w3.org/Graphics/SVG/1.1/DTD/svg11.dtd">
<svg version="1.1" id="Layer_1" xmlns="http://www.w3.org/2000/svg" xmlns:xlink="http://www.w3.org/1999/xlink" x="0px" y="0px"
	 width="100px" height="82px" viewBox="0 0 100 82" enable-background="new 0 0 100 82" xml:space="preserve">
<g>
	<path fill="#FFE680" d="M100,79.441C100,80.787,98.639,82,97.291,82H2.169C0.822,82,0,80.787,0,79.441V2.318
		C0,0.971,0.822,0,2.169,0h95.121C98.639,0,100,0.971,100,2.318V79.441z"/>
	<g opacity="0.35">
		<path fill="#FFFFFF" d="M28,57.846c0,1.102,0,1.951,0,2.793c14.653,0,29.185,0,43.792,0c0-0.922,0-1.77,0-2.83
			c-1.2,0-2.328,0-3.451,0c0-6.078,0-10.006,0-16.021c1.192,0,2.296,0,3.444,0c0-0.989,0-1.848,0-2.741c-14.637,0-29.203,0-43.804,0
			c0,0.946,0,1.796,0,2.805c1.245,0,2.392,0,3.592,0c0,6.043,0,9.965,0,15.995C30.364,57.846,29.216,57.846,28,57.846z"/>
		<path fill="#FFFFFF" d="M49.825,37.174c0,0,0,0,0-0.01c7.524,0,15.048-0.007,22.571,0.01c1.394,0,2.925,0.088,3.435-1.542
			c0.516-1.63-0.815-2.435-1.953-3.223c-6.561-4.499-13.113-9.005-19.672-13.507c-2.918-2.016-5.616-2.031-8.532-0.032
			c-4.598,3.134-9.188,6.27-13.759,9.429c-2.444,1.693-4.905,3.373-7.254,5.188c-0.474,0.368-0.806,1.427-0.628,1.987
			c0.207,0.648,1.006,1.165,1.637,1.612c0.273,0.193,0.762,0.088,1.147,0.088C34.488,37.174,42.154,37.174,49.825,37.174z"/>
		<path fill="#FFFFFF" d="M74.716,61.723c-16.622,0-33.105,0-49.599,0c0,0.945,0,1.795,0,2.654c16.589,0,33.072,0,49.599,0
			C74.716,63.465,74.716,62.643,74.716,61.723z"/>
		<path fill-rule="evenodd" clip-rule="evenodd" fill="#B3B3B3" d="M28,57.846c1.217,0,2.364,0,3.573,0c0-6.029,0-9.951,0-15.995
			c-1.2,0-2.347,0-3.592,0c0-1.009,0-1.858,0-2.805c14.601,0,29.167,0,43.804,0c0,0.894,0,1.752,0,2.741c-1.148,0-2.252,0-3.444,0
			c0,6.015,0,9.943,0,16.021c1.123,0,2.251,0,3.451,0c0,1.061,0,1.908,0,2.83c-14.607,0-29.139,0-43.792,0
			C28,59.797,28,58.947,28,57.846z M53.74,41.885c0,6.042,0,9.968,0,15.855c2.34,0,4.592,0,6.85,0c0-5.992,0-9.918,0-15.855
			C58.287,41.885,56.06,41.885,53.74,41.885z M46,57.793c0-6.057,0-9.977,0-15.865c-2.314,0-4.529,0-6.729,0c0,6,0,9.925,0,15.865
			C41.548,57.793,43.731,57.793,46,57.793z M63.515,41.928c0,6,0,9.925,0,15.828c0.657,0,1.219,0,1.795,0c0-5.971,0-9.898,0-15.828
			C64.708,41.928,64.181,41.928,63.515,41.928z M50.807,57.781c0-5.98,0-9.924,0-15.81c-0.677,0-1.226,0-1.797,0
			c0,5.976,0,9.882,0,15.81C49.661,57.781,50.219,57.781,50.807,57.781z M36.241,57.809c0-6.023,0-9.967,0-15.95
			c-0.675,0.026-1.236,0.06-1.806,0.079c0,6.035,0,9.951,0,15.871C35.057,57.809,35.592,57.809,36.241,57.809z"/>
		<path fill-rule="evenodd" clip-rule="evenodd" fill="#B3B3B3" d="M49.825,37.174c-7.671,0-15.337,0-23.008,0
			c-0.386,0-0.874,0.105-1.147-0.088c-0.631-0.447-1.43-0.964-1.637-1.612c-0.178-0.561,0.154-1.619,0.628-1.987
			c2.349-1.814,4.81-3.494,7.254-5.188c4.571-3.159,9.161-6.295,13.759-9.429c2.916-1.999,5.614-1.983,8.532,0.032
			c6.559,4.502,13.111,9.008,19.672,13.507c1.138,0.788,2.469,1.593,1.953,3.223c-0.51,1.63-2.041,1.542-3.435,1.542
			c-7.523-0.017-15.047-0.01-22.571-0.01C49.825,37.174,49.825,37.174,49.825,37.174z M71.653,34.422
			c-0.388-0.331-0.499-0.454-0.641-0.56c-6.305-4.328-12.595-8.688-18.919-12.997c-1.47-0.999-3.031-0.929-4.52,0.088
			c-2.084,1.437-4.185,2.862-6.271,4.301c-4.283,2.939-8.556,5.885-12.839,8.82c1.785,0.349,3.521,0.453,5.236,0.295
			c1.052-0.085,2.199-0.401,3.076-0.962c4.027-2.646,8.005-5.393,11.944-8.181c0.921-0.639,1.499-0.596,2.402,0.035
			c4.106,2.891,8.267,5.692,12.428,8.514c0.396,0.271,0.842,0.611,1.279,0.631C67.001,34.46,69.166,34.422,71.653,34.422z
			 M59.083,34.397c-0.045-0.112-0.045-0.246-0.104-0.29c-2.847-1.96-5.687-3.941-8.565-5.849c-0.283-0.186-0.931-0.07-1.262,0.14
			c-1.358,0.858-2.663,1.806-3.985,2.714c-1.498,1.018-2.987,2.049-4.792,3.285C46.9,34.397,52.988,34.397,59.083,34.397z"/>
		<path fill-rule="evenodd" clip-rule="evenodd" fill="#B3B3B3" d="M74.716,61.723c0,0.92,0,1.742,0,2.654
			c-16.526,0-33.01,0-49.599,0c0-0.859,0-1.709,0-2.654C41.611,61.723,58.094,61.723,74.716,61.723z"/>
		<path fill-rule="evenodd" clip-rule="evenodd" fill="#FFFFFF" d="M53.74,41.885c2.32,0,4.547,0,6.85,0c0,5.937,0,9.863,0,15.855
			c-2.258,0-4.51,0-6.85,0C53.74,51.854,53.74,47.928,53.74,41.885z"/>
		<path fill-rule="evenodd" clip-rule="evenodd" fill="#FFFFFF" d="M46,57.793c-2.269,0-4.451,0-6.729,0c0-5.939,0-9.865,0-15.865
			c2.199,0,4.414,0,6.729,0C46,47.816,46,51.736,46,57.793z"/>
		<path fill-rule="evenodd" clip-rule="evenodd" fill="#FFFFFF" d="M63.515,41.928c0.666,0,1.192,0,1.795,0
			c0,5.929,0,9.857,0,15.828c-0.576,0-1.138,0-1.795,0C63.515,51.854,63.515,47.928,63.515,41.928z"/>
		<path fill-rule="evenodd" clip-rule="evenodd" fill="#FFFFFF" d="M50.807,57.781c-0.588,0-1.146,0-1.797,0
			c0-5.928,0-9.834,0-15.81c0.571,0,1.12,0,1.797,0C50.807,47.857,50.807,51.801,50.807,57.781z"/>
		<path fill-rule="evenodd" clip-rule="evenodd" fill="#FFFFFF" d="M36.241,57.809c-0.648,0-1.184,0-1.806,0
			c0-5.92,0-9.836,0-15.871c0.569-0.02,1.131-0.053,1.806-0.079C36.241,47.842,36.241,51.785,36.241,57.809z"/>
		<path fill-rule="evenodd" clip-rule="evenodd" fill="#FFFFFF" d="M71.653,34.422c-2.487,0-4.651,0.038-6.823-0.016
			c-0.438-0.02-0.884-0.359-1.279-0.631c-4.161-2.821-8.321-5.623-12.428-8.514c-0.903-0.631-1.481-0.674-2.402-0.035
			c-3.939,2.788-7.917,5.534-11.944,8.181c-0.877,0.561-2.024,0.877-3.076,0.962c-1.716,0.158-3.451,0.054-5.236-0.295
			c4.283-2.936,8.556-5.881,12.839-8.82c2.087-1.438,4.188-2.864,6.271-4.301c1.488-1.017,3.05-1.087,4.52-0.088
			c6.324,4.31,12.614,8.669,18.919,12.997C71.154,33.968,71.265,34.091,71.653,34.422z"/>
		<path fill-rule="evenodd" clip-rule="evenodd" fill="#FFFFFF" d="M59.083,34.397c-6.096,0-12.184,0-18.709,0
			c1.805-1.236,3.294-2.268,4.792-3.285c1.322-0.908,2.627-1.855,3.985-2.714c0.331-0.21,0.979-0.325,1.262-0.14
			c2.879,1.907,5.719,3.889,8.565,5.849C59.039,34.151,59.039,34.285,59.083,34.397z"/>
	</g>
	<g>
		<path fill="#FFFFFF" d="M73.81,60.723c-16.622,0-33.105,0-49.599,0c0,0.945,0,1.795,0,2.654c16.589,0,33.072,0,49.599,0
			C73.81,62.465,73.81,61.643,73.81,60.723z"/>
		<path fill-rule="evenodd" clip-rule="evenodd" fill="#FFFFFF" d="M27.093,56.846c1.217,0,2.364,0,3.573,0
			c0-6.029,0-9.951,0-15.995c-1.2,0-2.347,0-3.592,0c0-1.009,0-1.858,0-2.805c14.601,0,29.167,0,43.804,0c0,0.894,0,1.752,0,2.741
			c-1.148,0-2.252,0-3.444,0c0,6.015,0,9.943,0,16.021c1.123,0,2.251,0,3.451,0c0,1.061,0,1.908,0,2.83c-14.607,0-29.139,0-43.792,0
			C27.093,58.797,27.093,57.947,27.093,56.846z M52.833,40.885c0,6.042,0,9.968,0,15.855c2.34,0,4.592,0,6.85,0
			c0-5.992,0-9.918,0-15.855C57.38,40.885,55.154,40.885,52.833,40.885z M45.093,56.793c0-6.057,0-9.977,0-15.865
			c-2.314,0-4.529,0-6.729,0c0,6,0,9.925,0,15.865C40.642,56.793,42.825,56.793,45.093,56.793z M62.609,40.928c0,6,0,9.925,0,15.828
			c0.657,0,1.219,0,1.795,0c0-5.971,0-9.898,0-15.828C63.801,40.928,63.275,40.928,62.609,40.928z M49.901,56.781
			c0-5.98,0-9.924,0-15.81c-0.677,0-1.226,0-1.797,0c0,5.976,0,9.882,0,15.81C48.754,56.781,49.313,56.781,49.901,56.781z
			 M35.334,56.809c0-6.023,0-9.967,0-15.95c-0.675,0.026-1.236,0.06-1.806,0.079c0,6.035,0,9.951,0,15.871
			C34.151,56.809,34.686,56.809,35.334,56.809z"/>
		<path fill-rule="evenodd" clip-rule="evenodd" fill="#FFFFFF" d="M48.918,36.174c-7.671,0-15.337,0-23.008,0
			c-0.386,0-0.874,0.105-1.147-0.088c-0.631-0.447-1.43-0.964-1.637-1.612c-0.178-0.561,0.154-1.619,0.628-1.987
			c2.349-1.814,4.81-3.494,7.254-5.188c4.571-3.159,9.161-6.295,13.759-9.429c2.916-1.999,5.614-1.983,8.532,0.032
			c6.559,4.502,13.111,9.008,19.672,13.507c1.138,0.788,2.469,1.593,1.953,3.223c-0.51,1.63-2.041,1.542-3.435,1.542
			c-7.523-0.017-15.047-0.01-22.571-0.01C48.918,36.174,48.918,36.174,48.918,36.174z M70.747,33.422
			c-0.388-0.331-0.499-0.454-0.641-0.56c-6.305-4.328-12.595-8.688-18.919-12.997c-1.47-0.999-3.031-0.929-4.52,0.088
			c-2.084,1.437-4.185,2.862-6.271,4.301c-4.283,2.939-8.556,5.885-12.839,8.82c1.785,0.349,3.521,0.453,5.236,0.295
			c1.052-0.085,2.199-0.401,3.076-0.962c4.027-2.646,8.005-5.393,11.944-8.181c0.921-0.639,1.499-0.596,2.402,0.035
			c4.106,2.891,8.267,5.692,12.428,8.514c0.396,0.271,0.842,0.611,1.279,0.631C66.095,33.46,68.259,33.422,70.747,33.422z
			 M58.177,33.397c-0.045-0.112-0.045-0.246-0.104-0.29c-2.847-1.96-5.687-3.941-8.565-5.849c-0.283-0.186-0.931-0.07-1.262,0.14
			c-1.358,0.858-2.663,1.806-3.985,2.714c-1.498,1.018-2.987,2.049-4.792,3.285C45.994,33.397,52.082,33.397,58.177,33.397z"/>
		<path fill-rule="evenodd" clip-rule="evenodd" fill="#FFFFFF" d="M73.81,60.723c0,0.92,0,1.742,0,2.654
			c-16.526,0-33.01,0-49.599,0c0-0.859,0-1.709,0-2.654C40.705,60.723,57.188,60.723,73.81,60.723z"/>
	</g>
</g>
</svg>
