<?xml version="1.0" encoding="utf-8"?>
<!-- Generator: Adobe Illustrator 16.0.0, SVG Export Plug-In . SVG Version: 6.00 Build 0)  -->
<!DOCTYPE svg PUBLIC "-//W3C//DTD SVG 1.1//EN" "http://www.w3.org/Graphics/SVG/1.1/DTD/svg11.dtd">
<svg version="1.1" id="Layer_1" xmlns="http://www.w3.org/2000/svg" xmlns:xlink="http://www.w3.org/1999/xlink" x="0px" y="0px"
	 width="100px" height="82px" viewBox="0 0 100 82" enable-background="new 0 0 100 82" xml:space="preserve">
<g>
	<path fill="#EFEFEF" d="M100,79.441C100,80.787,98.639,82,97.291,82H2.169C0.822,82,0,80.787,0,79.441V2.318
		C0,0.971,0.822,0,2.169,0h95.122C98.639,0,100,0.971,100,2.318V79.441z"/>
	<g opacity="0.35">
		<path fill="#FFFFFF" d="M69.62,60.252c0-4.75,0.037-9.281-0.017-13.83c-0.021-0.957,0.293-1.413,1.189-1.779
			c3.286-1.305,5.213-5.944,3.853-9.082c-1.98-4.586-3.578-9.337-5.355-14.016c-0.917-2.4-2.386-3.429-4.861-3.429
			c-9.962-0.02-19.942-0.02-29.921,0c-2.497,0-3.945,1.028-4.845,3.409c-1.759,4.625-3.521,9.246-5.263,13.889
			c-1.578,4.201,0.624,8.475,4.898,9.632c0,5.042,0,10.071,0,15.206c-1.525,0-2.937,0-4.368,0c0,1.064,0,2.002,0,2.916
			c16.381,0,32.673,0,48.964,0c0-1.006,0-1.906,0-2.916C72.5,60.252,71.197,60.252,69.62,60.252z"/>
		<path fill-rule="evenodd" clip-rule="evenodd" fill="#B3B3B3" d="M69.62,60.252c1.577,0,2.88,0,4.274,0c0,1.01,0,1.91,0,2.916
			c-16.291,0-32.583,0-48.964,0c0-0.914,0-1.852,0-2.916c1.432,0,2.843,0,4.368,0c0-5.135,0-10.164,0-15.206
			c-4.274-1.157-6.477-5.431-4.898-9.632c1.741-4.643,3.504-9.264,5.263-13.889c0.899-2.381,2.348-3.409,4.845-3.409
			c9.979-0.02,19.959-0.02,29.921,0c2.476,0,3.944,1.028,4.861,3.429c1.777,4.679,3.375,9.43,5.355,14.016
			c1.36,3.138-0.566,7.777-3.853,9.082c-0.896,0.366-1.21,0.822-1.189,1.779C69.657,50.971,69.62,55.502,69.62,60.252z
			 M61.255,42.715c-1.284,1.67-3.322,2.68-5.742,2.696c-2.46,0.038-4.461-1.118-6.055-3.009c-1.652,1.965-3.65,3.009-6.071,3.009
			c-2.478,0-4.458-1.176-5.928-2.823c-1.025,0.732-1.852,1.797-2.822,1.963c-2.681,0.401-2.571,2.144-2.44,4.072
			c0.055,0.771,0.018,1.541,0.018,2.312c0,3.043,0,6.088,0,9.152c3.338,0,6.529,0,9.889,0c0-3.797,0-7.502,0-11.119
			c5.043,0,9.925,0,14.931,0c0,3.781,0,7.432,0,11.119c3.265,0,6.403,0,9.613,0c0-4.695,0.019-9.301-0.036-13.906
			c0-0.33-0.44-0.787-0.787-0.989C64.391,44.368,62.923,43.614,61.255,42.715z M38.986,20.958c-1.582,0-2.955,0.021-4.332,0
			c-1.173-0.019-1.888,0.512-2.293,1.634c-0.808,2.255-1.688,4.476-2.533,6.713c-0.77,2.017-1.504,4.039-2.275,6.109
			c3.084,0,5.965,0,8.899,0C37.294,30.608,38.12,25.912,38.986,20.958z M71.417,35.507c-1.76-4.625-3.375-9.007-5.119-13.338
			c-0.198-0.534-1.023-1.081-1.614-1.135c-1.503-0.166-3.026-0.056-4.474-0.056c-0.073,0.2-0.11,0.256-0.11,0.292
			c0.75,4.513,1.486,9.024,2.291,13.538c0.037,0.275,0.606,0.661,0.937,0.679C65.914,35.543,68.519,35.507,71.417,35.507z
			 M51.019,21.035c0,4.858,0,9.61,0,14.362c2.881,0,5.647,0,8.49,0c-0.86-4.861-1.705-9.596-2.546-14.362
			C54.942,21.035,53.053,21.035,51.019,21.035z M47.9,35.471c0-4.898,0-9.67,0-14.457c-2,0-3.891,0-5.962,0
			c-0.827,4.787-1.652,9.576-2.496,14.457C42.377,35.471,45.075,35.471,47.9,35.471z M53.9,59.775c0-2.732,0-5.318,0-7.869
			c-3.046,0-5.983,0-8.898,0c0,2.697,0,5.266,0,7.869C48.01,59.775,50.909,59.775,53.9,59.775z M59.971,38.572
			c-3.029,0-5.981,0-8.974,0c0.737,2.679,2.312,3.923,4.698,3.868C57.877,42.385,59.384,41.03,59.971,38.572z M26.931,38.423
			c0.312,2.514,1.998,4.001,4.385,4.001c2.401,0.016,4.108-1.505,4.42-3.947c-0.403-0.015-0.808-0.054-1.209-0.054
			C32.031,38.423,29.535,38.423,26.931,38.423z M63.217,38.477c0.275,2.404,2.001,3.926,4.347,3.947
			c2.387,0.033,4.165-1.526,4.44-3.947C69.105,38.477,66.208,38.477,63.217,38.477z M39.019,38.497
			c0.331,2.606,2.258,4.127,4.899,3.906c2.128-0.165,3.872-1.945,3.777-3.906C44.816,38.497,41.917,38.497,39.019,38.497z"/>
		<path fill-rule="evenodd" clip-rule="evenodd" fill="#FFFFFF" d="M61.255,42.715c1.668,0.898,3.136,1.652,4.568,2.478
			c0.347,0.202,0.787,0.659,0.787,0.989c0.055,4.605,0.036,9.211,0.036,13.906c-3.21,0-6.349,0-9.613,0c0-3.688,0-7.338,0-11.119
			c-5.006,0-9.888,0-14.931,0c0,3.617,0,7.322,0,11.119c-3.359,0-6.551,0-9.889,0c0-3.064,0-6.109,0-9.152
			c0-0.771,0.037-1.541-0.018-2.312c-0.131-1.928-0.24-3.67,2.44-4.072c0.971-0.166,1.797-1.23,2.822-1.963
			c1.47,1.647,3.45,2.823,5.928,2.823c2.421,0,4.419-1.044,6.071-3.009c1.594,1.891,3.595,3.047,6.055,3.009
			C57.933,45.395,59.971,44.385,61.255,42.715z"/>
		<path fill-rule="evenodd" clip-rule="evenodd" fill="#FFFFFF" d="M38.986,20.958c-0.866,4.953-1.691,9.649-2.534,14.456
			c-2.935,0-5.815,0-8.899,0c0.771-2.07,1.506-4.093,2.275-6.109c0.845-2.237,1.726-4.458,2.533-6.713
			c0.405-1.122,1.12-1.652,2.293-1.634C36.031,20.979,37.404,20.958,38.986,20.958z"/>
		<path fill-rule="evenodd" clip-rule="evenodd" fill="#FFFFFF" d="M71.417,35.507c-2.897,0-5.503,0.036-8.09-0.02
			c-0.33-0.018-0.899-0.403-0.937-0.679c-0.805-4.514-1.541-9.025-2.291-13.538c0-0.036,0.037-0.092,0.11-0.292
			c1.447,0,2.971-0.11,4.474,0.056c0.591,0.054,1.416,0.601,1.614,1.135C68.042,26.5,69.657,30.882,71.417,35.507z"/>
		<path fill-rule="evenodd" clip-rule="evenodd" fill="#FFFFFF" d="M51.019,21.035c2.034,0,3.923,0,5.944,0
			c0.841,4.767,1.686,9.501,2.546,14.362c-2.843,0-5.609,0-8.49,0C51.019,30.645,51.019,25.893,51.019,21.035z"/>
		<path fill-rule="evenodd" clip-rule="evenodd" fill="#FFFFFF" d="M47.9,35.471c-2.825,0-5.522,0-8.458,0
			c0.844-4.881,1.669-9.67,2.496-14.457c2.071,0,3.962,0,5.962,0C47.9,25.801,47.9,30.573,47.9,35.471z"/>
		<path fill-rule="evenodd" clip-rule="evenodd" fill="#FFFFFF" d="M53.9,59.775c-2.991,0-5.89,0-8.898,0c0-2.604,0-5.172,0-7.869
			c2.915,0,5.853,0,8.898,0C53.9,54.457,53.9,57.043,53.9,59.775z"/>
		<path fill-rule="evenodd" clip-rule="evenodd" fill="#FFFFFF" d="M59.971,38.572c-0.587,2.458-2.094,3.813-4.275,3.868
			c-2.387,0.055-3.961-1.189-4.698-3.868C53.99,38.572,56.942,38.572,59.971,38.572z"/>
		<path fill-rule="evenodd" clip-rule="evenodd" fill="#FFFFFF" d="M26.931,38.423c2.604,0,5.1,0,7.596,0
			c0.401,0,0.806,0.039,1.209,0.054c-0.312,2.442-2.019,3.963-4.42,3.947C28.929,42.424,27.244,40.937,26.931,38.423z"/>
		<path fill-rule="evenodd" clip-rule="evenodd" fill="#FFFFFF" d="M63.217,38.477c2.991,0,5.888,0,8.787,0
			c-0.275,2.421-2.054,3.98-4.44,3.947C65.218,42.403,63.493,40.881,63.217,38.477z"/>
		<path fill-rule="evenodd" clip-rule="evenodd" fill="#FFFFFF" d="M39.019,38.497c2.898,0,5.797,0,8.677,0
			c0.095,1.961-1.649,3.741-3.777,3.906C41.277,42.624,39.35,41.103,39.019,38.497z"/>
	</g>
</g>
</svg>
