<?xml version="1.0" encoding="utf-8"?>
<!-- Generator: Adobe Illustrator 16.0.0, SVG Export Plug-In . SVG Version: 6.00 Build 0)  -->
<!DOCTYPE svg PUBLIC "-//W3C//DTD SVG 1.1//EN" "http://www.w3.org/Graphics/SVG/1.1/DTD/svg11.dtd">
<svg version="1.1" id="Layer_1" xmlns="http://www.w3.org/2000/svg" xmlns:xlink="http://www.w3.org/1999/xlink" x="0px" y="0px"
	 width="100px" height="82px" viewBox="0 0 100 82" enable-background="new 0 0 100 82" xml:space="preserve">
<g>
	<g>
		<path fill="#FFE680" d="M100,79.441C100,80.787,98.639,82,97.291,82H2.169C0.822,82,0,80.787,0,79.441V2.318
			C0,0.971,0.822,0,2.169,0h95.122C98.639,0,100,0.971,100,2.318V79.441z"/>
		<g opacity="0.35">
			<path fill="#FFFFFF" d="M22.47,67.469c18.278,0,36.411,0,54.52,0c0-0.945,0-1.779,0-2.811c-1.323,0-2.559,0-3.874,0
				c0-0.781,0-1.352,0-1.941c0.019-9.07,0.038-18.145,0.066-27.226c0-0.373,0.01-0.744,0-1.115c-0.076-1.875-0.771-2.58-2.647-2.598
				c-2.493-0.028-4.986-0.01-7.482,0c-1.73,0-3.474,0-5.351,0c0-0.771,0-1.343,0-1.914c0.01-4.198,0.01-8.388,0.01-12.586
				c0-2.579-0.391-2.987-2.921-2.987c-5.998,0-11.996,0-17.995,0c-2.332,0-2.817,0.475-2.825,2.78c-0.01,2.218,0,4.426,0,6.823
				c-1.229,0-2.275-0.009-3.312,0c-3.075,0-4.257,1.161-4.266,4.2c0,11.623,0,23.255,0,34.878c0,0.562,0,1.115,0,1.801
				c-1.446,0-2.646,0-3.922,0C22.47,65.725,22.47,66.555,22.47,67.469z"/>
			<path fill-rule="evenodd" clip-rule="evenodd" fill="#B3B3B3" d="M22.47,67.469c0-0.914,0-1.744,0-2.695c1.275,0,2.476,0,3.922,0
				c0-0.686,0-1.238,0-1.801c0-11.623,0-23.255,0-34.878c0.009-3.039,1.19-4.2,4.266-4.2c1.037-0.009,2.084,0,3.312,0
				c0-2.397-0.01-4.605,0-6.823c0.008-2.306,0.493-2.78,2.825-2.78c5.999,0,11.997,0,17.995,0c2.53,0,2.921,0.408,2.921,2.987
				c0,4.198,0,8.388-0.01,12.586c0,0.571,0,1.143,0,1.914c1.877,0,3.62,0,5.351,0c2.496-0.01,4.989-0.028,7.482,0
				c1.876,0.018,2.571,0.723,2.647,2.598c0.01,0.371,0,0.742,0,1.115c-0.028,9.082-0.048,18.156-0.066,27.226c0,0.59,0,1.16,0,1.941
				c1.315,0,2.551,0,3.874,0c0,1.031,0,1.865,0,2.811C58.881,67.469,40.749,67.469,22.47,67.469z M32.047,56.404
				c2.626,0,5.005,0.086,7.376-0.029c1.525-0.074,2.068,0.344,1.935,1.943c-0.164,2.086-0.039,4.197-0.039,6.285
				c1.094,0,1.96,0,2.817,0c0-12.682,0-25.23,0-37.749c-4.997,0-9.863,0-14.775,0c0,12.633,0,25.2,0,37.784c0.914,0,1.744,0,2.687,0
				C32.047,61.916,32.047,59.271,32.047,56.404z M53.924,34.49c0,9.911,0,19.696,0,29.436c5.435,0,10.767,0,16.067,0
				c0-9.871,0-19.621,0-29.436C64.616,34.49,59.331,34.49,53.924,34.49z M54.762,17.278c-6.044,0-11.91,0-17.745,0
				c0,2.257,0,4.4,0,6.522c3.226,0.437,6.331-0.153,9.501,0.864c2.484,0.801,5.437,0.162,8.244,0.162
				C54.762,22.21,54.762,19.792,54.762,17.278z M47.22,47.26c0,5.861,0,11.613,0,17.379c1.298,0,2.486,0,3.734,0
				c0-5.824,0-11.564,0-17.379C49.688,47.26,48.536,47.26,47.22,47.26z M47.147,31.11c2.549,0,5.083,0,7.594,0
				c0-1.171,0-2.207,0-3.272c-2.589,0-5.083,0-7.594,0C47.147,28.978,47.147,29.978,47.147,31.11z M38.357,59.367
				c-1.226,0-2.254,0-3.329,0c0,1.807,0,3.52,0,5.236c1.168,0,2.237,0,3.329,0C38.357,62.803,38.357,61.137,38.357,59.367z
				 M51.162,44.59c0-1.447,0-2.723,0-3.999c-1.389,0-2.685,0-3.913,0c0,1.401,0,2.686,0,3.999
				C48.591,44.59,49.802,44.59,51.162,44.59z M47.242,34.157c0,1.438,0,2.724,0,4.01c1.37,0,2.616,0,3.932,0c0-1.361,0-2.658,0-4.01
				C49.83,34.157,48.582,34.157,47.242,34.157z"/>
			<path fill-rule="evenodd" clip-rule="evenodd" fill="#FFFFFF" d="M32.047,56.404c0,2.867,0,5.512,0,8.234
				c-0.942,0-1.772,0-2.687,0c0-12.584,0-25.151,0-37.784c4.912,0,9.778,0,14.775,0c0,12.519,0,25.067,0,37.749
				c-0.857,0-1.724,0-2.817,0c0-2.088-0.125-4.199,0.039-6.285c0.134-1.6-0.409-2.018-1.935-1.943
				C37.052,56.49,34.673,56.404,32.047,56.404z M33.524,44.059c0,1.182,0,2.256,0,3.303c1.189,0,2.265,0,3.321,0
				c0-1.15,0-2.201,0-3.303C35.73,44.059,34.693,44.059,33.524,44.059z M36.845,37.719c-1.181,0-2.257,0-3.305,0
				c0,1.179,0,2.244,0,3.312c1.152,0,2.189,0,3.305,0C36.845,39.917,36.845,38.88,36.845,37.719z M33.501,50.094
				c0,1.227,0,2.266,0,3.352c1.162,0,2.229,0,3.315,0c0-1.182,0-2.248,0-3.352C35.665,50.094,34.627,50.094,33.501,50.094z
				 M33.541,31.606c0,1.248,0,2.322,0,3.37c1.173,0,2.209,0,3.283,0c0-1.162,0-2.237,0-3.37
				C35.692,31.606,34.656,31.606,33.541,31.606z"/>
			<path fill-rule="evenodd" clip-rule="evenodd" fill="#FFFFFF" d="M53.924,34.49c5.406,0,10.691,0,16.067,0
				c0,9.815,0,19.565,0,29.436c-5.301,0-10.633,0-16.067,0C53.924,54.186,53.924,44.4,53.924,34.49z M66.813,51.428
				c-1.134,0-2.093,0-3.049,0c0,1.055,0,1.99,0,2.969c1.058,0,2.029,0,3.049,0C66.813,53.367,66.813,52.436,66.813,51.428z
				 M57.759,51.369c0,1.123,0,2.094,0,3.045c1.057,0,1.99,0,2.97,0c0-1.055,0-2.016,0-3.045
				C59.702,51.369,58.767,51.369,57.759,51.369z M57.693,40.66c1.143,0,2.115,0,3.036,0c0-1.058,0-1.989,0-2.95
				c-1.056,0-2.027,0-3.036,0C57.693,38.746,57.693,39.67,57.693,40.66z M63.806,37.669c0,1.115,0,2.086,0,2.99
				c1.084,0,2.057,0,2.978,0c0-1.058,0-1.989,0-2.99C65.765,37.669,64.844,37.669,63.806,37.669z M60.729,47.732
				c0-1.125,0-2.057,0-3.018c-1.056,0-2.027,0-2.979,0c0,1.074,0,2.047,0,3.018C58.794,47.732,59.732,47.732,60.729,47.732z
				 M63.757,47.713c1.114,0,2.049,0,3.026,0c0-1.047,0-2.016,0-2.988c-1.077,0-2.036,0-3.026,0
				C63.757,45.771,63.757,46.703,63.757,47.713z"/>
			<path fill-rule="evenodd" clip-rule="evenodd" fill="#FFFFFF" d="M54.762,17.278c0,2.514,0,4.933,0,7.549
				c-2.808,0-5.76,0.639-8.244-0.162c-3.17-1.018-6.275-0.428-9.501-0.864c0-2.122,0-4.266,0-6.522
				C42.852,17.278,48.718,17.278,54.762,17.278z"/>
			<path fill-rule="evenodd" clip-rule="evenodd" fill="#FFFFFF" d="M47.22,47.26c1.315,0,2.468,0,3.734,0
				c0,5.814,0,11.555,0,17.379c-1.248,0-2.437,0-3.734,0C47.22,58.873,47.22,53.121,47.22,47.26z"/>
			<path fill-rule="evenodd" clip-rule="evenodd" fill="#FFFFFF" d="M47.147,31.11c0-1.132,0-2.132,0-3.272c2.511,0,5.005,0,7.594,0
				c0,1.065,0,2.102,0,3.272C52.23,31.11,49.696,31.11,47.147,31.11z"/>
			<path fill-rule="evenodd" clip-rule="evenodd" fill="#FFFFFF" d="M38.357,59.367c0,1.77,0,3.436,0,5.236
				c-1.092,0-2.161,0-3.329,0c0-1.717,0-3.43,0-5.236C36.103,59.367,37.131,59.367,38.357,59.367z"/>
			<path fill-rule="evenodd" clip-rule="evenodd" fill="#FFFFFF" d="M51.162,44.59c-1.359,0-2.57,0-3.913,0c0-1.312,0-2.597,0-3.999
				c1.229,0,2.524,0,3.913,0C51.162,41.867,51.162,43.143,51.162,44.59z"/>
			<path fill-rule="evenodd" clip-rule="evenodd" fill="#FFFFFF" d="M47.242,34.157c1.34,0,2.588,0,3.932,0c0,1.352,0,2.648,0,4.01
				c-1.315,0-2.562,0-3.932,0C47.242,36.88,47.242,35.594,47.242,34.157z"/>
			<path fill-rule="evenodd" clip-rule="evenodd" fill="#B3B3B3" d="M33.524,44.059c1.169,0,2.206,0,3.321,0
				c0,1.102,0,2.152,0,3.303c-1.057,0-2.132,0-3.321,0C33.524,46.314,33.524,45.24,33.524,44.059z"/>
			<path fill-rule="evenodd" clip-rule="evenodd" fill="#B3B3B3" d="M36.845,37.719c0,1.161,0,2.197,0,3.312
				c-1.115,0-2.152,0-3.305,0c0-1.068,0-2.134,0-3.312C34.588,37.719,35.665,37.719,36.845,37.719z"/>
			<path fill-rule="evenodd" clip-rule="evenodd" fill="#B3B3B3" d="M33.501,50.094c1.126,0,2.163,0,3.315,0c0,1.104,0,2.17,0,3.352
				c-1.087,0-2.153,0-3.315,0C33.501,52.359,33.501,51.32,33.501,50.094z"/>
			<path fill-rule="evenodd" clip-rule="evenodd" fill="#B3B3B3" d="M33.541,31.606c1.115,0,2.151,0,3.283,0c0,1.133,0,2.208,0,3.37
				c-1.074,0-2.11,0-3.283,0C33.541,33.928,33.541,32.854,33.541,31.606z"/>
			<path fill-rule="evenodd" clip-rule="evenodd" fill="#B3B3B3" d="M66.813,51.428c0,1.008,0,1.939,0,2.969
				c-1.02,0-1.991,0-3.049,0c0-0.979,0-1.914,0-2.969C64.72,51.428,65.679,51.428,66.813,51.428z"/>
			<path fill-rule="evenodd" clip-rule="evenodd" fill="#B3B3B3" d="M57.759,51.369c1.008,0,1.942,0,2.97,0c0,1.029,0,1.99,0,3.045
				c-0.979,0-1.913,0-2.97,0C57.759,53.463,57.759,52.492,57.759,51.369z"/>
			<path fill-rule="evenodd" clip-rule="evenodd" fill="#B3B3B3" d="M57.693,40.66c0-0.989,0-1.914,0-2.95c1.009,0,1.98,0,3.036,0
				c0,0.961,0,1.893,0,2.95C59.808,40.66,58.835,40.66,57.693,40.66z"/>
			<path fill-rule="evenodd" clip-rule="evenodd" fill="#B3B3B3" d="M63.806,37.669c1.038,0,1.959,0,2.978,0c0,1.001,0,1.933,0,2.99
				c-0.921,0-1.894,0-2.978,0C63.806,39.755,63.806,38.785,63.806,37.669z"/>
			<path fill-rule="evenodd" clip-rule="evenodd" fill="#B3B3B3" d="M60.729,47.732c-0.997,0-1.935,0-2.979,0
				c0-0.971,0-1.943,0-3.018c0.952,0,1.924,0,2.979,0C60.729,45.676,60.729,46.607,60.729,47.732z"/>
			<path fill-rule="evenodd" clip-rule="evenodd" fill="#B3B3B3" d="M63.757,47.713c0-1.01,0-1.941,0-2.988c0.99,0,1.949,0,3.026,0
				c0,0.973,0,1.941,0,2.988C65.806,47.713,64.872,47.713,63.757,47.713z"/>
		</g>
	</g>
	<g>
		<path fill-rule="evenodd" clip-rule="evenodd" fill="#FFFFFF" d="M21.47,66.469c0-0.914,0-1.744,0-2.695c1.275,0,2.476,0,3.922,0
			c0-0.686,0-1.238,0-1.801c0-11.623,0-23.255,0-34.878c0.009-3.039,1.19-4.2,4.266-4.2c1.037-0.009,2.084,0,3.312,0
			c0-2.397-0.01-4.605,0-6.823c0.008-2.306,0.493-2.78,2.825-2.78c5.999,0,11.997,0,17.995,0c2.53,0,2.921,0.408,2.921,2.987
			c0,4.198,0,8.388-0.01,12.586c0,0.571,0,1.143,0,1.914c1.877,0,3.62,0,5.351,0c2.496-0.01,4.989-0.028,7.482,0
			c1.876,0.018,2.571,0.723,2.647,2.598c0.01,0.371,0,0.742,0,1.115c-0.028,9.082-0.048,18.156-0.066,27.226c0,0.59,0,1.16,0,1.941
			c1.315,0,2.551,0,3.874,0c0,1.031,0,1.865,0,2.811C57.881,66.469,39.749,66.469,21.47,66.469z M31.047,55.404
			c2.626,0,5.005,0.086,7.376-0.029c1.525-0.074,2.068,0.344,1.935,1.943c-0.164,2.086-0.039,4.197-0.039,6.285
			c1.094,0,1.96,0,2.817,0c0-12.682,0-25.23,0-37.749c-4.997,0-9.863,0-14.775,0c0,12.633,0,25.2,0,37.784c0.914,0,1.744,0,2.687,0
			C31.047,60.916,31.047,58.271,31.047,55.404z M52.924,33.49c0,9.911,0,19.696,0,29.436c5.435,0,10.767,0,16.067,0
			c0-9.871,0-19.621,0-29.436C63.616,33.49,58.331,33.49,52.924,33.49z M53.762,16.278c-6.044,0-11.91,0-17.745,0
			c0,2.257,0,4.4,0,6.522c3.226,0.437,6.331-0.153,9.501,0.864c2.484,0.801,5.437,0.162,8.244,0.162
			C53.762,21.21,53.762,18.792,53.762,16.278z M46.22,46.26c0,5.861,0,11.613,0,17.379c1.298,0,2.486,0,3.734,0
			c0-5.824,0-11.564,0-17.379C48.688,46.26,47.536,46.26,46.22,46.26z M46.147,30.11c2.549,0,5.083,0,7.594,0
			c0-1.171,0-2.207,0-3.272c-2.589,0-5.083,0-7.594,0C46.147,27.978,46.147,28.978,46.147,30.11z M37.357,58.367
			c-1.226,0-2.254,0-3.329,0c0,1.807,0,3.52,0,5.236c1.168,0,2.237,0,3.329,0C37.357,61.803,37.357,60.137,37.357,58.367z
			 M50.162,43.59c0-1.447,0-2.723,0-3.999c-1.389,0-2.685,0-3.913,0c0,1.401,0,2.686,0,3.999
			C47.591,43.59,48.802,43.59,50.162,43.59z M46.242,33.157c0,1.438,0,2.724,0,4.01c1.37,0,2.616,0,3.932,0c0-1.361,0-2.658,0-4.01
			C48.83,33.157,47.582,33.157,46.242,33.157z"/>
		<path fill-rule="evenodd" clip-rule="evenodd" fill="#FFFFFF" d="M32.524,43.059c1.169,0,2.206,0,3.321,0c0,1.102,0,2.152,0,3.303
			c-1.057,0-2.132,0-3.321,0C32.524,45.314,32.524,44.24,32.524,43.059z"/>
		<path fill-rule="evenodd" clip-rule="evenodd" fill="#FFFFFF" d="M35.845,36.719c0,1.161,0,2.197,0,3.312
			c-1.115,0-2.152,0-3.305,0c0-1.068,0-2.134,0-3.312C33.588,36.719,34.665,36.719,35.845,36.719z"/>
		<path fill-rule="evenodd" clip-rule="evenodd" fill="#FFFFFF" d="M32.501,49.094c1.126,0,2.163,0,3.315,0c0,1.104,0,2.17,0,3.352
			c-1.087,0-2.153,0-3.315,0C32.501,51.359,32.501,50.32,32.501,49.094z"/>
		<path fill-rule="evenodd" clip-rule="evenodd" fill="#FFFFFF" d="M32.541,30.606c1.115,0,2.151,0,3.283,0c0,1.133,0,2.208,0,3.37
			c-1.074,0-2.11,0-3.283,0C32.541,32.928,32.541,31.854,32.541,30.606z"/>
		<path fill-rule="evenodd" clip-rule="evenodd" fill="#FFFFFF" d="M65.813,50.428c0,1.008,0,1.939,0,2.969c-1.02,0-1.991,0-3.049,0
			c0-0.979,0-1.914,0-2.969C63.72,50.428,64.679,50.428,65.813,50.428z"/>
		<path fill-rule="evenodd" clip-rule="evenodd" fill="#FFFFFF" d="M56.759,50.369c1.008,0,1.942,0,2.97,0c0,1.029,0,1.99,0,3.045
			c-0.979,0-1.913,0-2.97,0C56.759,52.463,56.759,51.492,56.759,50.369z"/>
		<path fill-rule="evenodd" clip-rule="evenodd" fill="#FFFFFF" d="M56.693,39.66c0-0.989,0-1.914,0-2.95c1.009,0,1.98,0,3.036,0
			c0,0.961,0,1.893,0,2.95C58.808,39.66,57.835,39.66,56.693,39.66z"/>
		<path fill-rule="evenodd" clip-rule="evenodd" fill="#FFFFFF" d="M62.806,36.669c1.038,0,1.959,0,2.978,0c0,1.001,0,1.933,0,2.99
			c-0.921,0-1.894,0-2.978,0C62.806,38.755,62.806,37.785,62.806,36.669z"/>
		<path fill-rule="evenodd" clip-rule="evenodd" fill="#FFFFFF" d="M59.729,46.732c-0.997,0-1.935,0-2.979,0
			c0-0.971,0-1.943,0-3.018c0.952,0,1.924,0,2.979,0C59.729,44.676,59.729,45.607,59.729,46.732z"/>
		<path fill-rule="evenodd" clip-rule="evenodd" fill="#FFFFFF" d="M62.757,46.713c0-1.01,0-1.941,0-2.988c0.99,0,1.949,0,3.026,0
			c0,0.973,0,1.941,0,2.988C64.806,46.713,63.872,46.713,62.757,46.713z"/>
	</g>
</g>
</svg>
