<?xml version="1.0" encoding="utf-8"?>
<!-- Generator: Adobe Illustrator 16.0.0, SVG Export Plug-In . SVG Version: 6.00 Build 0)  -->
<!DOCTYPE svg PUBLIC "-//W3C//DTD SVG 1.1//EN" "http://www.w3.org/Graphics/SVG/1.1/DTD/svg11.dtd">
<svg version="1.1" id="Layer_1" xmlns="http://www.w3.org/2000/svg" xmlns:xlink="http://www.w3.org/1999/xlink" x="0px" y="0px"
	 width="100px" height="82px" viewBox="0 0 100 82" enable-background="new 0 0 100 82" xml:space="preserve">
<g>
	<path fill="#FFE680" d="M100,79.441C100,80.787,98.639,82,97.291,82H2.169C0.822,82,0,80.787,0,79.441V2.318
		C0,0.971,0.822,0,2.169,0h95.122C98.639,0,100,0.971,100,2.318V79.441z"/>
	<g opacity="0.35">
		<path fill="#FFFFFF" d="M31.071,65.273c12.556,0,24.931,0,37.318,0c0-1,0-1.893,0-2.904c-1.772,0-3.458-0.098-5.144,0.018
			c-1.306,0.096-1.713-0.457-1.913-1.646c-0.99-5.994-2.092-9.406-3.092-15.401c-0.592-3.562-1.678-6.869-0.173-10.543
			c0.63-1.554-0.612-2.829-2.467-2.856c-3.922-0.058-7.854-0.066-11.776,0.017c-2.027,0.039-2.713,1.297-2.342,3.353
			c0.327,1.847,0.677,3.78,0.429,5.597c-0.702,5.237-1.702,8.716-2.606,13.932c-0.495,2.857-1.029,4.619-1.572,7.57
			c-2.293,0-4.446,0-6.662,0C31.071,63.436,31.071,64.32,31.071,65.273z"/>
		<path fill="#FFFFFF" d="M51.146,29.799c0-1.4,0-2.693,0-4.029c-1.001,0-1.915,0-2.801,0c0,1.399,0,2.703,0,4.029
			C49.318,29.799,50.194,29.799,51.146,29.799z"/>
		<path fill-rule="evenodd" clip-rule="evenodd" fill="#B3B3B3" d="M31.071,65.273c0-0.953,0-1.838,0-2.865c2.216,0,4.369,0,6.662,0
			c0.543-2.951,1.077-4.713,1.572-7.57c0.904-5.216,1.904-8.695,2.606-13.932c0.248-1.816-0.102-3.75-0.429-5.597
			c-0.371-2.056,0.314-3.313,2.342-3.353c3.922-0.083,7.854-0.074,11.776-0.017c1.854,0.027,3.097,1.303,2.467,2.856
			c-1.505,3.674-0.419,6.98,0.173,10.543c1,5.995,2.102,9.407,3.092,15.401c0.2,1.189,0.607,1.742,1.913,1.646
			c1.686-0.115,3.371-0.018,5.144-0.018c0,1.012,0,1.904,0,2.904C56.001,65.273,43.626,65.273,31.071,65.273z M58.441,62.295
			c-0.022-0.488-0.014-0.906-0.079-1.307c-0.513-3.027-1.036-4.969-1.561-7.998c-0.495-2.818-0.505-1.535-3.371-1.547
			c-3.386-0.018-6.767-0.01-10.241-0.01c-0.783,4.467-1.533,6.441-2.294,10.803c2.493,0,4.739,0,7.101,0c0-3.029,0-4.855,0-7.816
			c1.191,0,2.265,0,3.522,0c0,3.037,0,4.902,0,7.875C53.916,62.295,56.125,62.295,58.441,62.295z M45.053,35.112
			c0,2.443,0,4.611,0,7.008c3.104,0,6.294,0,9.388,0c0-2.475,0-4.601,0-7.008C51.451,35.112,48.13,35.112,45.053,35.112z
			 M55.258,45.471c-3.788,0-7.415,0-11.034,0c-0.161,1.068-0.292,1.786-0.436,2.697c3.998,0,7.882,0,11.946,0
			C55.563,47.104,55.42,46.451,55.258,45.471z"/>
		<path fill-rule="evenodd" clip-rule="evenodd" fill="#B3B3B3" d="M56.278,25.676c0,1.512,0,2.762,0,4.112c-1.02,0-3.056,0-3.056,0
			l0.028-5.413l-3.435-2.959l-3.489,2.909l-0.064,2.854l0.02,2.608c0,0-1.99,0-3.048,0c0-1.293,0-2.552,0-4.112
			c-0.807,0.572-1.343,1.18-1.979,1.352c-0.702,0.17-1.778,0.246-2.216-0.15c-0.781-0.707-0.391-1.641,0.438-2.287
			c0.085-0.067,0.179-0.114,0.265-0.172c3.306-2.493,6.618-4.979,9.989-7.52c3.427,2.59,6.853,5.159,10.27,7.748
			c0.781,0.59,1.086,1.372,0.486,2.209c-0.667,0.925-1.543,0.743-2.373,0.172C57.564,26.648,57.04,26.227,56.278,25.676z"/>
		<path fill-rule="evenodd" clip-rule="evenodd" fill="#B3B3B3" d="M51.146,29.799c-0.952,0-1.828,0-2.801,0c0-1.326,0-2.63,0-4.029
			c0.886,0,1.8,0,2.801,0C51.146,27.106,51.146,28.399,51.146,29.799z"/>
		<path fill-rule="evenodd" clip-rule="evenodd" fill="#FFFFFF" d="M58.441,62.295c-2.315,0-4.525,0-6.923,0
			c0-2.973,0-4.838,0-7.875c-1.258,0-2.331,0-3.522,0c0,2.961,0,4.787,0,7.816c-2.361,0-4.607,0-7.101,0
			c0.761-4.361,1.511-6.336,2.294-10.803c3.475,0,6.855-0.008,10.241,0.01c2.866,0.012,2.876-1.271,3.371,1.547
			c0.524,3.029,1.048,4.971,1.561,7.998C58.427,61.389,58.418,61.807,58.441,62.295z"/>
		<path fill-rule="evenodd" clip-rule="evenodd" fill="#FFFFFF" d="M45.053,35.112c3.077,0,6.397,0,9.388,0c0,2.407,0,4.533,0,7.008
			c-3.094,0-6.283,0-9.388,0C45.053,39.723,45.053,37.555,45.053,35.112z"/>
		<path fill-rule="evenodd" clip-rule="evenodd" fill="#FFFFFF" d="M55.258,45.471c0.162,0.979,0.305,1.633,0.477,2.697
			c-4.064,0-7.948,0-11.946,0c0.144-0.911,0.274-1.629,0.436-2.697C47.843,45.471,51.47,45.471,55.258,45.471z"/>
	</g>
	<g>
		<path fill="#FFFFFF" d="M50.178,28.799c0-1.4,0-2.693,0-4.029c-1.001,0-1.915,0-2.801,0c0,1.399,0,2.703,0,4.029
			C48.35,28.799,49.226,28.799,50.178,28.799z"/>
		<path fill-rule="evenodd" clip-rule="evenodd" fill="#FFFFFF" d="M30.103,64.273c0-0.953,0-1.838,0-2.865c2.216,0,4.369,0,6.662,0
			c0.543-2.951,1.077-4.713,1.572-7.57c0.904-5.216,1.904-8.695,2.606-13.932c0.248-1.816-0.102-3.75-0.429-5.597
			c-0.371-2.056,0.314-3.313,2.342-3.353c3.922-0.083,7.854-0.074,11.776-0.017c1.854,0.027,3.097,1.303,2.467,2.856
			c-1.505,3.674-0.419,6.98,0.173,10.543c1,5.995,2.102,9.407,3.092,15.401c0.2,1.189,0.607,1.742,1.913,1.646
			c1.686-0.115,3.371-0.018,5.144-0.018c0,1.012,0,1.904,0,2.904C55.034,64.273,42.659,64.273,30.103,64.273z M57.473,61.295
			c-0.022-0.488-0.014-0.906-0.079-1.307c-0.513-3.027-1.036-4.969-1.561-7.998c-0.495-2.819-0.505-1.535-3.371-1.547
			c-3.386-0.018-6.767-0.01-10.241-0.01c-0.783,4.467-1.533,6.441-2.294,10.803c2.493,0,4.739,0,7.101,0c0-3.029,0-4.855,0-7.816
			c1.191,0,2.265,0,3.522,0c0,3.037,0,4.902,0,7.875C52.948,61.295,55.158,61.295,57.473,61.295z M44.085,34.112
			c0,2.443,0,4.611,0,7.008c3.104,0,6.294,0,9.388,0c0-2.475,0-4.601,0-7.008C50.483,34.112,47.163,34.112,44.085,34.112z
			 M54.291,44.471c-3.788,0-7.415,0-11.034,0c-0.161,1.068-0.292,1.786-0.436,2.697c3.998,0,7.882,0,11.946,0
			C54.595,46.104,54.453,45.451,54.291,44.471z"/>
		<path fill-rule="evenodd" clip-rule="evenodd" fill="#FFFFFF" d="M55.31,24.676c0,1.512,0,2.762,0,4.112c-1.02,0-3.056,0-3.056,0
			l0.028-5.413l-3.435-2.959l-3.489,2.909l-0.064,2.854l0.02,2.608c0,0-1.99,0-3.048,0c0-1.293,0-2.552,0-4.112
			c-0.807,0.572-1.343,1.18-1.979,1.352c-0.702,0.17-1.778,0.246-2.216-0.15c-0.781-0.707-0.391-1.641,0.438-2.287
			c0.085-0.067,0.179-0.114,0.265-0.172c3.306-2.493,6.618-4.979,9.989-7.52c3.427,2.59,6.853,5.159,10.27,7.748
			c0.781,0.59,1.086,1.372,0.486,2.209c-0.667,0.925-1.543,0.743-2.373,0.172C56.596,25.648,56.072,25.227,55.31,24.676z"/>
		<path fill-rule="evenodd" clip-rule="evenodd" fill="#FFFFFF" d="M50.178,28.799c-0.952,0-1.828,0-2.801,0c0-1.326,0-2.63,0-4.029
			c0.886,0,1.8,0,2.801,0C50.178,26.106,50.178,27.399,50.178,28.799z"/>
	</g>
</g>
</svg>
