<?xml version="1.0" encoding="utf-8"?>
<!-- Generator: Adobe Illustrator 16.0.0, SVG Export Plug-In . SVG Version: 6.00 Build 0)  -->
<!DOCTYPE svg PUBLIC "-//W3C//DTD SVG 1.1//EN" "http://www.w3.org/Graphics/SVG/1.1/DTD/svg11.dtd">
<svg version="1.1" id="Layer_1" xmlns="http://www.w3.org/2000/svg" xmlns:xlink="http://www.w3.org/1999/xlink" x="0px" y="0px"
	 width="100px" height="82px" viewBox="0 0 100 82" enable-background="new 0 0 100 82" xml:space="preserve">
<g>
	<path fill="#FFE680" d="M100,79.441C100,80.787,98.639,82,97.291,82H2.169C0.822,82,0,80.787,0,79.441V2.318
		C0,0.971,0.822,0,2.169,0h95.122C98.639,0,100,0.971,100,2.318V79.441z"/>
	<g opacity="0.35">
		<path fill="#FFFFFF" d="M60.783,50.536c0-2.116,0-2.822,0-4.754c-0.016-2.709-1.878-4.53-4.546-4.494
			c-2.617,0.037-4.438,1.861-4.438,4.476c-0.02,1.989,0,2.728,0,4.756c-1.272,0-2.32,0-3.574,0c0-2.009,0.057-2.695-0.037-4.628
			c-0.036-0.884-0.238-1.86-0.681-2.613c-1.014-1.731-3.132-2.377-5.12-1.769c-2.1,0.624-3.205,2.079-3.221,4.308
			c0,1.973,0,2.713,0,4.646c-1.29,0-2.341,0-3.557,0c0-3.516,0-5.693,0-9.084c-1.069,0-1.96,0-2.988,0c0,3.536,0,5.695,0,9.14
			c-0.388,0.017-0.646,0.056-0.906,0.056c-2.742,0.071-3.425,0.773-3.425,3.517c-0.017,2.872-0.017,4.288,0,7.163
			c0,0.847,0,0.443,0,1.424c-1.104,0-1.95,0-2.891,0c0,1.011,0,1.914,0,2.889c16.435,0,32.786,0,49.123,0c0-1.049,0-1.988,0-3.039
			c-0.922,0-1.73,0-2.725,0c0-3.314,0-3.832,0-7.057c0-4.42,0-4.42-4.254-4.99c-0.055,0-0.094-0.057-0.275-0.183
			c0-3.315,0-5.472,0-8.956c-0.996,0-1.844,0-2.875,0c0,3.5,0,5.715,0,9.193C63.139,50.536,62.073,50.536,60.783,50.536z"/>
		<path fill="#FFFFFF" d="M66.564,36.394c0.188-6.464-3.866-10.12-9.979-12.79c-1.509-0.662-3.535-0.772-4.512-1.86
			c-1.014-1.122-1.014-3.149-1.511-4.751c-0.11-0.312-0.478-0.534-0.719-0.791c-0.222,0.236-0.553,0.443-0.644,0.736
			c-0.386,1.255-0.81,2.542-1.067,3.832c-0.24,1.158-0.773,1.654-1.972,1.896c-7.438,1.49-13.303,6.324-13.01,13.688
			c0.951,0,1.886,0,2.826,0c0.386-8.269,6.629-10.927,13.424-11.223c7.533-0.331,12.874,2.237,14.512,11.262
			C64.743,36.394,65.608,36.394,66.564,36.394z"/>
		<path fill="#FFFFFF" d="M67.227,37.674c-11.542,0-22.997,0-34.479,0c0,1.05,0,1.382,0,2.396c11.535,0,22.99,0,34.479,0
			C67.227,39.022,67.227,38.686,67.227,37.674z"/>
		<path fill-rule="evenodd" clip-rule="evenodd" fill="#B3B3B3" d="M60.783,50.536c1.29,0,2.356,0,3.609,0c0-3.479,0-5.693,0-9.193
			c1.031,0,1.879,0,2.875,0c0,3.484,0,5.641,0,8.956c0.182,0.126,0.221,0.183,0.275,0.183c4.254,0.57,4.254,0.57,4.254,4.99
			c0,3.225,0,3.742,0,7.057c0.994,0,1.803,0,2.725,0c0,1.051,0,1.99,0,3.039c-16.336,0-32.688,0-49.123,0c0-0.975,0-1.878,0-2.889
			c0.94,0,1.786,0,2.891,0c0-0.98,0-0.577,0-1.424c-0.017-2.875-0.017-4.291,0-7.163c0-2.743,0.683-3.445,3.425-3.517
			c0.26,0,0.519-0.039,0.906-0.056c0-3.444,0-5.604,0-9.14c1.028,0,1.919,0,2.988,0c0,3.391,0,5.568,0,9.084
			c1.216,0,2.267,0,3.557,0c0-1.934,0-2.674,0-4.646c0.016-2.229,1.121-3.684,3.221-4.308c1.988-0.608,4.106,0.037,5.12,1.769
			c0.442,0.753,0.645,1.729,0.681,2.613c0.094,1.933,0.037,2.619,0.037,4.628c1.254,0,2.302,0,3.574,0c0-2.028-0.02-2.767,0-4.756
			c0-2.614,1.821-4.438,4.438-4.476c2.668-0.036,4.53,1.785,4.546,4.494C60.783,47.713,60.783,48.419,60.783,50.536z M68.704,53.667
			c-12.598,0-25.026,0-37.486,0c0,3.995,0,5.178,0,9.138c12.515,0,24.964,0,37.486,0C68.704,58.828,68.704,57.645,68.704,53.667z
			 M57.931,50.444c0-2.08,0.088-2.82-0.077-4.773c-0.034-0.516-0.847-1.198-1.435-1.342c-0.829-0.242-1.695,0.144-1.729,1.213
			c-0.056,2.026,0,2.805,0,4.902C55.775,50.444,56.713,50.444,57.931,50.444z M45.314,50.463c0-2.155,0.095-2.949-0.07-4.958
			c-0.022-0.442-0.924-1.16-1.401-1.144c-0.59,0.022-1.566,0.665-1.604,1.088c-0.184,2.064-0.091,2.896-0.091,5.014
			C43.252,50.463,44.173,50.463,45.314,50.463z"/>
		<path fill-rule="evenodd" clip-rule="evenodd" fill="#B3B3B3" d="M66.564,36.394c-0.956,0-1.821,0-2.65,0
			c0-6.312-6.979-11.593-14.512-11.262c-6.795,0.296-13.424,4.336-13.424,11.223c-0.94,0-1.875,0-2.826,0
			c-0.293-7.364,5.571-12.198,13.01-13.688c1.198-0.242,1.731-0.738,1.972-1.896c0.258-1.29,0.682-2.577,1.067-3.832
			c0.091-0.293,0.125-0.736,0.644-0.736c0.518,0,0.608,0.479,0.719,0.791c0.497,1.602,0.497,3.629,1.511,4.751
			c0.977,1.088,3.003,1.198,4.512,1.86C62.698,26.274,66.751,29.93,66.564,36.394z"/>
		<path fill-rule="evenodd" clip-rule="evenodd" fill="#B3B3B3" d="M67.227,37.674c0,1.012,0,1.348,0,2.396
			c-11.488,0-22.943,0-34.479,0c0-1.014,0-1.346,0-2.396C44.23,37.674,55.685,37.674,67.227,37.674z"/>
		<path fill-rule="evenodd" clip-rule="evenodd" fill="#FFFFFF" d="M68.704,53.667c0,3.978,0,5.16,0,9.138
			c-12.522,0-24.972,0-37.486,0c0-3.96,0-5.143,0-9.138C43.677,53.667,56.106,53.667,68.704,53.667z M63.195,60.997
			c0-1.346,0.019-2.525,0-3.702c-0.016-1.104-0.773-1.677-1.692-1.474c-0.646,0.129-1.493,0.811-1.62,1.379
			c-0.239,1.217-0.076,2.506-0.076,3.797C61.024,60.997,62.018,60.997,63.195,60.997z M47.728,61.033
			c0-1.364-0.02-2.562,0.018-3.777c0-0.975-0.479-1.397-1.396-1.472c-0.995-0.073-1.809,0.276-1.898,1.307
			c-0.131,1.31-0.037,2.615-0.037,3.942C45.609,61.033,46.585,61.033,47.728,61.033z M40.085,61.033c0-1.308-0.021-2.467,0-3.628
			c0.034-1.013-0.386-1.529-1.399-1.621c-1.014-0.093-1.824,0.312-1.935,1.307c-0.147,1.289-0.037,2.615-0.037,3.942
			C37.893,61.033,38.871,61.033,40.085,61.033z M55.463,60.997c0-1.346,0.183-2.561-0.076-3.665
			c-0.128-0.608-0.957-1.419-1.51-1.456c-0.553-0.036-1.564,0.682-1.675,1.234c-0.258,1.235-0.093,2.578-0.093,3.887
			C53.325,60.997,54.32,60.997,55.463,60.997z"/>
		<path fill-rule="evenodd" clip-rule="evenodd" fill="#FFFFFF" d="M57.931,50.444c-1.218,0-2.156,0-3.241,0
			c0-2.098-0.056-2.876,0-4.902c0.034-1.069,0.9-1.455,1.729-1.213c0.588,0.144,1.4,0.826,1.435,1.342
			C58.019,47.624,57.931,48.364,57.931,50.444z"/>
		<path fill-rule="evenodd" clip-rule="evenodd" fill="#FFFFFF" d="M45.314,50.463c-1.141,0-2.062,0-3.166,0
			c0-2.117-0.093-2.949,0.091-5.014c0.037-0.423,1.014-1.065,1.604-1.088c0.478-0.017,1.379,0.701,1.401,1.144
			C45.409,47.514,45.314,48.308,45.314,50.463z"/>
		<path fill-rule="evenodd" clip-rule="evenodd" fill="#B3B3B3" d="M63.195,60.997c-1.177,0-2.171,0-3.389,0
			c0-1.291-0.163-2.58,0.076-3.797c0.127-0.568,0.975-1.25,1.62-1.379c0.919-0.203,1.677,0.369,1.692,1.474
			C63.213,58.471,63.195,59.651,63.195,60.997z"/>
		<path fill-rule="evenodd" clip-rule="evenodd" fill="#B3B3B3" d="M47.728,61.033c-1.143,0-2.119,0-3.314,0
			c0-1.327-0.094-2.633,0.037-3.942c0.09-1.03,0.903-1.38,1.898-1.307c0.918,0.074,1.396,0.497,1.396,1.472
			C47.708,58.471,47.728,59.668,47.728,61.033z"/>
		<path fill-rule="evenodd" clip-rule="evenodd" fill="#B3B3B3" d="M40.085,61.033c-1.215,0-2.192,0-3.371,0
			c0-1.327-0.11-2.653,0.037-3.942c0.11-0.994,0.921-1.399,1.935-1.307c1.014,0.092,1.434,0.608,1.399,1.621
			C40.065,58.566,40.085,59.725,40.085,61.033z"/>
		<path fill-rule="evenodd" clip-rule="evenodd" fill="#B3B3B3" d="M55.463,60.997c-1.144,0-2.139,0-3.354,0
			c0-1.309-0.165-2.651,0.093-3.887c0.11-0.553,1.122-1.271,1.675-1.234c0.553,0.037,1.382,0.848,1.51,1.456
			C55.646,58.436,55.463,59.651,55.463,60.997z"/>
	</g>
	<g>
		<path fill="#FFFFFF" d="M65.592,35.394c0.188-6.464-3.866-10.12-9.979-12.79c-1.509-0.662-3.535-0.772-4.512-1.86
			c-1.014-1.122-1.014-3.149-1.511-4.751c-0.11-0.312-0.478-0.534-0.719-0.791c-0.222,0.236-0.553,0.443-0.644,0.736
			c-0.386,1.255-0.81,2.542-1.067,3.832c-0.24,1.158-0.773,1.654-1.972,1.896c-7.438,1.49-13.303,6.324-13.01,13.688
			c0.951,0,1.886,0,2.826,0c0.386-8.269,6.629-10.927,13.424-11.223c7.533-0.331,12.874,2.237,14.512,11.262
			C63.771,35.394,64.636,35.394,65.592,35.394z"/>
		<path fill="#FFFFFF" d="M66.255,36.674c-11.542,0-22.997,0-34.479,0c0,1.05,0,1.382,0,2.396c11.535,0,22.99,0,34.479,0
			C66.255,38.022,66.255,37.686,66.255,36.674z"/>
		<path fill-rule="evenodd" clip-rule="evenodd" fill="#FFFFFF" d="M59.811,49.536c1.29,0,2.356,0,3.609,0c0-3.479,0-5.693,0-9.193
			c1.031,0,1.879,0,2.875,0c0,3.484,0,5.641,0,8.956c0.182,0.126,0.221,0.183,0.275,0.183c4.254,0.57,4.254,0.57,4.254,4.99
			c0,3.225,0,3.742,0,7.057c0.996,0,1.804,0,2.724,0c0,1.051,0,1.99,0,3.039c-16.335,0-32.687,0-49.122,0c0-0.975,0-1.878,0-2.889
			c0.94,0,1.786,0,2.891,0c0-0.98,0-0.577,0-1.424c-0.017-2.875-0.017-4.291,0-7.163c0-2.743,0.683-3.445,3.425-3.517
			c0.26,0,0.519-0.039,0.906-0.056c0-3.444,0-5.604,0-9.14c1.028,0,1.919,0,2.988,0c0,3.391,0,5.568,0,9.084
			c1.216,0,2.267,0,3.557,0c0-1.934,0-2.674,0-4.646c0.016-2.229,1.121-3.684,3.221-4.308c1.988-0.608,4.106,0.037,5.12,1.769
			c0.442,0.753,0.645,1.729,0.681,2.613c0.094,1.933,0.037,2.619,0.037,4.628c1.254,0,2.302,0,3.574,0c0-2.028-0.02-2.767,0-4.756
			c0-2.614,1.821-4.438,4.438-4.476c2.668-0.036,4.53,1.785,4.546,4.494C59.811,46.713,59.811,47.419,59.811,49.536z M67.732,52.667
			c-12.598,0-25.026,0-37.486,0c0,3.995,0,5.178,0,9.138c12.515,0,24.964,0,37.486,0C67.732,57.828,67.732,56.645,67.732,52.667z
			 M56.959,49.444c0-2.08,0.088-2.82-0.077-4.773c-0.034-0.516-0.847-1.198-1.435-1.342c-0.829-0.242-1.695,0.144-1.729,1.213
			c-0.056,2.026,0,2.805,0,4.902C54.803,49.444,55.742,49.444,56.959,49.444z M44.342,49.463c0-2.155,0.095-2.949-0.07-4.958
			c-0.022-0.442-0.924-1.16-1.401-1.144c-0.59,0.022-1.566,0.665-1.604,1.088c-0.184,2.064-0.091,2.896-0.091,5.014
			C42.281,49.463,43.202,49.463,44.342,49.463z"/>
		<path fill-rule="evenodd" clip-rule="evenodd" fill="#FFFFFF" d="M65.592,35.394c-0.956,0-1.821,0-2.65,0
			c0-6.312-6.979-11.593-14.512-11.262c-6.795,0.296-13.424,4.336-13.424,11.223c-0.94,0-1.875,0-2.826,0
			c-0.293-7.364,5.571-12.198,13.01-13.688c1.198-0.242,1.731-0.738,1.972-1.896c0.258-1.29,0.682-2.577,1.067-3.832
			c0.091-0.293,0.125-0.736,0.644-0.736c0.518,0,0.608,0.479,0.719,0.791c0.497,1.602,0.497,3.629,1.511,4.751
			c0.977,1.088,3.003,1.198,4.512,1.86C61.726,25.274,65.78,28.93,65.592,35.394z"/>
		<path fill-rule="evenodd" clip-rule="evenodd" fill="#FFFFFF" d="M66.255,36.674c0,1.012,0,1.348,0,2.396
			c-11.488,0-22.943,0-34.479,0c0-1.014,0-1.346,0-2.396C43.258,36.674,54.713,36.674,66.255,36.674z"/>
		<path fill-rule="evenodd" clip-rule="evenodd" fill="#FFFFFF" d="M62.223,59.997c-1.177,0-2.171,0-3.389,0
			c0-1.291-0.163-2.58,0.076-3.797c0.127-0.568,0.975-1.25,1.62-1.379c0.919-0.203,1.677,0.369,1.692,1.474
			C62.242,57.471,62.223,58.651,62.223,59.997z"/>
		<path fill-rule="evenodd" clip-rule="evenodd" fill="#FFFFFF" d="M46.756,60.033c-1.143,0-2.119,0-3.314,0
			c0-1.327-0.094-2.633,0.037-3.942c0.09-1.03,0.903-1.38,1.898-1.307c0.918,0.074,1.396,0.497,1.396,1.472
			C46.737,57.471,46.756,58.668,46.756,60.033z"/>
		<path fill-rule="evenodd" clip-rule="evenodd" fill="#FFFFFF" d="M39.114,60.033c-1.215,0-2.192,0-3.371,0
			c0-1.327-0.11-2.653,0.037-3.942c0.11-0.994,0.921-1.399,1.935-1.307c1.014,0.092,1.434,0.608,1.399,1.621
			C39.093,57.566,39.114,58.725,39.114,60.033z"/>
		<path fill-rule="evenodd" clip-rule="evenodd" fill="#FFFFFF" d="M54.492,59.997c-1.144,0-2.139,0-3.354,0
			c0-1.309-0.165-2.651,0.093-3.887c0.11-0.553,1.122-1.271,1.675-1.234c0.553,0.037,1.382,0.848,1.51,1.456
			C54.674,57.436,54.492,58.651,54.492,59.997z"/>
	</g>
</g>
</svg>
