<?xml version="1.0" encoding="utf-8"?>
<!-- Generator: Adobe Illustrator 16.0.0, SVG Export Plug-In . SVG Version: 6.00 Build 0)  -->
<!DOCTYPE svg PUBLIC "-//W3C//DTD SVG 1.1//EN" "http://www.w3.org/Graphics/SVG/1.1/DTD/svg11.dtd">
<svg version="1.1" id="Layer_1" xmlns="http://www.w3.org/2000/svg" xmlns:xlink="http://www.w3.org/1999/xlink" x="0px" y="0px"
	 width="100px" height="82px" viewBox="0 0 100 82" enable-background="new 0 0 100 82" xml:space="preserve">
<g>
	<path fill="#EFEFEF" d="M100,79.441C100,80.787,98.638,82,97.291,82H2.169C0.822,82,0,80.787,0,79.441V2.318
		C0,0.971,0.822,0,2.169,0h95.121C98.638,0,100,0.971,100,2.318V79.441z"/>
	<g opacity="0.35">
		<path fill-rule="evenodd" clip-rule="evenodd" fill="#B3B3B3" d="M39.274,25.83c1.104,1.468,2.086,2.778,3.181,4.227
			c1.914-3.255,3.797-6.418,5.626-9.615c0.16-0.265-0.125-0.778-0.019-1.144c0.219-0.799,0.352-1.769,0.895-2.283
			c0.343-0.343,1.628-0.305,1.971,0.059c0.504,0.55,0.571,1.52,0.762,2.321c0.076,0.325-0.183,0.763-0.038,1.009
			c1.845,3.218,3.739,6.398,5.684,9.691c1.102-1.447,2.121-2.762,3.188-4.15c-0.506-0.876-0.987-2.019,0.248-2.76
			c0.542-0.324,1.743-0.21,2.237,0.191c0.999,0.834,0.685,1.883-0.236,2.683c1.368,1.845,2.673,3.714,4.112,5.484
			c0.436,0.53,1.197,0.932,1.883,1.102c1.53,0.364,2.458,1.201,2.492,2.821c0.067,2.492,0.079,4.984,0,7.482
			c-0.056,1.979-1.264,3.064-3.299,3.083c-12.102,0-24.191-0.02-36.291-0.041c-2.151-0.016-3.084-0.971-3.095-3.121
			c-0.01-2.379-0.028-4.778,0-7.158c0.02-1.98,0.78-2.76,2.676-3.084c0.59-0.097,1.266-0.475,1.637-0.933
			c1.429-1.771,2.74-3.637,4.131-5.503c-0.781-0.857-1.324-1.943-0.229-2.816c0.485-0.384,1.646-0.477,2.211-0.156
			C40.16,23.868,39.891,24.972,39.274,25.83z M68.033,35.94c-12.242,0-24.361,0-36.44,0c0,2.475,0,4.816,0,7.139
			c12.205,0,24.294,0,36.44,0C68.033,40.678,68.033,38.358,68.033,35.94z M55.542,33.102c-1.921-3.293-3.739-6.396-5.662-9.67
			c-1.952,3.328-3.763,6.415-5.654,9.67C48.024,33.102,51.603,33.102,55.542,33.102z M61.57,29.543
			c-0.896,1.236-1.692,2.322-2.543,3.502c1.847,0,3.379,0,5.112,0C63.228,31.809,62.457,30.741,61.57,29.543z M35.75,33.067
			c1.772,0,3.312,0,5.038,0c-0.875-1.223-1.63-2.287-2.494-3.506C37.409,30.78,36.621,31.866,35.75,33.067z"/>
		<path fill-rule="evenodd" clip-rule="evenodd" fill="#B3B3B3" d="M44.432,61.777c0-2.801-0.007-3.98,0-6.684
			c0.022-3.105,2.068-4.949,5.506-4.949c3.329,0,5.367,1.828,5.405,4.893c0.019,2.703,0,3.9,0,6.74c3.722,0,7.342,0,11.121,0
			c0-5.086,0-8.605,0-13.729c1.009,0,1.873,0,2.866,0c0,5.047,0,8.547,0,13.805c2.042,0,3.977,0,5.964,0c0,1.082,0,1.961,0,2.951
			c-16.943,0-33.849,0-50.899,0c0-0.875,0-1.789,0-2.857c1.835,0,3.722,0,5.814,0c0-5.199,0-8.758,0-13.898c1.135,0,2.049,0,3.105,0
			c0,5.064,0,8.566,0,13.729C37.008,61.777,40.587,61.777,44.432,61.777z M52.353,61.854c0-2.932,0.057-4.229-0.017-7.01
			c-0.048-1.35-1.2-1.635-2.296-1.711c-1.103-0.076-2.445,0.189-2.532,1.389c-0.2,2.914-0.067,4.359-0.067,7.332
			C49.138,61.854,50.602,61.854,52.353,61.854z"/>
		<path fill-rule="evenodd" clip-rule="evenodd" fill="#B3B3B3" d="M63.589,37.556c0,1.201,0,2.343,0,3.602c-1.24,0-2.42,0-3.688,0
			c0-1.182,0-2.324,0-3.602C61.045,37.556,62.235,37.556,63.589,37.556z"/>
		<path fill-rule="evenodd" clip-rule="evenodd" fill="#B3B3B3" d="M36.364,37.483c1.224,0,2.366,0,3.606,0c0,1.236,0,2.416,0,3.693
			c-1.201,0-2.343,0-3.606,0C36.364,40.014,36.364,38.815,36.364,37.483z"/>
		<path fill-rule="evenodd" clip-rule="evenodd" fill="#B3B3B3" d="M52.078,41.213c-1.265,0-2.368,0-3.608,0c0-1.199,0-2.38,0-3.672
			c1.145,0,2.323,0,3.608,0C52.078,38.719,52.078,39.899,52.078,41.213z"/>
	</g>
</g>
</svg>
