<?xml version="1.0" encoding="utf-8"?>
<!-- Generator: Adobe Illustrator 16.0.0, SVG Export Plug-In . SVG Version: 6.00 Build 0)  -->
<!DOCTYPE svg PUBLIC "-//W3C//DTD SVG 1.1//EN" "http://www.w3.org/Graphics/SVG/1.1/DTD/svg11.dtd">
<svg version="1.1" id="Layer_1" xmlns="http://www.w3.org/2000/svg" xmlns:xlink="http://www.w3.org/1999/xlink" x="0px" y="0px"
	 width="100px" height="82px" viewBox="0 0 100 82" enable-background="new 0 0 100 82" xml:space="preserve">
<g>
	<path fill="#EFEFEF" d="M100,79.441C100,80.787,98.639,82,97.291,82H2.169C0.822,82,0,80.787,0,79.441V2.318
		C0,0.971,0.822,0,2.169,0h95.122C98.639,0,100,0.971,100,2.318V79.441z"/>
	<g opacity="0.35">
		<path fill="#FFFFFF" d="M20.595,64.896c19.688,0,39.24,0,58.757,0c0-1.082,0-2.055,0-3.141c-1.332,0-2.533,0-3.827,0
			c-0.038-3.426-1.485-5.559-5.104-5.674c0-9.062,0-11.777,0-20.914c1.561,0,3.028,0.037,4.493,0
			c1.829-0.059,2.723-0.973,2.858-2.764c0.168-2.266-0.479-3.37-2.782-4.433c-7.635-3.564-15.288-7.074-22.904-10.625
			c-1.407-0.658-2.723-0.64-4.112,0.018c-4.645,2.189-9.331,4.323-13.976,6.473c-3.179,1.467-6.358,2.934-9.521,4.417
			c-1.939,0.937-2.608,2.61-2.055,4.95c0.322,1.43,1.314,1.965,3.522,1.965c1.218,0,2.419,0,3.694,0c0,9.137,0,11.852,0,20.914
			c-3.676,0.076-5.009,2.322-5.105,5.732c-1.368,0-2.625,0-3.939,0C20.595,62.9,20.595,63.85,20.595,64.896z"/>
		<path fill-rule="evenodd" clip-rule="evenodd" fill="#B3B3B3" d="M20.595,64.896c0-1.047,0-1.996,0-3.082c1.314,0,2.571,0,3.939,0
			c0.097-3.41,1.43-5.656,5.105-5.732c0-9.062,0-11.777,0-20.914c-1.275,0-2.477,0-3.694,0c-2.208,0-3.2-0.535-3.522-1.965
			c-0.554-2.34,0.115-4.013,2.055-4.95c3.162-1.483,6.342-2.95,9.521-4.417c4.645-2.149,9.331-4.283,13.976-6.473
			c1.39-0.657,2.705-0.676,4.112-0.018c7.616,3.551,15.27,7.061,22.904,10.625c2.304,1.063,2.95,2.167,2.782,4.433
			c-0.136,1.791-1.029,2.705-2.858,2.764c-1.465,0.037-2.933,0-4.493,0c0,9.137,0,11.852,0,20.914
			c3.618,0.115,5.065,2.248,5.104,5.674c1.294,0,2.495,0,3.827,0c0,1.086,0,2.059,0,3.141
			C59.835,64.896,40.283,64.896,20.595,64.896z M67.262,56.141c0-9.197,0-11.912,0-20.879c-11.538,0-22.964,0-34.5,0
			c0,9.043,0,11.738,0,20.879c2.969,0,5.863,0,8.721,0c0,1.121,0,2.035,0,3.104c-4.001,0-7.921,0-11.825,0
			c-1.865,0.02-2.304,0.607-1.886,2.455c14.89,0,29.759,0,44.631,0c0-2.133-0.307-2.436-2.267-2.455c-1.048,0-2.112,0-3.18,0
			c-2.799,0-5.578,0-8.416,0c0-1.125,0-2.059,0-3.104C61.472,56.141,64.33,56.141,67.262,56.141z M25.127,31.604
			c0.132,0.193,0.247,0.383,0.379,0.555c1.372,0,2.743-0.096,4.112,0.018c2.247,0.193,4.248-0.4,6.266-1.352
			c4.341-2.056,8.757-3.998,13.176-5.93c0.533-0.238,1.351-0.273,1.865-0.048c4.951,2.171,9.882,4.379,14.775,6.626
			c2.97,1.352,5.979,0.381,9.101,0.381c-0.419-0.688-0.933-1.105-1.505-1.391c-6.624-3.086-13.308-6.037-19.857-9.282
			c-2.417-1.188-4.342-1.229-6.779-0.018c-6.587,3.284-13.326,6.234-19.992,9.338C26.096,30.768,25.639,31.244,25.127,31.604z
			 M59.857,32.102c-3.372-1.523-6.323-2.876-9.274-4.189c-0.304-0.113-0.743-0.135-1.048,0c-2.969,1.294-5.901,2.646-8.873,3.978
			c0.021,0.078,0.039,0.135,0.057,0.211C46.946,32.102,53.154,32.102,59.857,32.102z"/>
		<path fill-rule="evenodd" clip-rule="evenodd" fill="#FFFFFF" d="M67.262,56.141c-2.933,0-5.79,0-8.722,0c0,1.045,0,1.979,0,3.104
			c2.838,0,5.617,0,8.416,0c1.067,0,2.132,0,3.18,0c1.96,0.02,2.267,0.322,2.267,2.455c-14.872,0-29.741,0-44.631,0
			c-0.418-1.848,0.021-2.436,1.886-2.455c3.904,0,7.824,0,11.825,0c0-1.068,0-1.982,0-3.104c-2.857,0-5.752,0-8.721,0
			c0-9.141,0-11.836,0-20.879c11.536,0,22.962,0,34.5,0C67.262,44.229,67.262,46.943,67.262,56.141z M52.791,50.729
			c0,3.125,0,5.469,0,8.402c1.086,0,1.961,0,2.836,0c0-4.037,0-7.299,0-11.258c-3.751,0-7.424,0-11.136,0c0,4.035,0,7.336,0,11.275
			c0.97,0,1.848,0,2.894,0c0-3.084,0-5.43,0-8.42C49.211,50.729,50.85,50.729,52.791,50.729z M63.854,43.092
			c-9.331,0-18.487,0-27.608,0c0,0.99,0,1.848,0,2.705c9.271,0,18.431,0,27.608,0C63.854,44.846,63.854,44.006,63.854,43.092z
			 M40.073,54.441c0-2.283,0-4.414,0-6.529c-1.351,0-2.552,0-3.809,0c0,2.209,0,4.34,0,6.529
			C37.579,54.441,38.779,54.441,40.073,54.441z M59.95,54.424c1.372,0,2.571,0,3.827,0c0-2.189,0-4.324,0-6.492
			c-1.333,0-2.552,0-3.827,0C59.95,50.141,59.95,52.234,59.95,54.424z M56.352,37.816c0,2.305,0,1.428,0,3.543
			c1.236,0,2.323,0,3.483,0c0-2.23,0-1.352,0-3.543C58.618,37.816,57.531,37.816,56.352,37.816z M40.283,37.838
			c0,2.244,0,1.367,0,3.521c1.2,0,2.283,0,3.447,0c0-2.211,0-1.334,0-3.521C42.566,37.838,41.483,37.838,40.283,37.838z
			 M51.726,41.377c0-2.264,0-1.387,0-3.539c-1.201,0-2.287,0-3.391,0c0,2.229,0,1.367,0,3.539
			C49.497,41.377,50.543,41.377,51.726,41.377z"/>
		<path fill-rule="evenodd" clip-rule="evenodd" fill="#FFFFFF" d="M25.127,31.604c0.512-0.359,0.969-0.836,1.54-1.102
			c6.666-3.104,13.405-6.054,19.992-9.338c2.438-1.211,4.362-1.17,6.779,0.018c6.55,3.245,13.233,6.195,19.857,9.282
			c0.572,0.285,1.086,0.703,1.505,1.391c-3.122,0-6.131,0.971-9.101-0.381c-4.894-2.248-9.824-4.456-14.775-6.626
			c-0.515-0.226-1.332-0.19-1.865,0.048c-4.419,1.933-8.835,3.874-13.176,5.93c-2.018,0.951-4.019,1.545-6.266,1.352
			c-1.369-0.113-2.74-0.018-4.112-0.018C25.375,31.986,25.259,31.797,25.127,31.604z"/>
		<path fill-rule="evenodd" clip-rule="evenodd" fill="#FFFFFF" d="M59.857,32.102c-6.703,0-12.911,0-19.139,0
			c-0.018-0.076-0.035-0.133-0.057-0.211c2.972-1.332,5.904-2.684,8.873-3.978c0.305-0.135,0.744-0.113,1.048,0
			C53.534,29.225,56.485,30.578,59.857,32.102z"/>
		<path fill-rule="evenodd" clip-rule="evenodd" fill="#B3B3B3" d="M52.791,50.729c-1.94,0-3.579,0-5.406,0c0,2.99,0,5.336,0,8.42
			c-1.046,0-1.924,0-2.894,0c0-3.939,0-7.24,0-11.275c3.712,0,7.385,0,11.136,0c0,3.959,0,7.221,0,11.258c-0.875,0-1.75,0-2.836,0
			C52.791,56.197,52.791,53.854,52.791,50.729z"/>
		<path fill-rule="evenodd" clip-rule="evenodd" fill="#B3B3B3" d="M63.854,43.092c0,0.914,0,1.754,0,2.705
			c-9.178,0-18.337,0-27.608,0c0-0.857,0-1.715,0-2.705C45.367,43.092,54.523,43.092,63.854,43.092z"/>
		<path fill-rule="evenodd" clip-rule="evenodd" fill="#B3B3B3" d="M40.073,54.441c-1.294,0-2.494,0-3.809,0c0-2.189,0-4.32,0-6.529
			c1.257,0,2.458,0,3.809,0C40.073,50.027,40.073,52.158,40.073,54.441z"/>
		<path fill-rule="evenodd" clip-rule="evenodd" fill="#B3B3B3" d="M59.95,54.424c0-2.189,0-4.283,0-6.492c1.275,0,2.494,0,3.827,0
			c0,2.168,0,4.303,0,6.492C62.521,54.424,61.322,54.424,59.95,54.424z"/>
		<path fill-rule="evenodd" clip-rule="evenodd" fill="#B3B3B3" d="M56.352,37.816c1.179,0,2.266,0,3.483,0c0,2.191,0,1.312,0,3.543
			c-1.16,0-2.247,0-3.483,0C56.352,39.244,56.352,40.121,56.352,37.816z"/>
		<path fill-rule="evenodd" clip-rule="evenodd" fill="#B3B3B3" d="M40.283,37.838c1.2,0,2.283,0,3.447,0c0,2.188,0,1.311,0,3.521
			c-1.164,0-2.247,0-3.447,0C40.283,39.205,40.283,40.082,40.283,37.838z"/>
		<path fill-rule="evenodd" clip-rule="evenodd" fill="#B3B3B3" d="M51.726,41.377c-1.183,0-2.229,0-3.391,0
			c0-2.172,0-1.311,0-3.539c1.104,0,2.189,0,3.391,0C51.726,39.99,51.726,39.113,51.726,41.377z"/>
	</g>
</g>
</svg>
