<?xml version="1.0" encoding="utf-8"?>
<!-- Generator: Adobe Illustrator 16.0.0, SVG Export Plug-In . SVG Version: 6.00 Build 0)  -->
<!DOCTYPE svg PUBLIC "-//W3C//DTD SVG 1.1//EN" "http://www.w3.org/Graphics/SVG/1.1/DTD/svg11.dtd">
<svg version="1.1" id="Layer_1" xmlns="http://www.w3.org/2000/svg" xmlns:xlink="http://www.w3.org/1999/xlink" x="0px" y="0px"
	 width="100px" height="82px" viewBox="0 0 100 82" enable-background="new 0 0 100 82" xml:space="preserve">
<g>
	<g>
		<path fill="#FFE680" d="M100,79.441C100,80.787,98.639,82,97.291,82H2.169C0.822,82,0,80.787,0,79.441V2.318
			C0,0.971,0.822,0,2.169,0h95.122C98.639,0,100,0.971,100,2.318V79.441z"/>
		<g opacity="0.35">
			<path fill="#FFFFFF" d="M23.861,60.434c-2.133,0-4.055,0-5.998,0c0,0.979,0,1.77,0,2.637c21.25,0,42.459,0,63.67,0
				c0-0.953,0-1.762,0-2.723c-1.676,0-3.238,0-5.027,0c0-11.635,0-23.114,0-34.728c-9.119,0-18.012,0-27.076,0
				c0-1.79-0.036-3.43,0-5.057c0.039-1.246-0.458-1.875-1.761-1.864c-5.092,0.018-10.196,0.018-15.298-0.011
				c-1.372,0-1.887,0.646-1.838,1.97c0.059,1.628,0.009,3.257,0.009,5.064c-2.322,0-4.473,0-6.682,0
				C23.861,37.327,23.861,48.732,23.861,60.434z"/>
			<path fill-rule="evenodd" clip-rule="evenodd" fill="#B3B3B3" d="M23.861,60.434c0-11.701,0-23.107,0-34.711
				c2.209,0,4.359,0,6.682,0c0-1.808,0.05-3.437-0.009-5.064c-0.049-1.323,0.466-1.97,1.838-1.97
				c5.102,0.028,10.206,0.028,15.298,0.011c1.303-0.011,1.8,0.618,1.761,1.864c-0.036,1.627,0,3.267,0,5.057
				c9.064,0,17.957,0,27.076,0c0,11.614,0,23.093,0,34.728c1.789,0,3.352,0,5.027,0c0,0.961,0,1.77,0,2.723
				c-21.211,0-42.42,0-63.67,0c0-0.867,0-1.658,0-2.637C19.806,60.434,21.728,60.434,23.861,60.434z M26.813,40.756
				c0,6.576,0,13.021,0,19.494c1.274,0,2.454,0,3.808,0c0-4.443,0-8.766,0-13.107c12.832,0,25.495,0,38.401,0
				c0,4.428,0,8.807,0,13.119c1.686,0,3.145,0,4.627,0c0-6.559,0-13.014,0-19.469c-8.1,0-16.086,0-24.065,0
				c-0.354,2.344-0.428,2.418-2.704,2.428c-4.513,0.012-9.024,0.012-13.536,0.018c-2.504,0.012-2.601-0.084-2.933-2.482
				C29.267,40.756,28.106,40.756,26.813,40.756z M46.698,40.318c0-6.322,0-12.491,0-18.661c-4.463,0-8.833,0-13.201,0
				c0,6.266,0,12.433,0,18.661C37.922,40.318,42.252,40.318,46.698,40.318z M66.186,50.045c-5.102,0-10.043,0-15.002,0
				c0,3.408,0,6.725,0,10.018c5.062,0,10.004,0,15.002,0C66.186,56.672,66.186,53.416,66.186,50.045z M33.497,60.041
				c5.005,0,9.843,0,14.619,0c0-3.426,0-6.738,0-10.004c-4.966,0-9.804,0-14.619,0C33.497,53.453,33.497,56.711,33.497,60.041z
				 M73.621,37.793c0-1.445,0-2.731,0-3.989c-8.1,0-16.078,0-24.066,0c0,1.39,0,2.676,0,3.989
				C57.629,37.793,65.568,37.793,73.621,37.793z M73.699,28.607c-8.143,0-16.127,0-24.172,0c0,0.764,0,1.42,0,2.124
				c8.102,0,16.116,0,24.172,0C73.699,29.977,73.699,29.371,73.699,28.607z M26.813,33.768c0,1.36,0,2.637,0,3.94
				c1.274,0,2.446,0,3.615,0c0-1.371,0-2.646,0-3.94C29.173,33.768,28.031,33.768,26.813,33.768z M26.802,30.759
				c1.324,0,2.465,0,3.626,0c0-0.782,0-1.485,0-2.152c-1.275,0-2.415,0-3.626,0C26.802,29.359,26.802,30.016,26.802,30.759z"/>
			<path fill-rule="evenodd" clip-rule="evenodd" fill="#FFFFFF" d="M26.813,40.756c1.293,0,2.454,0,3.598,0
				c0.332,2.398,0.429,2.494,2.933,2.482c4.512-0.006,9.023-0.006,13.536-0.018c2.276-0.01,2.351-0.084,2.704-2.428
				c7.979,0,15.965,0,24.065,0c0,6.455,0,12.91,0,19.469c-1.482,0-2.941,0-4.627,0c0-4.312,0-8.691,0-13.119
				c-12.906,0-25.569,0-38.401,0c0,4.342,0,8.664,0,13.107c-1.354,0-2.533,0-3.808,0C26.813,53.777,26.813,47.332,26.813,40.756z"/>
			<path fill-rule="evenodd" clip-rule="evenodd" fill="#FFFFFF" d="M46.698,40.318c-4.445,0-8.775,0-13.201,0
				c0-6.228,0-12.395,0-18.661c4.368,0,8.738,0,13.201,0C46.698,27.828,46.698,33.997,46.698,40.318z"/>
			<path fill-rule="evenodd" clip-rule="evenodd" fill="#FFFFFF" d="M66.186,50.045c0,3.371,0,6.627,0,10.018
				c-4.998,0-9.939,0-15.002,0c0-3.293,0-6.609,0-10.018C56.143,50.045,61.084,50.045,66.186,50.045z"/>
			<path fill-rule="evenodd" clip-rule="evenodd" fill="#FFFFFF" d="M33.497,60.041c0-3.33,0-6.588,0-10.004
				c4.815,0,9.653,0,14.619,0c0,3.266,0,6.578,0,10.004C43.339,60.041,38.501,60.041,33.497,60.041z"/>
			<path fill-rule="evenodd" clip-rule="evenodd" fill="#FFFFFF" d="M73.621,37.793c-8.053,0-15.992,0-24.066,0
				c0-1.313,0-2.6,0-3.989c7.988,0,15.966,0,24.066,0C73.621,35.062,73.621,36.348,73.621,37.793z"/>
			<path fill-rule="evenodd" clip-rule="evenodd" fill="#FFFFFF" d="M73.699,28.607c0,0.764,0,1.37,0,2.124
				c-8.057,0-16.07,0-24.172,0c0-0.704,0-1.36,0-2.124C57.572,28.607,65.557,28.607,73.699,28.607z"/>
			<path fill-rule="evenodd" clip-rule="evenodd" fill="#FFFFFF" d="M26.813,33.768c1.218,0,2.36,0,3.615,0c0,1.294,0,2.569,0,3.94
				c-1.169,0-2.341,0-3.615,0C26.813,36.405,26.813,35.128,26.813,33.768z"/>
			<path fill-rule="evenodd" clip-rule="evenodd" fill="#FFFFFF" d="M26.802,30.759c0-0.743,0-1.4,0-2.152c1.211,0,2.351,0,3.626,0
				c0,0.667,0,1.37,0,2.152C29.267,30.759,28.126,30.759,26.802,30.759z"/>
		</g>
	</g>
	<g>
		<path fill-rule="evenodd" clip-rule="evenodd" fill="#FFFFFF" d="M22.861,59.434c0-11.701,0-23.107,0-34.711
			c2.209,0,4.359,0,6.682,0c0-1.808,0.05-3.437-0.009-5.064c-0.049-1.323,0.466-1.97,1.838-1.97
			c5.102,0.028,10.206,0.028,15.298,0.011c1.303-0.011,1.8,0.618,1.761,1.864c-0.036,1.627,0,3.267,0,5.057
			c9.064,0,17.957,0,27.076,0c0,11.614,0,23.093,0,34.728c1.789,0,3.352,0,5.027,0c0,0.961,0,1.77,0,2.723
			c-21.211,0-42.42,0-63.67,0c0-0.867,0-1.658,0-2.637C18.806,59.434,20.728,59.434,22.861,59.434z M25.813,39.756
			c0,6.576,0,13.021,0,19.494c1.274,0,2.454,0,3.808,0c0-4.443,0-8.766,0-13.107c12.832,0,25.495,0,38.401,0
			c0,4.428,0,8.807,0,13.119c1.686,0,3.145,0,4.627,0c0-6.559,0-13.014,0-19.469c-8.1,0-16.086,0-24.065,0
			c-0.354,2.344-0.428,2.418-2.704,2.428c-4.513,0.012-9.024,0.012-13.536,0.018c-2.504,0.012-2.601-0.084-2.933-2.482
			C28.267,39.756,27.106,39.756,25.813,39.756z M45.698,39.318c0-6.321,0-12.49,0-18.66c-4.463,0-8.833,0-13.201,0
			c0,6.266,0,12.433,0,18.66C36.922,39.318,41.252,39.318,45.698,39.318z M65.186,49.045c-5.102,0-10.043,0-15.002,0
			c0,3.408,0,6.725,0,10.018c5.062,0,10.004,0,15.002,0C65.186,55.672,65.186,52.416,65.186,49.045z M32.497,59.041
			c5.005,0,9.843,0,14.619,0c0-3.426,0-6.738,0-10.004c-4.966,0-9.804,0-14.619,0C32.497,52.453,32.497,55.711,32.497,59.041z
			 M72.621,36.793c0-1.445,0-2.731,0-3.989c-8.1,0-16.078,0-24.066,0c0,1.39,0,2.676,0,3.989
			C56.629,36.793,64.568,36.793,72.621,36.793z M72.699,27.607c-8.143,0-16.127,0-24.172,0c0,0.764,0,1.42,0,2.124
			c8.102,0,16.116,0,24.172,0C72.699,28.977,72.699,28.371,72.699,27.607z M25.813,32.768c0,1.36,0,2.637,0,3.94
			c1.274,0,2.446,0,3.615,0c0-1.371,0-2.646,0-3.94C28.173,32.768,27.031,32.768,25.813,32.768z M25.802,29.759
			c1.324,0,2.465,0,3.626,0c0-0.782,0-1.485,0-2.152c-1.275,0-2.415,0-3.626,0C25.802,28.359,25.802,29.016,25.802,29.759z"/>
	</g>
</g>
</svg>
